<svg width="128" height="83" viewBox="0 0 128 83" fill="none" xmlns="http://www.w3.org/2000/svg">
<g clip-path="url(#clip0_1_11)">
<path d="M114.4 12.8H72.2V11.9H53V12.8H10.6C9.8 12.8 9.1 13.1 8.6 13.6C8.1 14.1 7.8 14.9 7.8 15.6V72.9C7.8 73.7 8.1 74.4 8.6 74.9C9.1 75.4 9.9 75.7 10.6 75.7H114.3C115.1 75.7 115.8 75.4 116.3 74.9C116.8 74.4 117.1 73.6 117.1 72.9V15.6C117.1 14.8 116.8 14.1 116.3 13.6C115.8 13.1 115.1 12.8 114.4 12.8Z" fill="#3F3D56"/>
<path d="M113.4 17.8H11.6V74.7H113.4V17.8Z" fill="#E6E6E6"/>
<path d="M109.1 20.8H15.9V70H109.1V20.8Z" fill="white"/>
<path d="M62.4 16.2C63 16.2 63.4 15.7 63.4 15.2C63.4 14.7 62.9 14.2 62.4 14.2C61.8 14.2 61.4 14.7 61.4 15.2C61.4 15.7 61.8 16.2 62.4 16.2Z" fill="#6C63FF"/>
<path d="M120.1 73.7H110.2V73V72.9H110.1H106.7H106.6V73V73.7H104.5V73V72.9H104.4H101H100.9V73V73.7H98.8V73V72.9H98.7H95H94.9V73V73.7H92.8V73V72.9H92.7H89.3H89.2V73V73.7H87.1V73V72.9H87H83.6H83.5V73V73.7H81V73V72.9H80.9H77.5H77.4V73V73.7H75.3V73V72.9H75.2H48.4H48.3V73V73.7H46.2V73V72.9H46.1H42.7H42.6V73V73.7H40.5V73V72.9H40.4H37H36.9V73V73.7H34.8V73V72.9H34.7H31H30.9V73V73.7H28.8V73V72.9H28.7H25.3H25.2V73V73.7H23.1V73V72.9H23H19.6H19.5V73V73.7H17.4V73V72.9H17.3H13.9H13.8V73V73.7H6.79999C5.89999 73.7 4.99999 74.1 4.39999 74.7C3.79999 75.3 3.39999 76.2 3.39999 77.1V78.6C3.39999 79.5 3.79999 80.4 4.39999 81C4.99999 81.6 5.89999 82 6.79999 82H120C120.9 82 121.8 81.6 122.4 81C123 80.4 123.4 79.5 123.4 78.6V77C123.4 76.1 123 75.2 122.4 74.6C121.8 74 121 73.7 120.1 73.7Z" fill="#3F3D56"/>
<path d="M83.1 24.2H41.9V67.1H83.1V24.2Z" fill="#E6E6E6"/>
<path d="M127.6 81.4H0.5V82.5H127.6V81.4Z" fill="#636276"/>
<path d="M67.5 36.4C70.5 36.4 73 34 73 31C73 28 70.5 25.6 67.5 25.6C64.5 25.6 62 28 62 31C62 34 64.5 36.4 67.5 36.4Z" fill="#A0616A"/>
<path d="M54.9 67.3L58.4 45.2C58.6 44 59 42.9 59.7 41.9C60.4 40.9 61.2 40.1 62.2 39.4C63.2 38.8 64.3 38.3 65.5 38.2C66.7 38 67.9 38.1 69 38.5C71 39.1 72.7 40.4 73.8 42.1C74.9 43.9 75.3 46 74.9 48L71.2 67.7L54.9 67.3Z" fill="#103A69"/>
<path d="M69 71.2C69.3 71 69.5 70.8 69.7 70.5C69.9 70.2 70 69.9 70 69.6C70 69.3 70 69 69.9 68.6C69.8 68.3 69.6 68 69.4 67.8L73.1 60.8L69 61.2L66.2 67.8C65.8 68.2 65.6 68.7 65.6 69.3C65.6 69.8 65.8 70.4 66.1 70.8C66.5 71.2 67 71.5 67.5 71.6C68 71.6 68.5 71.5 69 71.2Z" fill="#A0616A"/>
<path d="M69.8 66.6C69.6 66.6 69.4 66.5 69.3 66.3L67.9 65C67.7 64.9 67.6 64.7 67.6 64.5C67.6 64.3 67.6 64.1 67.7 63.9L70.5 57.3L70.1 44.3C70.2 43.5 70.7 42.7 71.3 42.2C72 41.7 72.8 41.5 73.7 41.6C74.5 41.7 75.3 42.2 75.8 42.8C76.3 43.5 76.5 44.3 76.4 45.2L77.1 53.4C77.3 55.9 76.6 58.3 75.1 60.3L70.7 66.1C70.6 66.2 70.5 66.3 70.4 66.4C70.3 66.5 70.1 66.5 70 66.5C69.9 66.6 69.9 66.6 69.8 66.6Z" fill="#103A69"/>
<path d="M36 28C36.1 28.3 36.2 28.6 36.4 28.9C36.6 29.2 36.8 29.4 37.1 29.5C37.4 29.7 37.7 29.8 38 29.8C38.3 29.8 38.7 29.8 39 29.7L44.1 35.8L45.3 31.9L40.3 26.7C40.1 26.2 39.7 25.8 39.2 25.6C38.7 25.4 38.1 25.3 37.6 25.5C37.1 25.7 36.6 26 36.3 26.5C35.9 26.9 35.8 27.5 36 28Z" fill="#A0616A"/>
<path d="M39.9 30.5C40 30.3 40.2 30.2 40.3 30.1L42 29.3C42.2 29.2 42.4 29.2 42.6 29.2C42.8 29.2 43 29.3 43.1 29.5L48.1 34.6L60.3 39.3C60.7 39.5 61 39.8 61.2 40.1C61.5 40.4 61.6 40.8 61.7 41.2C61.8 41.6 61.8 42 61.8 42.4C61.7 42.8 61.6 43.2 61.4 43.6C61.2 44 60.9 44.3 60.6 44.5C60.3 44.8 59.9 44.9 59.5 45C59.1 45.1 58.7 45.1 58.2 45.1C57.8 45 57.4 44.9 57 44.7L49.2 42.1C46.8 41.3 44.8 39.7 43.5 37.6L39.8 31.3C39.7 31.2 39.7 31 39.7 30.9C39.7 30.8 39.7 30.6 39.7 30.5C39.9 30.7 39.9 30.6 39.9 30.5Z" fill="#103A69"/>
<path opacity="0.1" d="M71.9 49.8L71.7 56.9L67.6 64L71 56.1L71.9 49.8Z" fill="black"/>
<path d="M63.8 28.2C64.4 28.9 65.3 29 66.2 29.1C68 29.3 70.6 29 72.3 28.6C72.4 29.8 72.1 31.1 72.8 32.1C73.1 30.9 73.3 29.7 73.4 28.4C73.4 27.9 73.4 27.3 73.2 26.8C73 26.4 72.5 26 72 26C72.4 25.7 72.9 25.5 73.4 25.4L71.7 24.5L72.1 24L69 23.8L69.9 23.2C68.5 23 67.1 23 65.8 23.1C65.2 23.1 64.5 23.2 64 23.6C63.5 24 63.2 24.7 63.5 25.2C63.1 25.3 62.7 25.4 62.4 25.7C62.1 26 61.8 26.3 61.7 26.7C61.5 27.3 61.5 27.9 61.6 28.5C61.7 29.5 62 30.5 62.3 31.4" fill="#2F2E41"/>
<path d="M87.2 14.6L37.3 26.1C37.1 26.2 36.8 26.1 36.6 26C36.4 25.9 36.2 25.7 36.2 25.4L33.3 13.1C33.2 12.9 33.3 12.6 33.4 12.4C33.5 12.2 33.7 12 34 12L83.9 0.499994C84.1 0.399994 84.4 0.499994 84.6 0.599994C84.8 0.799994 85 0.999994 85 1.29999L87.9 13.6C88 13.8 87.9 14.1 87.8 14.3C87.6 14.4 87.4 14.6 87.2 14.6Z" fill="white"/>
<path d="M87.2 14.6L37.3 26.1C37.1 26.2 36.8 26.1 36.6 26C36.4 25.9 36.2 25.7 36.2 25.4L33.3 13.1C33.2 12.9 33.3 12.6 33.4 12.4C33.5 12.2 33.7 12 34 12L83.9 0.499994C84.1 0.399994 84.4 0.499994 84.6 0.599994C84.8 0.799994 85 0.999994 85 1.29999L87.9 13.6C88 13.8 87.9 14.1 87.8 14.3C87.6 14.4 87.4 14.6 87.2 14.6ZM34.1 12.3C34 12.3 33.8 12.4 33.7 12.6C33.6 12.7 33.6 12.9 33.6 13L36.5 25.3C36.5 25.4 36.6 25.6 36.8 25.7C36.9 25.8 37.1 25.8 37.2 25.8L87.1 14.4C87.2 14.4 87.4 14.3 87.5 14.1C87.6 14 87.6 13.8 87.6 13.7L84.7 1.29999C84.7 1.19999 84.6 0.999994 84.4 0.899994C84.3 0.799994 84.1 0.799994 84 0.799994L34.1 12.3Z" fill="#E6E6E6"/>
<path d="M51.4 12.3C51.3 12.3 51.2 12.4 51.2 12.4C51.1 12.4 51.1 12.5 51 12.6C51 12.7 50.9 12.8 50.9 12.8C50.9 12.9 50.9 13 50.9 13C50.9 13.1 51 13.2 51 13.2C51 13.3 51.1 13.3 51.2 13.4C51.3 13.4 51.4 13.5 51.4 13.5C51.5 13.5 51.6 13.5 51.7 13.5L81.3 6.69999C81.5 6.69999 81.6 6.59999 81.7 6.39999C81.8 6.29999 81.8 6.09999 81.8 5.89999C81.8 5.69999 81.7 5.59999 81.5 5.49999C81.4 5.39999 81.2 5.39999 81 5.39999L51.4 12.3Z" fill="#E6E6E6"/>
<path d="M52.3 16C52.2 16 52.1 16.1 52.1 16.1C52 16.1 52 16.2 51.9 16.3C51.9 16.4 51.8 16.5 51.8 16.5C51.8 16.6 51.8 16.7 51.8 16.7C51.8 16.8 51.9 16.9 51.9 16.9C51.9 16.9 52 17 52.1 17.1C52.2 17.1 52.3 17.2 52.3 17.2C52.4 17.2 52.5 17.2 52.6 17.2L65.3 14.3C65.5 14.3 65.6 14.2 65.7 14C65.8 13.9 65.8 13.7 65.8 13.5C65.8 13.3 65.7 13.2 65.5 13.1C65.4 13 65.2 13 65 13L52.3 16Z" fill="#E6E6E6"/>
<path d="M43.3 20.6C45.4 20.6 47.2 18.9 47.2 16.8C47.2 14.7 45.5 13 43.3 13C41.1 13 39.4 14.7 39.4 16.8C39.4 18.9 41.2 20.6 43.3 20.6Z" fill="#103A69"/>
<path d="M43.2 18.9C43.1 18.9 42.9 18.9 42.8 18.9L41.2 18.2C41.1 18.2 41.1 18.1 41 18.1C41 18 41 17.9 41 17.9C41 17.8 41 17.7 41 17.7C41 17.6 41 17.5 41.1 17.5C41.1 17.4 41.2 17.4 41.2 17.3C41.3 17.2 41.3 17.2 41.4 17.2C41.5 17.2 41.6 17.2 41.6 17.2C41.7 17.2 41.8 17.2 41.8 17.3L42.8 17.8L44.2 14.7C44.3 14.6 44.4 14.4 44.5 14.4C44.6 14.3 44.8 14.4 45 14.4C45.1 14.5 45.3 14.6 45.3 14.7C45.4 14.8 45.4 15 45.3 15.2L43.6 18.8C43.6 18.9 43.5 19 43.4 19C43.4 18.9 43.3 18.9 43.2 18.9Z" fill="white"/>
</g>
<defs>
<clipPath id="clip0_1_11">
<rect width="128" height="83" fill="white"/>
</clipPath>
</defs>
</svg>
