<svg width="123" height="91" viewBox="0 0 123 91" fill="none" xmlns="http://www.w3.org/2000/svg">
<g clip-path="url(#clip0_1_2)">
<path d="M14.7 73.5H4.5C4.3 73.5 4 73.5 3.8 73.6C3.6 73.7 3.4 73.8 3.3 74C2.9 73.9 2.5 74 2.2 74.1C1.8 74.2 1.5 74.4 1.2 74.7C0.900001 75 0.700001 75.3 0.600001 75.7C0.500001 76.1 0.400001 76.4 0.500001 76.8C0.600001 77.2 0.700001 77.5 0.900001 77.9C1.1 78.2 1.4 78.5 1.7 78.7C2 78.9 2.4 79 2.8 79C3.2 79 3.6 78.9 3.9 78.8L5.1 88.8C5.2 89.1 5.4 89.4 5.7 89.6C6 89.8 6.3 89.9 6.6 89.9H13.3C13.6 89.9 14 89.8 14.2 89.6C14.5 89.4 14.7 89.1 14.8 88.8L16.2 75.7C16.3 75.5 16.3 75.2 16.2 75C16.2 74.8 16.1 74.5 15.9 74.3C15.8 74.1 15.6 73.9 15.3 73.8C15 73.7 15 73.5 14.7 73.5ZM2.8 78.1C2.3 78.1 1.9 77.9 1.6 77.6C1.3 77.3 1.1 76.8 1.1 76.4C1.1 75.9 1.3 75.5 1.6 75.2C1.9 74.9 2.4 74.7 2.8 74.7H2.9C2.8 75 2.8 75.3 2.9 75.5L3.6 77.9C3.4 78.1 3.1 78.1 2.8 78.1Z" fill="#F0F0F0"/>
<path d="M122.1 90.7H2.7C2.7 90.7 2.6 90.6 2.6 90.5C2.6 90.4 2.6 90.3 2.6 90.1C2.6 89.9 2.6 89.8 2.6 89.7C2.6 89.6 2.7 89.5 2.7 89.5H122.2C122.2 89.5 122.3 89.6 122.3 89.7C122.3 89.8 122.3 89.9 122.3 90.1C122.3 90.3 122.3 90.4 122.3 90.5C122.2 90.6 122.2 90.7 122.1 90.7Z" fill="#3F3D56"/>
<path d="M51 70L44.3 44.5L43.5 41.6L44.2 40.9L56.8 34.7L74.7 35.1L85.2 40.5L85.3 44.5L85.8 80.4L87.9 89.2H49.4L52.4 75.2L51 70Z" fill="#F37A2A"/>
<path d="M95.4 89.2H85.4L82.6 69.2L83.3 44.5L83.4 41.1L85.3 40.5C86.7 41.6 87.9 42.9 88.8 44.5C90 46.6 91.1 49.7 90.8 53.8C90.8 53.8 91 58.7 90.8 61.9C90.7 64.2 93.2 78.2 95.4 89.2Z" fill="#F37A2A"/>
<path d="M51.1 69.7V70L48.4 89.2H36.8C37.7 78.3 38.8 64.7 38.7 62.5C38.5 59.3 38.7 54.4 38.7 54.4C38.4 49.9 39.7 46.7 41 44.5C41.7 43.4 42.5 42.4 43.5 41.6C43.7 41.4 43.9 41.2 44.2 41.1L46.1 41.7L46.6 44.5L51.1 69.7Z" fill="#F37A2A"/>
<path d="M52.4 17.9C52.4 20.4 53.1 22.8 54.5 24.8C55.9 26.8 57.8 28.4 60.1 29.4C62.4 30.3 64.9 30.6 67.3 30.1C69.7 29.6 71.9 28.4 73.7 26.7C75.4 25 76.6 22.7 77.1 20.3C77.6 17.9 77.3 15.4 76.4 13.1C75.5 10.8 73.9 8.89999 71.8 7.49999C69.8 6.09999 67.4 5.39999 64.9 5.39999C61.6 5.39999 58.5 6.69999 56.1 8.99999C53.7 11.4 52.4 14.6 52.4 17.9Z" fill="#FFB7B7"/>
<path d="M103.3 87.8C103.3 88.5 103 89.2 102.5 89.7C102 90.2 101.3 90.5 100.6 90.5H29C28.3 90.5 27.6 90.2 27.1 89.7C26.6 89.2 26.3 88.5 26.3 87.8C26.3 87.1 26.6 86.4 27.1 85.9C27.6 85.4 28.3 85.1 29 85.1H29.8C29.8 84.9 29.7 84.8 29.7 84.6V48.1C29.7 47.5 29.9 46.9 30.4 46.5C30.8 46.1 31.4 45.8 32 45.8H97.5C98.1 45.8 98.7 46 99.1 46.5C99.5 46.9 99.8 47.5 99.8 48.1V84.7C99.8 84.9 99.8 85 99.7 85.2H100.5C100.9 85.2 101.2 85.3 101.5 85.4C101.8 85.5 102.1 85.7 102.4 86C102.6 86.2 102.8 86.5 103 86.9C103.2 87.1 103.3 87.5 103.3 87.8Z" fill="#3F3D56"/>
<path d="M78.9 7.6C77.9 6.8 77.1 5.8 76.5 4.7C76.3 4.3 76 3.9 75.7 3.5L73.3 5.3L74.7 2.8C71 0.600005 63.8 1.8 63.8 1.8C56.3 -2.2 53.6 2.8 52.6 5.9C52.2 7 51.6 8.1 50.7 8.9C48.9 10.7 51.8 14.1 51.8 14.1V14.3L52.5 19C52.5 19 53.2 15.9 55 13.7C56.2 12.3 58 11.5 58.9 11.5C70.2 11.7 72.3 12.2 72.3 12.2C72.3 12.2 74.2 13.2 75 13.7C77.7 15.1 77.1 20.1 77.1 20.1L79.1 11.2C79.7 9 79.4 8 78.9 7.6Z" fill="#2F2E41"/>
</g>
<defs>
<clipPath id="clip0_1_2">
<rect width="123" height="91" fill="white"/>
</clipPath>
</defs>
</svg>
