<svg width="345" height="256" viewBox="0 0 345 256" fill="none" xmlns="http://www.w3.org/2000/svg">
<g clip-path="url(#clip0_1_3354)">
<path d="M309.559 236.377H286.77V236.549H309.559V236.377Z" fill="#EBEBEB"/>
<path d="M227.9 238.248H221.92V238.42H227.9V238.248Z" fill="#EBEBEB"/>
<path d="M286.082 229.991H272.878V230.163H286.082V229.991Z" fill="#EBEBEB"/>
<path d="M65.8131 231.147H36.0957V231.319H65.8131V231.147Z" fill="#EBEBEB"/>
<path d="M76.2993 231.147H71.9438V231.319H76.2993V231.147Z" fill="#EBEBEB"/>
<path d="M154.917 234.051H90.4595V234.223H154.917V234.051Z" fill="#EBEBEB"/>
<path d="M164.034 194.618H31.1691C29.0017 194.618 27.2402 192.857 27.2402 190.689V3.92883C27.2402 1.76144 29.0017 0 31.1691 0H164.034C166.201 0 167.962 1.76144 167.962 3.92883V190.689C167.962 192.857 166.201 194.618 164.034 194.618ZM31.1691 0.172015C29.098 0.172015 27.4122 1.85777 27.4122 3.92883V190.689C27.4122 192.76 29.098 194.446 31.1691 194.446H164.034C166.105 194.446 167.79 192.76 167.79 190.689V3.92883C167.79 1.85777 166.105 0.172015 164.034 0.172015H31.1691Z" fill="#EBEBEB"/>
<path d="M312.861 194.618H179.997C177.829 194.618 176.068 192.857 176.068 190.689V3.92883C176.068 1.76144 177.829 0 179.997 0H312.861C315.029 0 316.79 1.76144 316.79 3.92883V190.689C316.79 192.857 315.029 194.618 312.861 194.618ZM179.997 0.172015C177.926 0.172015 176.24 1.85777 176.24 3.92883V190.689C176.24 192.76 177.926 194.446 179.997 194.446H312.861C314.932 194.446 316.618 192.76 316.618 190.689V3.92883C316.618 1.85777 314.932 0.172015 312.861 0.172015H179.997Z" fill="#EBEBEB"/>
<path d="M344.03 225.306H0V225.478H344.03V225.306Z" fill="#EBEBEB"/>
<path d="M240.87 221.315H306.359V134.172H240.87V221.315Z" fill="#F5F5F5"/>
<path d="M228.374 221.315H240.87V134.172H228.374V221.315Z" fill="#E6E6E6"/>
<path d="M245.122 161.798H301.77V140.633H245.122V161.798Z" fill="#FAFAFA"/>
<path d="M280.832 140.633L280.585 143.454C280.502 144.383 279.724 145.098 278.789 145.098H268.096C267.161 145.098 266.383 144.383 266.3 143.454L266.053 140.633H280.825H280.832Z" fill="#EBEBEB"/>
<path d="M245.122 185.267H301.77V164.103H245.122V185.267Z" fill="#FAFAFA"/>
<path d="M280.832 164.109L280.585 166.931C280.502 167.859 279.724 168.575 278.789 168.575H268.096C267.161 168.575 266.383 167.859 266.3 166.931L266.053 164.109H280.825H280.832Z" fill="#EBEBEB"/>
<path d="M245.122 208.744H301.77V187.579H245.122V208.744Z" fill="#FAFAFA"/>
<path d="M280.832 187.579L280.585 190.4C280.502 191.329 279.724 192.045 278.789 192.045H268.096C267.161 192.045 266.383 191.329 266.3 190.4L266.053 187.579H280.825H280.832Z" fill="#EBEBEB"/>
<path d="M245.122 225.657H301.082L301.77 221.301H245.122V225.657Z" fill="#E6E6E6"/>
<path d="M233.425 225.657H245.122V221.301H232.737L233.425 225.657Z" fill="#E0E0E0"/>
<path d="M271.426 134.261H293.788L291.311 105.906H268.949L271.426 134.261Z" fill="#FAFAFA"/>
<path d="M271.426 134.261H270.36L267.876 105.906H268.949L271.426 134.261Z" fill="#EBEBEB"/>
<path d="M273.456 131.372H291.256L289.282 108.796H271.481L273.456 131.372Z" fill="#F0F0F0"/>
<path d="M274.757 129.514H289.626L287.981 110.654H273.105L274.757 129.514Z" fill="#E6E6E6"/>
<path d="M265.145 134.261L266.679 116.709H244.42L242.886 134.261H265.145Z" fill="#F0F0F0"/>
<path d="M265.145 134.261L266.679 116.709H267.876L266.342 134.261H265.145Z" fill="#E0E0E0"/>
<path d="M263.032 132.472L264.257 118.498H246.532L245.308 132.472H263.032Z" fill="#EBEBEB"/>
<path d="M261.67 131.323L262.695 119.647H247.888L246.87 131.323H261.67Z" fill="#F5F5F5"/>
<path d="M213.739 213.863C213.739 218.514 213.01 221.521 211.778 223.455C210.856 224.907 209.191 225.725 207.471 225.725H200.735C199.015 225.725 197.357 224.907 196.428 223.455C195.196 221.521 194.467 218.514 194.467 213.863C194.467 207.113 197.405 201.719 198.368 197.405C198.712 195.85 197.563 191.095 197.563 191.095H210.636C210.636 191.095 209.487 195.857 209.831 197.405C210.794 201.719 213.733 207.12 213.733 213.863H213.739Z" fill="#EBEBEB"/>
<path d="M236.005 186.554C236.005 180.699 226.819 183.127 224.507 174.038C223.634 170.598 231.099 162.802 231.099 162.802H207.808C207.808 162.802 215.281 170.598 214.4 174.038C212.088 183.127 202.902 180.692 202.902 186.554C202.902 193.008 215.859 206.439 216.478 221.563C216.533 222.911 214.042 225.718 214.042 225.718H224.858C224.858 225.718 222.368 222.918 222.423 221.563C223.049 206.439 235.998 193.001 235.998 186.554H236.005Z" fill="#F5F5F5"/>
<path d="M228.966 201.781C230.322 198.932 227.521 189.251 227.521 189.251H237.615C237.615 189.251 234.815 198.932 236.17 201.781C237.126 203.79 239.301 205.077 239.301 207.45V221.741C239.301 225.443 236.273 225.718 232.572 225.718C228.87 225.718 225.842 225.443 225.842 221.741V207.45C225.842 205.07 228.017 203.79 228.973 201.781H228.966Z" fill="#F0F0F0"/>
<path d="M113.633 117.369C107.833 114.858 104.53 109.56 106.257 105.555C107.991 101.551 114.115 100.34 119.915 102.851C125.716 105.363 129.025 110.661 127.291 114.665C125.557 118.67 119.434 119.881 113.633 117.369ZM118.25 106.711C115.532 105.535 112.663 106.106 111.851 107.977C111.039 109.856 112.587 112.333 115.305 113.509C118.023 114.686 120.892 114.115 121.704 112.243C122.516 110.365 120.968 107.888 118.25 106.711Z" fill="#E6E6E6"/>
<path d="M120.459 106.932L117.707 105.741L134.358 67.2511C134.688 66.4873 135.569 66.1433 136.332 66.4667C137.096 66.797 137.44 67.6777 137.117 68.4414L120.466 106.932H120.459Z" fill="#E6E6E6"/>
<path d="M138.383 72.1638L133.092 69.852L134.289 67.0997L139.573 69.4047L138.383 72.1638Z" fill="#E6E6E6"/>
<path d="M135.775 75.2464L131.991 73.6019L133.181 70.8428L136.965 72.4872L135.775 75.2464Z" fill="#E6E6E6"/>
<path d="M131.641 76.0994L130.449 78.8524L134.692 80.6895L135.884 77.9365L131.641 76.0994Z" fill="#E6E6E6"/>
<path d="M121.525 102.824L120.012 102.17C119.255 101.847 118.911 100.966 119.234 100.216V100.195C119.571 99.4386 120.445 99.0945 121.202 99.4179L122.716 100.072C123.473 100.395 123.817 101.276 123.493 102.026V102.046C123.156 102.803 122.282 103.147 121.525 102.824Z" fill="#E6E6E6"/>
<path d="M239.769 89.5924C244.365 92.6543 245.548 98.9776 242.411 103.684C239.273 108.39 232.984 109.732 228.388 106.677C223.792 103.615 222.608 97.2918 225.746 92.5855C228.884 87.8792 235.172 86.5374 239.769 89.5993V89.5924ZM231.409 102.136C233.562 103.567 236.507 102.941 237.98 100.732C239.452 98.5235 238.895 95.5648 236.741 94.1268C234.588 92.6956 231.643 93.3217 230.17 95.5304C228.698 97.7391 229.255 100.698 231.409 102.136Z" fill="#E6E6E6"/>
<path d="M230.301 100.911L233.15 102.81L212.776 133.993C212.253 134.777 211.187 134.991 210.402 134.468C209.618 133.945 209.405 132.885 209.928 132.094L230.301 100.911Z" fill="#E6E6E6"/>
<path d="M210.051 125.296L216.044 129.321L213.051 133.814L207.044 129.782C206.184 129.204 205.95 128.034 206.528 127.174L207.43 125.819C208.008 124.952 209.184 124.718 210.051 125.296Z" fill="#E6E6E6"/>
<path d="M156.561 29.9995L153.396 38.1943C153.114 38.9305 152.282 39.302 151.546 39.0131C150.809 38.731 150.438 37.8984 150.727 37.1622L153.892 28.9674C154.91 26.3183 153.589 23.339 150.947 22.3138L148.016 21.1854C145.367 20.1671 142.387 21.4881 141.362 24.1303L140.069 27.4743L137.392 26.4422L138.686 23.0982C140.275 18.9767 144.926 16.9194 149.041 18.5088L151.972 19.6373C156.094 21.2267 158.151 25.878 156.561 29.9995Z" fill="#F0F0F0"/>
<path d="M156.059 31.293C155.846 31.0247 155.564 30.7976 155.22 30.6669L139.257 24.5019C138.899 24.3642 138.527 24.3367 138.176 24.4055C137.537 24.5294 136.972 24.9697 136.725 25.6234L130.56 41.5864C130.167 42.5979 130.67 43.7263 131.681 44.1185L147.644 50.2835C148.656 50.6757 149.784 50.1734 150.176 49.162L156.341 33.199C156.596 32.5384 156.472 31.8159 156.059 31.293ZM143.936 43.63L138.871 41.6759L141.548 37.0039C141.211 36.3228 141.149 35.5108 141.445 34.7471C142.002 33.3022 143.626 32.5797 145.078 33.137C146.53 33.6944 147.245 35.3251 146.688 36.77C146.392 37.5337 145.8 38.0911 145.091 38.3663L143.936 43.63Z" fill="#E6E6E6"/>
<path d="M47.5793 216.402L174.96 216.402V147.851H47.5793L47.5793 216.402Z" fill="#E6E6E6"/>
<path d="M164.749 225.292H172.758V219.244H164.749V225.292Z" fill="#E6E6E6"/>
<path d="M37.8567 225.292H45.8657L45.8657 142.745H37.8567L37.8567 225.292Z" fill="#E6E6E6"/>
<path d="M45.7695 142.745V225.292H50.0424V220.668H172.758V225.292H177.031V142.745H45.7695ZM50.0424 150.218H109.264V178.889H50.0424V150.218ZM172.758 213.196H113.537V150.218H172.758V213.196ZM50.0424 213.196V183.155H109.264V213.196H50.0424Z" fill="#F0F0F0"/>
<path d="M113.53 213.196H168.753V153.3H113.53V213.196Z" fill="#F5F5F5"/>
<path d="M116.034 181.455C116.034 182.873 117.183 184.022 118.601 184.022C120.018 184.022 121.167 182.873 121.167 181.455C121.167 180.038 120.018 178.889 118.601 178.889C117.183 178.889 116.034 180.038 116.034 181.455Z" fill="#FAFAFA"/>
<path d="M118.601 184.022C119.633 184.022 120.52 183.403 120.926 182.522C121.078 182.845 121.167 183.21 121.167 183.588C121.167 185.006 120.018 186.155 118.601 186.155C117.183 186.155 116.034 185.006 116.034 183.588C116.034 183.203 116.124 182.845 116.275 182.522C116.681 183.403 117.569 184.022 118.601 184.022Z" fill="#E0E0E0"/>
<path d="M147.341 213.196H134.165L127.869 153.3H141.046L147.341 213.196Z" fill="#FAFAFA"/>
<path d="M130.793 213.196H128.165L121.876 153.3H124.497L130.793 213.196Z" fill="#FAFAFA"/>
<path d="M95.9222 178.861H101.138V153.245H95.9222V178.861Z" fill="#FAFAFA"/>
<path d="M74.283 178.861H79.4985V153.245H74.283V178.861Z" fill="#F5F5F5"/>
<path d="M90.7 178.861H95.9155V155.041H90.7V178.861Z" fill="#F5F5F5"/>
<path d="M79.4984 178.861H84.7139V155.041H79.4984V178.861Z" fill="#FAFAFA"/>
<path d="M84.7208 178.861H88.0923V153.245H84.7208V178.861Z" fill="#EBEBEB"/>
<path d="M88.0856 178.861H90.6934V155.041H88.0856V178.861Z" fill="#FAFAFA"/>
<path d="M69.0672 178.861H74.2827V153.245H69.0672V178.861Z" fill="#EBEBEB"/>
<path d="M63.845 178.861H69.0605V155.041H63.845V178.861Z" fill="#E6E6E6"/>
<path d="M52.6434 178.861H57.8589V155.041H52.6434V178.861Z" fill="#E6E6E6"/>
<path d="M57.8658 178.861H61.2373V153.245H57.8658V178.861Z" fill="#FAFAFA"/>
<path d="M61.2375 178.861H63.8452V155.041H61.2375V178.861Z" fill="#EBEBEB"/>
<path d="M50.0358 178.855H52.6436V153.844H50.0358V178.855Z" fill="#EBEBEB"/>
<path d="M55.2511 187.579H50.0356V213.196H55.2511V187.579Z" fill="#EBEBEB"/>
<path d="M76.884 187.579H71.6685V213.196H76.884V187.579Z" fill="#FAFAFA"/>
<path d="M60.4665 189.375H55.251V213.196H60.4665V189.375Z" fill="#FAFAFA"/>
<path d="M71.6681 189.375H66.4526V213.196H71.6681V189.375Z" fill="#EBEBEB"/>
<path d="M66.4526 187.579H63.0811V213.196H66.4526V187.579Z" fill="#FAFAFA"/>
<path d="M63.0814 189.375H60.4736V213.196H63.0814V189.375Z" fill="#F5F5F5"/>
<path d="M82.1061 187.579H76.8906V213.196H82.1061V187.579Z" fill="#EBEBEB"/>
<path d="M87.3215 189.375H82.106V213.196H87.3215V189.375Z" fill="#F5F5F5"/>
<path d="M98.5231 189.375H93.3076V213.196H98.5231V189.375Z" fill="#E6E6E6"/>
<path d="M93.308 187.579H89.9365V213.196H93.308V187.579Z" fill="#FAFAFA"/>
<path d="M104.509 187.579H101.138V213.196H104.509V187.579Z" fill="#FAFAFA"/>
<path d="M89.9364 189.375H87.3286V213.196H89.9364V189.375Z" fill="#EBEBEB"/>
<path d="M101.131 188.185H98.5234V213.196H101.131V188.185Z" fill="#EBEBEB"/>
<path d="M55.8567 98.6267C55.8567 98.6267 54.9828 99.0327 54.5836 99.8447C54.1845 100.657 55.4232 102.164 55.4232 102.164C55.4232 102.164 56.4692 102.893 57.5015 102.419L58.5406 101.951C58.5406 101.951 56.772 98.8744 55.9118 98.8469L55.8636 98.6336L55.8567 98.6267Z" fill="#E6E6E6"/>
<path d="M60.2945 98.5992C60.4183 100.058 59.517 101.895 58.2165 102.012C56.9161 102.122 55.7051 100.471 55.5813 99.012C55.4574 97.5533 56.5033 97.4088 57.8106 97.2987C59.111 97.1886 60.1706 97.1473 60.3014 98.606L60.2945 98.5992Z" fill="#E6E6E6"/>
<path d="M56.476 98.1727C56.476 98.1727 57.4738 98.9641 59.5246 98.503C59.5246 98.503 56.2902 100.657 56.476 98.1727Z" fill="#E6E6E6"/>
<path d="M57.3564 97.8836C57.3564 97.8836 58.5057 97.6841 58.5195 98.1658C58.5195 98.1658 59.4898 98.1107 59.359 97.7047C59.2214 97.2987 57.3564 97.8905 57.3564 97.8905V97.8836Z" fill="#E6E6E6"/>
<g opacity="0.2">
<path d="M56.476 98.1727C56.476 98.1727 57.4738 98.9641 59.5246 98.503C59.5246 98.503 56.2902 100.657 56.476 98.1727Z" fill="#FAFAFA"/>
</g>
<g opacity="0.2">
<path d="M57.3564 97.8836C57.3564 97.8836 58.5057 97.6841 58.5195 98.1658C58.5195 98.1658 59.4898 98.1107 59.359 97.7047C59.2214 97.2987 57.3564 97.8905 57.3564 97.8905V97.8836Z" fill="#FAFAFA"/>
</g>
<path d="M56.0283 102.473C56.4412 103.147 57.2875 103.491 58.0719 103.395C58.8563 103.299 59.5581 102.81 60.0122 102.163C60.4663 101.517 60.6796 100.725 60.7278 99.9409C60.7415 99.7344 60.7553 99.2253 60.487 99.1496C60.2393 99.0808 60.0879 99.4248 59.9778 99.5831C59.6475 100.044 59.3035 100.478 58.8838 100.863C58.4778 101.234 58.0306 101.565 57.5489 101.833C57.4113 101.909 56.104 102.59 56.0283 102.473Z" fill="#E6E6E6"/>
<path d="M61.616 99.5626C61.8638 100.154 61.7743 100.87 61.3889 101.386C61.1343 101.723 60.7765 101.964 60.4186 102.178C60.1709 102.329 59.8474 102.474 59.5997 102.315C59.3313 102.143 59.3588 101.758 59.4208 101.441C59.5171 100.966 59.6203 100.492 59.7373 100.017C59.8337 99.6314 59.8956 98.9846 60.1227 98.6542C60.336 98.3446 60.6388 98.5304 60.9623 98.7506C61.2513 98.9501 61.4853 99.2323 61.6229 99.5557L61.616 99.5626Z" fill="#E6E6E6"/>
<g opacity="0.2">
<path d="M56.3589 101.661C55.8566 101.641 55.3817 101.297 55.1959 100.829C55.0583 100.485 55.0652 99.6037 55.5125 99.4868C55.712 100.271 55.8841 100.98 56.3589 101.655V101.661Z" fill="#FAFAFA"/>
</g>
<g opacity="0.2">
<path d="M59.751 101.627C60.2259 101.489 60.6181 101.104 60.7626 100.629C60.8452 100.368 60.742 99.0326 60.3428 99.5969C60.2121 99.7827 60.2396 100.368 60.1708 100.602C60.0676 100.959 59.9299 101.304 59.7441 101.627H59.751Z" fill="#FAFAFA"/>
</g>
<g opacity="0.2">
<path d="M57.9347 102.452C58.2995 102.762 58.8913 102.783 59.2698 102.487C59.2216 102.741 58.4096 102.962 58.1549 103.037C57.5012 103.23 57.1571 102.941 56.5171 102.673C56.5171 102.673 57.5218 102.824 57.9278 102.452H57.9347Z" fill="#FAFAFA"/>
</g>
<path d="M56.7993 129.252L56.8612 109.402L57.8796 103.361L58.2649 103.429L57.2534 109.436L57.1777 129.631L56.7993 129.252Z" fill="#E0E0E0"/>
<path d="M57.212 109.299L56.9023 109.539C56.5927 109.133 56.3106 108.604 55.9872 107.991C55.4849 107.042 54.9138 105.968 54.0469 105.019L54.3359 104.757C55.2372 105.748 55.8152 106.842 56.3312 107.812C56.6477 108.411 56.923 108.927 57.212 109.305V109.299Z" fill="#E0E0E0"/>
<path d="M57.4532 106.636C57.9831 106.499 58.4579 106.161 58.7607 105.707C59.1048 105.191 59.2286 104.565 59.3388 103.952C58.6506 104.159 57.9142 103.822 57.2054 103.904C56.6411 103.966 56.1112 104.317 55.8222 104.806C55.4506 105.446 55.2992 106.168 55.6295 106.464C55.8979 106.705 56.7443 106.822 57.4532 106.636Z" fill="#E6E6E6"/>
<path d="M54.8114 105.267C54.1783 105.666 53.3662 105.769 52.6505 105.535C51.9348 105.301 51.7284 104.234 51.4531 103.533C52.1 103.402 53.7379 103.491 54.1095 103.533C54.4811 103.567 54.8596 103.739 55.0591 104.056C55.2587 104.372 55.2243 104.847 54.9215 105.06C54.9009 105.047 54.8114 105.267 54.8114 105.267Z" fill="#E6E6E6"/>
<path d="M51.5562 106.423C51.9898 105.893 53.0633 105.514 53.7377 105.638C54.4121 105.762 54.9833 106.223 55.2242 106.774C55.0453 107.2 54.5704 107.441 54.1093 107.475C53.6483 107.51 53.1941 107.372 52.7536 107.235C52.3132 107.097 51.859 106.966 51.3979 106.994L51.5631 106.423H51.5562Z" fill="#E6E6E6"/>
<path d="M64.8013 103.01C64.8013 103.01 65.5169 103.65 65.6614 104.551C65.8059 105.445 64.1752 106.519 64.1752 106.519C64.1752 106.519 62.9642 106.904 62.111 106.154L61.2578 105.397C61.2578 105.397 63.8518 102.982 64.6844 103.202L64.7944 103.01H64.8013Z" fill="#E6E6E6"/>
<path d="M60.5628 101.682C60.0124 103.037 60.3358 105.06 61.5468 105.555C62.7578 106.051 64.3953 104.819 64.9458 103.464C65.4962 102.108 64.533 101.661 63.322 101.173C62.111 100.684 61.1064 100.333 60.5628 101.689V101.682Z" fill="#E6E6E6"/>
<path d="M64.3408 102.397C64.3408 102.397 63.1572 102.865 61.3335 101.819C61.3335 101.819 63.7903 104.833 64.3408 102.397Z" fill="#E6E6E6"/>
<path d="M63.5838 101.861C63.5838 101.861 62.5446 101.331 62.3863 101.785C62.3863 101.785 61.4711 101.448 61.7188 101.097C61.9665 100.746 63.5769 101.861 63.5769 101.861H63.5838Z" fill="#E6E6E6"/>
<g opacity="0.2">
<path d="M64.3408 102.397C64.3408 102.397 63.1572 102.865 61.3335 101.819C61.3335 101.819 63.7903 104.833 64.3408 102.397Z" fill="#FAFAFA"/>
</g>
<g opacity="0.2">
<path d="M63.5838 101.861C63.5838 101.861 62.5446 101.331 62.3863 101.785C62.3863 101.785 61.4711 101.448 61.7188 101.097C61.9665 100.746 63.5769 101.861 63.5769 101.861H63.5838Z" fill="#FAFAFA"/>
</g>
<path d="M63.501 106.636C62.9092 107.159 62.001 107.234 61.2785 106.918C60.5561 106.601 60.0263 105.92 59.7854 105.17C59.5446 104.42 59.5721 103.601 59.751 102.831C59.7992 102.631 59.9299 102.143 60.212 102.143C60.4666 102.143 60.5148 102.521 60.5767 102.707C60.7556 103.244 60.962 103.76 61.2441 104.255C61.5194 104.73 61.8565 105.177 62.2349 105.576C62.3382 105.686 63.3978 106.725 63.501 106.636Z" fill="#E6E6E6"/>
<path d="M59.0218 102.212C58.6158 102.707 58.485 103.416 58.7052 104.022C58.8497 104.421 59.1181 104.751 59.4003 105.068C59.593 105.288 59.8613 105.515 60.1435 105.439C60.4463 105.357 60.5358 104.971 60.5702 104.662C60.6183 104.18 60.6596 103.691 60.6803 103.21C60.7009 102.81 60.8317 102.177 60.7147 101.792C60.6046 101.434 60.2605 101.517 59.8889 101.641C59.5517 101.751 59.2489 101.943 59.0218 102.219V102.212Z" fill="#E6E6E6"/>
<g opacity="0.2">
<path d="M63.4253 105.769C63.9139 105.9 64.4644 105.714 64.781 105.315C65.015 105.026 65.2696 104.179 64.8705 103.945C64.4507 104.634 64.0791 105.26 63.4253 105.769Z" fill="#FAFAFA"/>
</g>
<g opacity="0.2">
<path d="M60.1916 104.737C59.7787 104.469 59.5103 103.98 59.5172 103.485C59.5172 103.209 60.0058 101.971 60.2192 102.617C60.288 102.831 60.0953 103.381 60.0884 103.629C60.0815 104.001 60.1159 104.372 60.1916 104.737Z" fill="#FAFAFA"/>
</g>
<g opacity="0.2">
<path d="M61.6846 106.058C61.2442 106.25 60.673 106.092 60.3977 105.7C60.3702 105.961 61.0859 106.409 61.2992 106.553C61.8704 106.932 62.2833 106.753 62.9715 106.691C62.9715 106.691 61.9599 106.54 61.6846 106.065V106.058Z" fill="#FAFAFA"/>
</g>
<path d="M56.2349 126.287L56.4826 125.475L56.8128 124.381L57.1981 123.101L60.2875 112.938L60.6729 110.021L61.0169 107.434L61.0857 106.897L61.2783 106.918V106.925L61.4779 106.945L61.471 106.993L61.4022 107.503L61.0375 110.269L60.7348 112.519L60.6729 113.014L60.6453 113.097L57.1981 124.45L56.8059 125.723L56.6271 126.314L56.3862 127.119L56.2349 126.287Z" fill="#E0E0E0"/>
<path d="M60.3633 112.814L60.5903 113.131C61.0101 112.835 61.4298 112.409 61.9252 111.92C62.682 111.163 63.5421 110.303 64.6499 109.649L64.4504 109.312C63.3013 109.993 62.4206 110.874 61.65 111.645C61.1683 112.126 60.7555 112.539 60.3702 112.814H60.3633Z" fill="#E0E0E0"/>
<path d="M60.9206 110.2C60.4595 109.911 60.1017 109.45 59.9434 108.927C59.7645 108.335 59.8333 107.695 59.9021 107.083C60.494 107.482 61.2991 107.379 61.9529 107.668C62.4759 107.895 62.875 108.384 63.0058 108.934C63.1709 109.657 63.1021 110.393 62.703 110.572C62.3727 110.723 61.5331 110.586 60.9137 110.2H60.9206Z" fill="#E6E6E6"/>
<path d="M63.8448 109.67C64.3334 110.241 65.0835 110.579 65.8268 110.565C66.5769 110.551 67.093 109.588 67.561 109.003C66.9829 108.686 65.3863 108.294 65.0216 108.218C64.6569 108.143 64.244 108.191 63.9618 108.438C63.6797 108.679 63.5764 109.147 63.7967 109.443C63.8173 109.436 63.8448 109.67 63.8448 109.67Z" fill="#E6E6E6"/>
<path d="M66.6182 111.734C66.3567 111.101 65.4415 110.42 64.767 110.344C64.0858 110.262 63.4045 110.537 63.0122 110.991C63.0535 111.452 63.4389 111.824 63.8724 111.989C64.306 112.154 64.7808 112.161 65.2419 112.161C65.703 112.161 66.1778 112.161 66.6113 112.333L66.6251 111.734H66.6182Z" fill="#E6E6E6"/>
<path d="M50.8611 102.218C50.8611 102.218 50.0699 102.776 49.8222 103.643C49.5745 104.516 51.0676 105.776 51.0676 105.776C51.0676 105.776 52.2235 106.305 53.1593 105.652L54.095 105.005C54.095 105.005 51.7969 102.301 50.9506 102.425L50.8611 102.218Z" fill="#E6E6E6"/>
<path d="M55.2234 101.4C55.6087 102.81 55.0514 104.785 53.7922 105.129C52.5331 105.473 51.0468 104.062 50.6615 102.652C50.2762 101.241 51.2808 100.911 52.5468 100.567C53.8129 100.223 54.8449 99.989 55.2303 101.406L55.2234 101.4Z" fill="#E6E6E6"/>
<path d="M51.3906 101.661C51.3906 101.661 52.5123 102.26 54.4461 101.441C54.4461 101.441 51.6521 104.145 51.3906 101.661Z" fill="#E6E6E6"/>
<path d="M52.2026 101.221C52.2026 101.221 53.2968 100.815 53.4001 101.29C53.4001 101.29 54.3497 101.062 54.1433 100.684C53.9368 100.305 52.2026 101.221 52.2026 101.221Z" fill="#E6E6E6"/>
<g opacity="0.2">
<path d="M51.3906 101.661C51.3906 101.661 52.5123 102.26 54.4461 101.441C54.4461 101.441 51.6521 104.145 51.3906 101.661Z" fill="#FAFAFA"/>
</g>
<g opacity="0.2">
<path d="M52.2026 101.221C52.2026 101.221 53.2968 100.815 53.4001 101.29C53.4001 101.29 54.3497 101.062 54.1433 100.684C53.9368 100.305 52.2026 101.221 52.2026 101.221Z" fill="#FAFAFA"/>
</g>
<path d="M51.7212 105.975C52.251 106.56 53.1455 106.753 53.8955 106.519C54.6524 106.285 55.2579 105.679 55.5813 104.964C55.9115 104.248 55.9803 103.429 55.884 102.645C55.8634 102.445 55.7808 101.936 55.5056 101.909C55.251 101.881 55.1615 102.246 55.079 102.425C54.8381 102.941 54.5767 103.429 54.2327 103.883C53.9024 104.324 53.5171 104.723 53.0974 105.081C52.9804 105.177 51.8107 106.085 51.7144 105.982L51.7212 105.975Z" fill="#E6E6E6"/>
<path d="M56.6963 102.102C57.0473 102.638 57.0886 103.361 56.7996 103.932C56.6138 104.311 56.3041 104.606 55.9875 104.889C55.7673 105.081 55.4783 105.281 55.203 105.171C54.914 105.047 54.8658 104.662 54.8727 104.345C54.8727 103.856 54.9002 103.375 54.9346 102.886C54.9621 102.487 54.9002 101.84 55.0654 101.475C55.2168 101.131 55.5471 101.262 55.9049 101.42C56.2215 101.565 56.5036 101.799 56.6963 102.095V102.102Z" fill="#E6E6E6"/>
<g opacity="0.2">
<path d="M51.9072 105.115C51.4117 105.184 50.8818 104.936 50.6135 104.51C50.4208 104.193 50.2625 103.326 50.6823 103.133C51.0195 103.87 51.3154 104.537 51.9003 105.115H51.9072Z" fill="#FAFAFA"/>
</g>
<g opacity="0.2">
<path d="M55.2373 104.476C55.6777 104.255 56.0012 103.801 56.0562 103.313C56.0906 103.044 55.7466 101.75 55.4575 102.37C55.3612 102.576 55.4919 103.147 55.4713 103.388C55.4369 103.76 55.3543 104.125 55.2373 104.476Z" fill="#FAFAFA"/>
</g>
<g opacity="0.2">
<path d="M53.5998 105.611C54.0196 105.851 54.5976 105.762 54.9211 105.404C54.9211 105.666 54.1572 106.023 53.9232 106.14C53.3108 106.45 52.9254 106.223 52.251 106.078C52.251 106.078 53.2695 106.051 53.5998 105.611Z" fill="#FAFAFA"/>
</g>
<path d="M57.2879 132.177L53.7857 112.636L53.7031 106.519L54.0953 106.512L54.1779 112.608L57.7352 132.479L57.2879 132.177Z" fill="#E0E0E0"/>
<path d="M54.1162 112.478L53.8547 112.767C53.4762 112.423 53.1046 111.955 52.671 111.404C52.0035 110.565 51.2534 109.608 50.228 108.824L50.4689 108.514C51.5287 109.326 52.2994 110.303 52.9807 111.164C53.4005 111.693 53.7584 112.155 54.1162 112.478Z" fill="#E0E0E0"/>
<path d="M53.8683 109.815C54.3638 109.581 54.7698 109.168 54.99 108.666C55.2378 108.095 55.2447 107.455 55.2447 106.835C54.6047 107.159 53.8202 106.966 53.1389 107.172C52.5952 107.338 52.1341 107.771 51.9414 108.308C51.6937 109.003 51.6731 109.746 52.0447 109.973C52.3544 110.159 53.2008 110.125 53.8683 109.815Z" fill="#E6E6E6"/>
<path d="M51.027 108.941C50.4764 109.45 49.6919 109.698 48.9487 109.595C48.2055 109.492 47.8063 108.48 47.4141 107.84C48.0265 107.592 49.6575 107.393 50.0291 107.358C50.4007 107.324 50.7999 107.427 51.0545 107.702C51.3091 107.978 51.3573 108.445 51.0958 108.721C51.0751 108.714 51.0201 108.941 51.0201 108.941H51.027Z" fill="#E6E6E6"/>
<path d="M48.0336 110.668C48.3639 110.069 49.3549 109.505 50.0361 109.505C50.7174 109.505 51.3643 109.856 51.7015 110.358C51.6052 110.812 51.1785 111.136 50.7312 111.246C50.2839 111.356 49.8091 111.308 49.3549 111.253C48.8938 111.198 48.4258 111.15 47.9785 111.26L48.0336 110.668Z" fill="#E6E6E6"/>
<path d="M58.726 120.191H54.6114C54.3017 120.191 54.0265 120.383 53.9371 120.679C53.5999 121.746 52.8774 124.553 52.8774 128.977C52.8774 133.835 54.1435 140.282 54.5425 142.188C54.6114 142.511 54.8935 142.738 55.2168 142.738H58.0792C58.4095 142.738 58.6847 142.504 58.7535 142.188C59.1526 140.282 60.4186 133.835 60.4186 128.977C60.4186 124.553 59.6961 121.752 59.359 120.679C59.2695 120.397 59.0149 120.204 58.7191 120.191H58.726Z" fill="#F0F0F0"/>
<path d="M172.015 256C245.694 256 305.423 252.513 305.423 248.211C305.423 243.91 245.694 240.422 172.015 240.422C98.3357 240.422 38.6069 243.91 38.6069 248.211C38.6069 252.513 98.3357 256 172.015 256Z" fill="#F5F5F5"/>
<path d="M83.1039 221.432C82.87 221.418 82.6842 221.219 82.6911 220.985C83.2003 200.762 84.2461 167.591 84.3012 167.405C84.37 167.171 84.6177 167.047 84.8447 167.109C85.0787 167.178 85.2094 167.426 85.1406 167.653C85.1268 167.694 84.0741 200.983 83.5718 220.998C83.5718 221.239 83.3654 221.432 83.1246 221.425C83.1246 221.425 83.1108 221.425 83.1039 221.425V221.432Z" fill="#001640"/>
<path d="M80.3864 153.905C80.5584 155.461 82.4231 160.862 83.9781 160.697C85.5331 160.525 86.1937 154.855 86.0285 153.293C85.8565 151.738 84.4597 150.61 82.9047 150.782C81.3497 150.954 80.2213 152.35 80.3933 153.905H80.3864Z" fill="#3F80FF"/>
<path d="M87.9481 170.935C87.776 169.38 85.9114 163.979 84.3564 164.151C82.8014 164.323 82.1408 169.992 82.306 171.554C82.478 173.109 83.8747 174.238 85.4297 174.066C86.9848 173.894 88.1132 172.497 87.9412 170.942L87.9481 170.935Z" fill="#3F80FF"/>
<path d="M75.6524 166.201C77.2074 166.029 82.6087 164.164 82.4367 162.609C82.2647 161.054 76.595 160.394 75.0331 160.559C73.4781 160.731 72.3497 162.128 72.5217 163.683C72.6937 165.238 74.0905 166.366 75.6455 166.194L75.6524 166.201Z" fill="#3F80FF"/>
<path d="M92.6821 158.639C91.1271 158.811 85.7258 160.676 85.8909 162.231C86.0629 163.786 91.7325 164.447 93.2944 164.281C94.8495 164.109 95.9779 162.713 95.8059 161.158C95.6339 159.603 94.2371 158.474 92.6821 158.646V158.639Z" fill="#3F80FF"/>
<path d="M75.4735 159.073C76.6982 160.057 81.8312 162.554 82.8151 161.33C83.799 160.105 80.2486 155.626 79.0308 154.649C77.8129 153.665 76.0239 153.864 75.04 155.082C74.0561 156.3 74.2556 158.089 75.4735 159.073Z" fill="#3F80FF"/>
<path d="M92.8609 165.768C91.6431 164.784 86.5033 162.286 85.5193 163.511C84.5354 164.729 88.0858 169.208 89.3037 170.192C90.5215 171.176 92.3105 170.976 93.2944 169.758C94.2783 168.541 94.0788 166.752 92.8609 165.768Z" fill="#3F80FF"/>
<path d="M80.8197 171.114C81.8036 169.896 84.3013 164.756 83.0765 163.772C81.8587 162.788 77.3794 166.339 76.3955 167.557C75.4115 168.775 75.6111 170.563 76.8289 171.547C78.0468 172.531 79.8358 172.332 80.8197 171.114Z" fill="#3F80FF"/>
<path d="M87.5145 153.727C86.5306 154.944 84.0329 160.084 85.2576 161.068C86.4755 162.052 90.9548 158.502 91.9387 157.284C92.9226 156.066 92.7231 154.277 91.5052 153.293C90.2874 152.309 88.4984 152.509 87.5145 153.727Z" fill="#3F80FF"/>
<g opacity="0.6">
<path d="M80.3864 153.905C80.5584 155.461 82.4231 160.862 83.9781 160.697C85.5331 160.525 86.1937 154.855 86.0285 153.293C85.8565 151.738 84.4597 150.61 82.9047 150.782C81.3497 150.954 80.2213 152.35 80.3933 153.905H80.3864Z" fill="white"/>
<path d="M87.9481 170.935C87.776 169.38 85.9114 163.979 84.3564 164.151C82.8014 164.323 82.1408 169.992 82.306 171.554C82.478 173.109 83.8747 174.238 85.4297 174.066C86.9848 173.894 88.1132 172.497 87.9412 170.942L87.9481 170.935Z" fill="white"/>
<path d="M75.6524 166.201C77.2074 166.029 82.6087 164.164 82.4367 162.609C82.2647 161.054 76.595 160.394 75.0331 160.559C73.4781 160.731 72.3497 162.128 72.5217 163.683C72.6937 165.238 74.0905 166.366 75.6455 166.194L75.6524 166.201Z" fill="white"/>
<path d="M92.6821 158.639C91.1271 158.811 85.7258 160.676 85.8909 162.231C86.0629 163.786 91.7325 164.447 93.2944 164.281C94.8495 164.109 95.9779 162.713 95.8059 161.158C95.6339 159.603 94.2371 158.474 92.6821 158.646V158.639Z" fill="white"/>
<path d="M75.4735 159.073C76.6982 160.057 81.8312 162.554 82.8151 161.33C83.799 160.105 80.2486 155.626 79.0308 154.649C77.8129 153.665 76.0239 153.864 75.04 155.082C74.0561 156.3 74.2556 158.089 75.4735 159.073Z" fill="white"/>
<path d="M92.8609 165.768C91.6431 164.784 86.5033 162.286 85.5193 163.511C84.5354 164.729 88.0858 169.208 89.3037 170.192C90.5215 171.176 92.3105 170.976 93.2944 169.758C94.2783 168.541 94.0788 166.752 92.8609 165.768Z" fill="white"/>
<path d="M80.8197 171.114C81.8036 169.896 84.3013 164.756 83.0765 163.772C81.8587 162.788 77.3794 166.339 76.3955 167.557C75.4115 168.775 75.6111 170.563 76.8289 171.547C78.0468 172.531 79.8358 172.332 80.8197 171.114Z" fill="white"/>
<path d="M87.5145 153.727C86.5306 154.944 84.0329 160.084 85.2576 161.068C86.4755 162.052 90.9548 158.502 91.9387 157.284C92.9226 156.066 92.7231 154.277 91.5052 153.293C90.2874 152.309 88.4984 152.509 87.5145 153.727Z" fill="white"/>
</g>
<path d="M80.8264 162.781C81.0259 164.625 82.6842 165.96 84.5282 165.761C86.3722 165.561 87.707 163.903 87.5075 162.059C87.3079 160.215 85.6497 158.88 83.8057 159.08C81.9617 159.279 80.6269 160.937 80.8264 162.781Z" fill="#3F80FF"/>
<path d="M81.157 206.618C77.2832 206.7 70.6503 203.122 68.0357 199.627C65.3867 196.084 72.8177 198.265 72.0471 195.478C71.2765 192.691 62.1321 194.776 60.4326 190.786C58.7331 186.795 65.3385 187.689 65.0702 185.653C64.8018 183.609 57.9625 184.043 55.7538 179.804C53.5451 175.559 59.5657 177.926 58.6161 176.164C57.6666 174.403 50.1048 167.013 53.2562 165.458C56.4075 163.903 63.4945 171.602 65.8683 172.456C68.2421 173.309 68.7788 167.976 71.8682 170.515C74.9576 173.054 72.6801 184.215 76.3131 185.673C79.0172 186.76 77.8543 181.662 80.9712 182.942C86.4207 185.178 82.7327 206.583 81.157 206.618Z" fill="#3F80FF"/>
<g opacity="0.2">
<path d="M81.157 206.618C77.2832 206.7 70.6503 203.122 68.0357 199.627C65.3867 196.084 72.8177 198.265 72.0471 195.478C71.2765 192.691 62.1321 194.776 60.4326 190.786C58.7331 186.795 65.3385 187.689 65.0702 185.653C64.8018 183.609 57.9625 184.043 55.7538 179.804C53.5451 175.559 59.5657 177.926 58.6161 176.164C57.6666 174.403 50.1048 167.013 53.2562 165.458C56.4075 163.903 63.4945 171.602 65.8683 172.456C68.2421 173.309 68.7788 167.976 71.8682 170.515C74.9576 173.054 72.6801 184.215 76.3131 185.673C79.0172 186.76 77.8543 181.662 80.9712 182.942C86.4207 185.178 82.7327 206.583 81.157 206.618Z" fill="white"/>
</g>
<path d="M86.7301 201.698C86.792 201.808 86.214 202.359 88.1268 202.434C92.84 202.627 101.172 202.311 104.303 198.024C108.769 191.907 98.4684 192.464 99.4661 189.093C100.471 185.721 111.542 188.474 113.702 183.657C115.863 178.841 107.812 179.783 108.184 177.3C108.555 174.823 117.005 178.036 119.791 172.924C122.578 167.811 115.195 170.55 116.392 168.43C117.59 166.311 126.961 157.497 123.163 155.536C119.365 153.575 110.565 162.775 107.661 163.759C104.757 164.742 104.083 155.722 100.271 158.736C96.4524 161.756 98.9569 175.38 94.5052 177.066C91.1887 178.325 92.9983 173.446 88.9043 173.632C83.3448 173.887 81.5214 192.987 86.7232 201.691L86.7301 201.698Z" fill="#3F80FF"/>
<g opacity="0.3">
<path d="M86.7301 201.698C86.792 201.808 86.214 202.359 88.1268 202.434C92.84 202.627 101.172 202.311 104.303 198.024C108.769 191.907 98.4684 192.464 99.4661 189.093C100.471 185.721 111.542 188.474 113.702 183.657C115.863 178.841 107.812 179.783 108.184 177.3C108.555 174.823 117.005 178.036 119.791 172.924C122.578 167.811 115.195 170.55 116.392 168.43C117.59 166.311 126.961 157.497 123.163 155.536C119.365 153.575 110.565 162.775 107.661 163.759C104.757 164.742 104.083 155.722 100.271 158.736C96.4524 161.756 98.9569 175.38 94.5052 177.066C91.1887 178.325 92.9983 173.446 88.9043 173.632C83.3448 173.887 81.5214 192.987 86.7232 201.691L86.7301 201.698Z" fill="white"/>
</g>
<path d="M83.2005 218.377C83.2005 218.377 83.1867 218.377 83.1729 218.377C83.0078 218.356 82.884 218.205 82.9046 218.033C86.7715 186.368 105.012 173.501 105.198 173.378C105.335 173.281 105.528 173.316 105.624 173.453C105.721 173.591 105.686 173.784 105.549 173.88C105.37 174.004 87.3495 186.733 83.517 218.108C83.4963 218.267 83.3587 218.384 83.2005 218.377Z" fill="#001640"/>
<path d="M101.042 177.774C100.918 177.774 100.801 177.685 100.76 177.561C100.705 177.403 100.794 177.224 100.959 177.176C101.07 177.141 103.787 176.281 108.239 177.224C108.404 177.258 108.507 177.423 108.473 177.589C108.439 177.754 108.274 177.864 108.108 177.823C103.829 176.914 101.173 177.747 101.145 177.754C101.111 177.767 101.076 177.767 101.035 177.767L101.042 177.774Z" fill="#001640"/>
<path d="M97.6775 181.621C97.5123 181.621 97.3885 181.483 97.3816 181.318C97.2853 171.74 102.831 164.261 102.886 164.185C102.989 164.048 103.182 164.02 103.313 164.123C103.45 164.226 103.478 164.419 103.375 164.55C103.32 164.625 97.8977 171.946 97.994 181.304C97.994 181.476 97.8564 181.614 97.6912 181.614H97.6775V181.621Z" fill="#001640"/>
<path d="M92.2417 189.726C92.166 189.726 92.0903 189.692 92.0284 189.63C91.9114 189.506 91.9183 189.313 92.0422 189.196C92.0835 189.155 96.1843 185.364 101.558 187.29C101.716 187.345 101.799 187.524 101.744 187.682C101.689 187.841 101.51 187.923 101.352 187.868C96.3288 186.065 92.4963 189.609 92.4619 189.643C92.4 189.698 92.3174 189.733 92.2417 189.726Z" fill="#001640"/>
<path d="M89.4001 195.375C89.2831 195.375 89.1799 195.299 89.1317 195.189C89.0423 194.99 87.0332 190.173 88.1409 183.313C88.1685 183.148 88.3198 183.031 88.4918 183.059C88.657 183.086 88.7739 183.244 88.7464 183.41C87.6662 190.084 89.6753 194.9 89.6959 194.948C89.7647 195.107 89.6959 195.286 89.5308 195.347C89.4895 195.368 89.4414 195.375 89.4001 195.375Z" fill="#001640"/>
<path d="M83.3174 229.689C83.1591 229.689 83.0284 229.551 83.0215 229.393L82.6224 221.005C81.4458 193.125 62.3246 174.155 62.132 173.969C62.0081 173.852 62.0081 173.66 62.132 173.536C62.2489 173.412 62.4416 173.412 62.5654 173.536C62.7581 173.729 82.0582 192.85 83.2417 220.991L83.6407 229.379C83.6407 229.551 83.51 229.689 83.3449 229.695C83.338 229.695 83.3311 229.695 83.3242 229.695L83.3174 229.689Z" fill="#001640"/>
<path d="M70.024 184.442C70.024 184.442 69.9896 184.442 69.9758 184.442C69.9483 184.442 69.9139 184.421 69.8863 184.407L69.79 184.366C67.2855 183.327 64.492 182.783 61.9117 182.845C61.7397 182.852 61.6021 182.715 61.5952 182.543C61.5952 182.371 61.7259 182.233 61.898 182.226C64.5539 182.171 67.4437 182.721 70.024 183.795L70.1272 183.836C70.1272 183.836 70.1616 183.85 70.1822 183.864C70.2992 183.926 70.3749 184.063 70.3405 184.201C70.3129 184.352 70.1753 184.449 70.0308 184.442H70.024Z" fill="#001640"/>
<path d="M72.7278 188.033C72.7278 188.033 72.721 188.033 72.7141 188.033C72.5489 188.02 72.4182 187.868 72.4389 187.703C73.182 179.474 68.916 172.703 68.8747 172.635C68.7853 172.49 68.8265 172.304 68.971 172.208C69.1155 172.118 69.3013 172.16 69.3976 172.304C69.4389 172.373 73.815 179.316 73.0581 187.758C73.0444 187.923 72.8999 188.04 72.7416 188.04L72.7278 188.033Z" fill="#001640"/>
<path d="M75.5217 192.802C75.446 192.802 75.3704 192.767 75.3153 192.712C75.2809 192.678 72.1778 189.616 67.6297 190.827C67.4645 190.875 67.2994 190.772 67.2512 190.607C67.21 190.442 67.3063 190.276 67.4714 190.228C72.3704 188.921 75.6112 192.141 75.7488 192.279C75.8658 192.403 75.8658 192.595 75.7488 192.712C75.6869 192.774 75.6043 192.802 75.5217 192.802Z" fill="#001640"/>
<path d="M79.0652 200.659C79.024 200.659 78.9758 200.645 78.9345 200.625C78.7831 200.549 78.7281 200.363 78.8038 200.212C78.8244 200.171 80.9299 196.056 80.4482 190.118C80.4345 189.946 80.5583 189.802 80.7303 189.788C80.9024 189.767 81.0468 189.898 81.0606 190.07C81.556 196.194 79.4368 200.322 79.3473 200.494C79.2923 200.604 79.1753 200.666 79.0652 200.659Z" fill="#001640"/>
<path d="M100.567 231.01C100.567 240.787 96.1702 248.72 82.8494 248.72C69.5285 248.72 65.1318 240.787 65.1318 231.01C65.1318 227.322 66.2671 223.888 68.1937 221.053H97.512C99.4385 223.888 100.574 227.322 100.574 231.01H100.567Z" fill="#3F80FF"/>
<path opacity="0.7" d="M100.567 231.01C100.567 240.787 96.1702 248.72 82.8494 248.72C69.5285 248.72 65.1318 240.787 65.1318 231.01C65.1318 227.322 66.2671 223.888 68.1937 221.053H97.512C99.4385 223.888 100.574 227.322 100.574 231.01H100.567Z" fill="white"/>
<path d="M202.359 240.071L209.212 239.074L207.485 223.035L200.625 224.04L202.359 240.071Z" fill="#E8BFBF"/>
<path d="M214.483 239.315C215.082 239.274 215.639 239.026 216.08 238.62C216.266 238.386 216.327 238.069 216.238 237.78C216.197 237.601 216.066 237.45 215.894 237.395C214.979 237.065 212.474 238.916 212.192 239.122C212.137 239.163 212.116 239.239 212.13 239.308C212.15 239.37 212.212 239.418 212.281 239.418C213.017 239.452 213.754 239.418 214.483 239.315ZM215.447 237.705C215.55 237.677 215.66 237.684 215.756 237.711C215.825 237.732 215.88 237.794 215.901 237.87C215.956 238.062 215.921 238.269 215.798 238.42C215.447 238.861 214.325 239.108 212.763 239.108C213.575 238.489 214.49 238.007 215.46 237.691H215.44L215.447 237.705Z" fill="#3F80FF"/>
<path d="M212.322 239.418L212.377 239.391C213.141 238.888 214.511 237.147 214.249 236.39C214.173 236.218 214.029 236.005 213.568 236.032C213.237 236.032 212.921 236.184 212.701 236.438C211.957 237.292 212.109 239.171 212.109 239.246C212.109 239.301 212.13 239.356 212.178 239.391C212.219 239.425 212.267 239.432 212.322 239.418ZM213.471 236.377L213.561 236.335C213.864 236.322 213.898 236.432 213.905 236.473C214.063 236.927 213.155 238.269 212.398 238.888C212.329 238.097 212.508 237.306 212.921 236.631C213.065 236.48 213.265 236.383 213.478 236.37H213.465L213.471 236.377Z" fill="#3F80FF"/>
<path d="M208.51 236.232L202.435 237.677C202.159 237.732 201.974 237.987 202.001 238.269L202.201 247.062C202.283 247.681 202.854 248.108 203.467 248.025C203.508 248.025 203.549 248.012 203.591 247.998C206.226 247.344 207.464 246.897 210.815 246.126C212.866 245.652 219.368 245.163 222.031 243.98C224.693 242.796 223.655 240.092 222.444 240.353C218.535 241.193 213.519 239.521 210.671 236.975C210.285 236.782 208.93 236.129 208.517 236.232H208.51Z" fill="#001640"/>
<path opacity="0.2" d="M207.485 223.035L208.373 231.305L201.519 232.31L200.625 224.046L207.485 223.035Z" fill="black"/>
<path d="M211.145 227.9L198.464 230.266C198.464 230.266 192.306 221.473 191.143 215.232C189.932 208.73 191.226 186.602 191.143 186.306C187.559 174.196 177.809 142.821 173.109 131.275C170.502 124.876 168.671 120.569 168.671 120.569L169.986 120.273L180.334 116.035L187.875 117.459C187.875 117.459 210.794 163.807 213.203 181.242C214.999 194.26 211.138 227.9 211.138 227.9H211.145Z" fill="#3F80FF"/>
<path opacity="0.3" d="M211.145 227.9L198.464 230.266C198.464 230.266 192.306 221.473 191.143 215.232C189.932 208.73 191.226 186.602 191.143 186.306C187.559 174.196 177.809 142.821 173.109 131.275C170.502 124.876 168.671 120.569 168.671 120.569L169.986 120.273L180.334 116.035L187.875 117.459C187.875 117.459 210.794 163.807 213.203 181.242C214.999 194.26 211.138 227.9 211.138 227.9H211.145Z" fill="white"/>
<path opacity="0.2" d="M188.157 175.827C184.572 163.717 177.334 145.353 172.628 133.807L169.511 122.805L168.912 120.686L170.006 122.688L182.288 149.901C187.71 160.318 188.24 176.123 188.157 175.834V175.827Z" fill="black"/>
<path d="M132.5 236.294L138.61 238.867L145.126 224.886L139.023 222.312L132.5 236.294Z" fill="#E8BFBF"/>
<path d="M142.587 241.799C143.069 242.101 143.647 242.232 144.211 242.163C144.487 242.088 144.714 241.881 144.803 241.606C144.872 241.448 144.858 241.255 144.755 241.11C144.232 240.34 141.252 240.347 140.922 240.353C140.853 240.353 140.798 240.402 140.771 240.457C140.75 240.519 140.771 240.587 140.826 240.629C141.376 241.069 141.961 241.461 142.58 241.792L142.587 241.799ZM144.239 241.104C144.335 241.145 144.418 241.207 144.473 241.289C144.514 241.344 144.521 241.427 144.494 241.489C144.432 241.668 144.287 241.806 144.101 241.861C143.578 241.998 142.58 241.558 141.369 240.677C142.346 240.656 143.324 240.801 144.253 241.11H144.232L144.239 241.104Z" fill="#3F80FF"/>
<path d="M140.86 240.663L140.915 240.677C141.782 240.719 143.833 240.147 144.06 239.418C144.094 239.246 144.108 238.998 143.736 238.757C143.475 238.571 143.152 238.509 142.842 238.578C141.789 238.819 140.839 240.347 140.798 240.409C140.764 240.45 140.75 240.512 140.77 240.56C140.784 240.608 140.819 240.643 140.867 240.663H140.86ZM143.468 238.964L143.564 238.984C143.805 239.143 143.771 239.253 143.757 239.287C143.626 239.728 142.167 240.251 141.232 240.306C141.624 239.659 142.216 239.15 142.911 238.86C143.11 238.826 143.317 238.86 143.489 238.977H143.475L143.468 238.964Z" fill="#3F80FF"/>
<path d="M139.718 236.046L134.206 233.727C133.966 233.617 133.677 233.707 133.539 233.941L128.723 240.842C128.44 241.365 128.633 242.019 129.156 242.301C129.19 242.321 129.232 242.335 129.266 242.356C131.667 243.34 132.878 243.697 135.906 244.991C137.757 245.789 143.055 249.078 145.78 249.67C148.504 250.262 149.227 247.592 148.147 247.096C144.658 245.535 141.727 241.413 140.963 237.835C140.771 237.47 140.096 236.198 139.718 236.046Z" fill="#001640"/>
<path opacity="0.2" d="M145.394 225.051L141.858 232.172L135.816 229.461L139.339 222.333L145.394 225.051Z" fill="black"/>
<path d="M146.667 232.812L134.502 226.331C134.502 226.331 132.17 217.668 134.502 212.143C138.989 201.512 150.672 185.88 150.748 185.584C153.865 173.343 159.328 139.835 161.199 127.505C162.238 120.672 162.844 119.2 162.844 119.2L164.13 119.619L182.742 119.654C182.742 119.654 186.252 147.844 172.793 191.487C169.442 202.345 163.835 211.372 154.601 223.592C151.099 228.23 146.661 232.812 146.661 232.812H146.667Z" fill="#3F80FF"/>
<path opacity="0.3" d="M146.667 232.812L134.502 226.331C134.502 226.331 132.17 217.668 134.502 212.143C138.989 201.512 150.672 185.88 150.748 185.584C153.865 173.343 159.328 139.835 161.199 127.505C162.238 120.672 162.844 119.2 162.844 119.2L164.13 119.619L182.742 119.654C182.742 119.654 186.252 147.844 172.793 191.487C169.442 202.345 163.835 211.372 154.601 223.592C151.099 228.23 146.661 232.812 146.661 232.812H146.667Z" fill="white"/>
<path d="M199.235 96.6244C199.373 94.5327 200.756 91.8424 201.953 90.597C202.339 90.1979 203.79 89.5924 204.609 89.0557C208.648 86.4067 216.74 83.0971 216.74 83.0971L219.237 85.2714C219.237 85.2714 214.311 90.0328 211.38 92.3172C210.802 92.7644 210.134 93.308 209.432 93.8859C208.16 94.9524 202.16 98.9088 201.011 99.8996L199.235 96.6175V96.6244Z" fill="#E8BFBF"/>
<path d="M223.854 81.8724L219.238 85.2852L216.65 83.3792C216.65 83.3792 217.71 82.0306 218.79 80.9917C219.265 80.5307 219.526 79.9045 219.533 79.244C219.54 78.2257 219.699 77.0491 220.249 76.1821C220.263 76.1615 220.27 76.1408 220.283 76.1271C221.281 74.6202 223.627 75.0743 224.095 76.8151L224.763 79.2784C225.024 80.2486 224.666 81.2807 223.854 81.8793V81.8724Z" fill="#E8BFBF"/>
<path d="M200.708 97.5464L199.49 98.6611C199.111 98.3583 198.506 97.8698 197.749 97.2437C191.818 92.3172 176.949 80.3793 182.88 76.9665C187.958 74.0423 193.359 82.987 196.05 85.6705C196.6 86.2278 198.1 87.9548 199.311 90.1291C200.577 92.4066 201.513 95.1657 200.708 97.5464Z" fill="#001640"/>
<path d="M199.304 89.0626C197.199 90.6039 195.403 92.558 194.047 94.7873C195.024 98.0212 197.481 100.828 200.577 102.177C202.277 98.2413 203.061 94.0029 202.731 89.73C201.657 89.4961 200.378 89.2966 199.304 89.0626Z" fill="#001640"/>
<path d="M166.656 76.2716C164.537 76.9527 162.108 76.4092 160.745 78.1706C159.383 79.932 158.977 82.2646 158.977 84.4939C158.977 87.5902 159.686 90.6451 160.394 93.6589C161.248 97.3193 162.101 100.98 162.961 104.64C163.546 107.145 162.933 118.773 163.553 118.973C163.553 118.973 183.004 118.594 187.882 117.906C187.882 117.906 188.309 105.948 188.694 101.874C188.784 100.973 190.153 97.1336 190.311 96.1703C191.068 91.6291 189.582 88.4227 188.006 84.0948C188.006 84.0948 184.559 77.1592 182.88 76.9734C179.887 76.6362 172.566 74.3725 166.656 76.2784V76.2716Z" fill="#001640"/>
<path d="M165.837 82.01C165.768 81.6041 162.314 74.634 159.004 79.5055C154.401 86.2897 154.092 94.8079 154.092 94.8079C154.092 94.8079 151.264 103.092 153.232 104.902C155.206 106.711 157.332 107.874 158.708 106.849C160.085 105.824 160.979 103.773 160.979 103.773C160.979 103.773 167.041 89.1108 165.837 82.01Z" fill="#001640"/>
<path d="M165.61 73.6845C164.158 74.8198 164.35 77.4413 165.947 78.3564C165.548 79.76 166.015 81.3839 167.11 82.354C168.204 83.3242 169.869 83.5994 171.217 83.0352C170.632 84.0811 171.293 85.4572 172.298 86.104C173.302 86.7508 174.547 86.8677 175.731 87.026C176.914 87.1842 178.167 87.4388 179.034 88.2714C180.258 86.5099 181.483 84.7416 182.715 82.9802C183.189 82.2921 183.685 81.5559 183.726 80.7233C183.761 79.8908 183.128 78.9688 182.295 79.0307C183.141 78.15 183.162 76.595 182.329 75.6936C181.504 74.7922 179.956 74.6753 178.999 75.4459C179.171 74.7372 178.758 73.9872 178.16 73.5744C177.561 73.1615 176.818 73.017 176.096 72.9482L165.61 73.6913V73.6845Z" fill="#001640"/>
<path d="M167.818 64.7053C168.775 68.2144 169.937 74.689 167.612 77.2486C167.612 77.2486 174.183 79.877 178.848 85.1544C181.022 83.0421 180.795 80.6683 180.128 78.9344C179.612 77.5926 178.504 76.5949 177.176 76.0307C174.616 74.9436 174.596 72.4253 175.022 70.0171L167.811 64.7053H167.818Z" fill="#E8BFBF"/>
<path opacity="0.2" d="M169.25 70.6845L171.665 71.3382C172.697 71.6203 173.784 71.6822 174.843 71.524C174.837 72.0469 174.74 73.1478 175.071 73.7326C173.681 74.4001 171.334 73.9459 170.302 72.7212C169.876 72.2464 169.49 71.2763 169.256 70.6776L169.25 70.6845Z" fill="black"/>
<path d="M163.132 61.7191C165.692 67.1135 166.655 69.4529 170.598 71.173C176.529 73.767 182.584 69.4322 181.682 63.3842C180.877 57.9416 176.825 50.0289 170.529 50.0014C166.029 49.9601 162.348 53.5656 162.3 58.0655C162.286 59.3315 162.568 60.5838 163.125 61.726L163.132 61.7191Z" fill="#E8BFBF"/>
<path d="M165.94 51.4121C164.075 50.5451 161.763 51.2538 160.208 52.6162C158.633 54.0061 157.669 55.9464 156.747 57.8386C156.245 58.8638 155.743 59.9097 155.509 61.0243C155.275 62.1459 155.344 63.3706 155.935 64.3476C156.513 65.304 157.594 65.9371 158.708 65.999C159.348 66.0334 160.098 66.5013 160.311 67.1068C160.504 67.671 160.415 68.2834 160.325 68.8682C160.236 69.4393 160.153 70.031 160.332 70.5746C160.628 71.4828 161.598 72.0333 162.555 72.1296C163.504 72.2191 164.447 71.9438 165.369 71.6755C165.947 71.5035 166.532 71.5998 166.986 72.0058C167.096 72.109 167.192 72.2259 167.261 72.3636C167.543 72.9071 168.369 72.8177 168.609 72.2535C169.442 70.2719 168.231 67.1137 166.428 64.6986C165.472 63.4188 165.52 63.7421 165.149 62.1871C164.832 60.8936 165.307 59.545 165.892 58.3478C166.662 56.7514 167.66 55.1895 167.35 53.2836C167.22 52.4786 166.697 51.7561 165.96 51.4121H165.94Z" fill="#001640"/>
<path d="M163.291 67.2373C164.137 68.1387 165.314 68.6685 166.552 68.7098C168.197 68.7442 168.61 67.1754 167.818 65.8406C167.103 64.6365 165.383 63.1709 163.896 63.7489C162.41 64.3337 162.259 66.1089 163.291 67.2373Z" fill="#E8BFBF"/>
<path d="M173.412 60.756C173.605 61.2308 173.977 61.4785 174.272 61.3547C174.568 61.2308 174.644 60.7835 174.479 60.3224C174.314 59.8613 173.915 59.6067 173.619 59.7237C173.323 59.8407 173.233 60.3018 173.412 60.756Z" fill="#001640"/>
<path d="M178.449 58.5886C178.635 59.0634 179.013 59.3112 179.309 59.1942C179.598 59.0772 179.681 58.623 179.515 58.1619C179.35 57.7008 178.951 57.4462 178.655 57.5563C178.359 57.6664 178.27 58.1344 178.449 58.5886Z" fill="#001640"/>
<path d="M178.524 57.6459L179.481 56.8958C179.481 56.8958 179.275 57.9624 178.524 57.6459Z" fill="#001640"/>
<path d="M177.142 59.5998C178.311 60.756 179.192 60.9624 180.459 61.7607C180.424 62.8824 179.364 63.1439 179.364 63.1439L177.142 59.6067V59.5998Z" fill="#ED847E"/>
<path d="M178.828 65.3453C179.048 65.2627 179.255 65.1663 179.461 65.0493C179.53 65.0149 179.55 64.9323 179.516 64.8635C179.475 64.7947 179.392 64.7741 179.323 64.8016C178.257 65.4209 176.956 65.4898 175.827 64.9874C175.759 64.953 175.669 64.9736 175.635 65.0493C175.6 65.1182 175.621 65.2076 175.697 65.242C176.688 65.6962 177.816 65.7375 178.835 65.3521L178.828 65.3453Z" fill="#001640"/>
<path d="M173.227 57.0128C173.22 57.1435 173.13 57.2537 173.007 57.2881C171.685 57.6803 171.1 59.3526 171.1 59.3663C171.045 59.5246 170.88 59.6072 170.722 59.5521C170.564 59.4971 170.481 59.3319 170.536 59.1736C170.584 59.1117 171.224 57.1917 172.835 56.71C172.993 56.6687 173.158 56.7582 173.206 56.9096C173.22 56.944 173.227 56.9715 173.234 57.0059L173.227 57.0128Z" fill="#001640"/>
<path d="M179.316 56.201C179.206 56.2698 179.068 56.2561 178.965 56.1735C177.892 55.3133 176.178 55.7881 176.171 55.7881C176.013 55.8363 175.848 55.7468 175.8 55.5885C175.751 55.4303 175.841 55.2651 175.999 55.2169C176.082 55.2169 178.022 54.6526 179.337 55.6986C179.461 55.8019 179.481 55.9877 179.385 56.1184C179.371 56.146 179.344 56.1735 179.316 56.1941V56.201Z" fill="#001640"/>
<path d="M173.501 59.8064L174.458 59.0632C174.458 59.0632 174.238 60.1298 173.501 59.8064Z" fill="#001640"/>
<path d="M166.353 50.5106C164.853 50.6275 163.422 51.4876 162.61 52.7536C162.066 53.6068 161.873 54.9004 162.678 55.5059C163.057 55.788 163.559 55.843 164.027 55.8843C166.119 56.0701 168.706 54.4532 168.706 54.4532C167.901 51.0335 175.07 48.3845 178.607 53.6825C179.646 55.2375 179.364 56.366 181.091 57.0884C181.903 57.4256 182.976 57.3361 183.499 58.0448C184.366 59.2214 182.701 61.2168 183.761 62.2283C184.483 62.9232 186.121 62.6549 186.217 63.6525C186.265 64.1204 185.955 64.7947 186.41 64.9323C186.657 65.008 186.884 64.781 187.05 64.5745C187.442 64.0791 187.841 63.5631 187.972 62.9507C188.102 62.3383 187.889 61.5952 187.311 61.3338C186.871 61.1342 185.708 61.3544 185.79 61.8361C185.887 62.4072 185.391 59.593 185.611 58.5334C185.804 57.6045 186.685 56.8063 186.416 55.8981C186.128 54.9279 184.978 54.5426 183.981 54.3981C182.983 54.2536 181.848 54.1298 181.235 53.3316C180.554 52.4371 180.864 51.1573 180.644 50.0564C180.362 48.6528 179.192 47.5588 177.878 46.9877C173.887 45.2607 167.722 45.5015 166.346 50.5174L166.353 50.5106Z" fill="#001640"/>
<path d="M177.685 68.868L163.931 75.7762C159.41 78.0468 157.36 83.393 159.211 88.1062L165.844 105.026C167.695 109.739 172.828 112.271 177.692 110.867L192.485 106.601C198.031 105.005 200.997 98.9844 198.891 93.6107L191.219 74.0422C189.114 68.6685 182.846 66.2672 177.692 68.8612L177.685 68.868ZM175.415 97.9317C172.346 99.1358 168.885 97.6221 167.681 94.5533C166.477 91.4846 167.99 88.0236 171.059 86.8264C174.128 85.6223 177.589 87.136 178.793 90.2048C179.997 93.2735 178.483 96.7345 175.415 97.9317Z" fill="#3F80FF"/>
<path d="M177.685 68.868L163.931 75.7762C159.41 78.0468 157.36 83.393 159.211 88.1062L165.844 105.026C167.695 109.739 172.828 112.271 177.692 110.867L192.485 106.601C198.031 105.005 200.997 98.9844 198.891 93.6107L191.219 74.0422C189.114 68.6685 182.846 66.2672 177.692 68.8612L177.685 68.868ZM175.415 97.9317C172.346 99.1358 168.885 97.6221 167.681 94.5533C166.477 91.4846 167.99 88.0236 171.059 86.8264C174.128 85.6223 177.589 87.136 178.793 90.2048C179.997 93.2735 178.483 96.7345 175.415 97.9317Z" fill="#3F80FF"/>
<path opacity="0.1" d="M198.884 93.6245L191.206 74.056C189.1 68.6823 182.832 66.2809 177.678 68.868L173.681 70.8772L170.997 72.2258L163.924 75.783C159.397 78.0536 157.353 83.3999 159.197 88.1131L165.83 105.033C167.681 109.746 172.814 112.278 177.678 110.874L192.479 106.608C193.69 106.257 194.777 105.693 195.719 104.971C196.449 104.413 197.089 103.766 197.618 103.044C199.559 100.436 200.171 96.9065 198.884 93.6245ZM175.401 97.9317C172.339 99.1358 168.871 97.6221 167.674 94.5534C166.47 91.4915 167.984 88.0237 171.052 86.8264C174.114 85.6223 177.582 87.1361 178.779 90.1979C179.976 93.2667 178.47 96.7276 175.401 97.9249V97.9317Z" fill="white"/>
<path d="M177.823 70.1547L164.922 76.6362C160.676 78.7692 158.764 83.7783 160.491 88.1957L166.711 104.062C168.445 108.48 173.261 110.86 177.823 109.539L191.701 105.535C196.903 104.035 199.683 98.3927 197.708 93.3561L190.511 75.0055C188.536 69.9689 182.653 67.7121 177.823 70.1478V70.1547ZM167.674 94.5465C166.47 91.4777 167.984 88.0168 171.052 86.8195C174.121 85.6154 177.582 87.1292 178.786 90.1979C179.99 93.2667 178.477 96.7276 175.408 97.9248C172.339 99.1289 168.878 97.6152 167.674 94.5465Z" fill="#3F80FF"/>
<path opacity="0.1" d="M177.823 70.1547L164.922 76.6362C160.676 78.7692 158.764 83.7783 160.491 88.1957L166.711 104.062C168.445 108.48 173.261 110.86 177.823 109.539L191.701 105.535C196.903 104.035 199.683 98.3927 197.708 93.3561L190.511 75.0055C188.536 69.9689 182.653 67.7121 177.823 70.1478V70.1547ZM167.674 94.5465C166.47 91.4777 167.984 88.0168 171.052 86.8195C174.121 85.6154 177.582 87.1292 178.786 90.1979C179.99 93.2667 178.477 96.7276 175.408 97.9248C172.339 99.1289 168.878 97.6152 167.674 94.5465Z" fill="#3F80FF"/>
<path d="M241.936 64.0378L241.544 64.7603L241.324 65.1594L240.705 66.2947L240.966 69.2052C240.98 69.329 240.966 69.4529 240.925 69.5699C240.842 69.8244 240.65 70.0309 240.395 70.1341L234.959 72.2602C234.705 72.3634 234.423 72.3359 234.189 72.2051C234.113 72.1639 234.044 72.1088 233.982 72.0469L230.907 68.9231H230.9L226.531 70.6226L227.164 72.2395L222.794 73.9528L223.84 76.6156L220.62 77.8748C220.359 77.978 220.063 77.9573 219.822 77.8335C219.739 77.7922 219.671 77.7371 219.602 77.6752L217.744 75.9275L213.375 77.6408L214.421 80.3036L209.825 82.1063L210.87 84.776C211.042 85.2095 210.829 85.7049 210.389 85.8769L197.797 90.8034L192.334 76.8702L237.877 59.0425L238.592 59.4072L240.904 60.5907C242.163 61.2374 242.638 62.7925 241.964 64.031L241.936 64.0378Z" fill="#3F80FF"/>
<g opacity="0.1">
<path d="M241.936 64.0378L241.544 64.7603L241.324 65.1594L240.705 66.2947L240.966 69.2052C240.98 69.329 240.966 69.4529 240.925 69.5699C240.842 69.8244 240.65 70.0309 240.395 70.1341L234.959 72.2602C234.705 72.3634 234.423 72.3359 234.189 72.2051C234.113 72.1639 234.044 72.1088 233.982 72.0469L230.907 68.9231H230.9L226.531 70.6226L227.164 72.2395L222.794 73.9528L223.84 76.6156L220.62 77.8748C220.359 77.978 220.063 77.9573 219.822 77.8335C219.739 77.7922 219.671 77.7371 219.602 77.6752L217.744 75.9275L213.375 77.6408L214.421 80.3036L209.825 82.1063L210.87 84.776C211.042 85.2095 210.829 85.7049 210.389 85.8769L197.797 90.8034L192.334 76.8702L237.877 59.0425L238.592 59.4072L240.904 60.5907C242.163 61.2374 242.638 62.7925 241.964 64.031L241.936 64.0378Z" fill="white"/>
</g>
<path d="M241.757 62.4484L193.07 81.5077L191.653 77.9298L238.076 59.7581L240.388 60.9416C241.269 61.3957 241.771 61.8085 241.764 62.4484H241.757Z" fill="#3F80FF"/>
<path opacity="0.1" d="M241.757 62.4484L193.07 81.5077L191.653 77.9298L238.076 59.7581L240.388 60.9416C241.269 61.3957 241.771 61.8085 241.764 62.4484H241.757Z" fill="black"/>
<path d="M240.794 65.1387L240.326 66.1984C240.326 66.1984 240.313 66.2328 240.32 66.2534L240.581 69.1364C240.588 69.2396 240.581 69.3428 240.554 69.446C240.547 69.4804 240.519 69.5079 240.485 69.5217L234.574 71.8473C234.574 71.8473 234.505 71.8611 234.478 71.8405C234.423 71.8061 234.368 71.7648 234.32 71.7097L230.941 68.3107C230.941 68.3107 230.866 68.2694 230.824 68.2832L226.022 70.1753C225.967 70.196 225.939 70.2648 225.96 70.3198L226.531 71.7648C226.552 71.8198 226.531 71.8886 226.469 71.9093L222.375 73.5193C222.32 73.54 222.292 73.6088 222.313 73.6638L223.297 76.1615C223.318 76.2165 223.297 76.2853 223.235 76.306L220.235 77.4894C220.235 77.4894 220.166 77.5032 220.139 77.4894C220.077 77.455 220.015 77.4069 219.96 77.3587L217.765 75.3358C217.765 75.3358 217.689 75.3014 217.648 75.3152L212.88 77.1936C212.825 77.2142 212.797 77.283 212.818 77.3381L213.829 79.8976C213.85 79.9527 213.829 80.0215 213.767 80.0421L195.458 87.2461C195.403 87.2668 195.334 87.2461 195.314 87.1842L193.483 82.6017C193.463 82.5467 193.483 82.4779 193.545 82.4572L241.255 63.6801C241.345 63.6457 241.441 63.7351 241.4 63.8314L240.801 65.1525L240.794 65.1387Z" fill="#3F80FF"/>
<path opacity="0.1" d="M240.794 65.1387L240.326 66.1984C240.326 66.1984 240.313 66.2328 240.32 66.2534L240.581 69.1364C240.588 69.2396 240.581 69.3428 240.554 69.446C240.547 69.4804 240.519 69.5079 240.485 69.5217L234.574 71.8473C234.574 71.8473 234.505 71.8611 234.478 71.8405C234.423 71.8061 234.368 71.7648 234.32 71.7097L230.941 68.3107C230.941 68.3107 230.866 68.2694 230.824 68.2832L226.022 70.1753C225.967 70.196 225.939 70.2648 225.96 70.3198L226.531 71.7648C226.552 71.8198 226.531 71.8886 226.469 71.9093L222.375 73.5193C222.32 73.54 222.292 73.6088 222.313 73.6638L223.297 76.1615C223.318 76.2165 223.297 76.2853 223.235 76.306L220.235 77.4894C220.235 77.4894 220.166 77.5032 220.139 77.4894C220.077 77.455 220.015 77.4069 219.96 77.3587L217.765 75.3358C217.765 75.3358 217.689 75.3014 217.648 75.3152L212.88 77.1936C212.825 77.2142 212.797 77.283 212.818 77.3381L213.829 79.8976C213.85 79.9527 213.829 80.0215 213.767 80.0421L195.458 87.2461C195.403 87.2668 195.334 87.2461 195.314 87.1842L193.483 82.6017C193.463 82.5467 193.483 82.4779 193.545 82.4572L241.255 63.6801C241.345 63.6457 241.441 63.7351 241.4 63.8314L240.801 65.1525L240.794 65.1387Z" fill="black"/>
<path opacity="0.3" d="M170.688 85.3333C166.841 86.8402 164.942 91.1818 166.449 95.0281C167.956 98.8744 172.298 100.773 176.151 99.2666C179.997 97.7597 181.896 93.418 180.389 89.5718C178.882 85.7255 174.541 83.8265 170.688 85.3333ZM175.408 97.9249C172.339 99.129 168.878 97.6152 167.674 94.5465C166.47 91.4777 167.984 88.0168 171.052 86.8195C174.121 85.6154 177.582 87.1292 178.786 90.1979C179.99 93.2667 178.476 96.7276 175.408 97.9249Z" fill="white"/>
<path opacity="0.1" d="M197.618 103.037C197.082 103.76 196.449 104.413 195.719 104.964L170.997 72.2189L170.977 72.1914C170.977 72.1914 173.158 71.0973 173.646 70.774C173.646 70.8015 173.66 70.8359 173.681 70.8772C174.761 73.1959 194.192 98.4271 197.618 103.044V103.037Z" fill="white"/>
<path opacity="0.1" d="M194.047 105.996C193.889 106.071 186.692 108.26 186.692 108.26L178.662 97.629C180.74 95.5923 181.518 92.441 180.389 89.5649C178.882 85.7186 174.541 83.8196 170.688 85.3264C170.35 85.4572 170.034 85.6086 169.724 85.7874L162.624 76.3817C162.624 76.3817 168.864 73.4092 169.559 72.9758C169.745 74.2968 194.047 105.721 194.047 106.003V105.996Z" fill="white"/>
<path d="M164.578 54.3499C163.773 55.3063 163.442 56.6481 163.717 57.8659C163.986 59.0838 164.853 60.1572 165.988 60.687C166.573 60.9622 167.22 61.0929 167.805 61.375C168.383 61.664 168.926 62.1663 168.988 62.8131C169.057 63.5287 168.534 64.1892 168.582 64.9048C168.63 65.5585 169.139 66.0745 169.655 66.4805C170.172 66.8864 170.749 67.2649 171.032 67.8566C171.314 68.4483 171.135 69.3222 170.502 69.4942C170.371 69.7006 170.316 70.1891 170.488 70.3611C170.66 70.5331 170.956 70.5744 171.162 70.4437C172.132 69.8451 172.8 68.7235 172.807 67.5814C172.814 66.4392 172.098 65.3314 171.059 64.8635C170.873 64.4851 171.018 64.0034 171.176 63.6112C171.493 62.8269 171.809 62.0356 172.119 61.2512C172.243 60.9416 172.132 60.3774 171.919 60.1228C171.706 59.8682 171.389 59.7237 171.08 59.593L169.05 58.726C168.286 58.3957 166.009 55.3545 168.706 54.4669C168.355 53.6825 167.743 53.4417 166.903 53.2834C166.064 53.1252 165.135 53.71 164.584 54.3637L164.578 54.3499Z" fill="#001640"/>
<path d="M168.259 51.0749C168.19 51.8732 168.121 52.6783 168.059 53.4766C168.733 52.3755 169.979 50.2353 169.931 50.3179C169.401 50.6069 168.789 50.7859 168.259 51.0749Z" fill="#001640"/>
<path d="M169.167 52.3894C170.11 51.5223 171.046 50.6483 171.988 49.7812C171.266 49.5129 170.385 49.7124 169.855 50.2767C169.869 50.2148 169.435 51.5498 169.174 52.3894H169.167Z" fill="#001640"/>
<path d="M163.435 117.486C159.768 122.041 160.986 125.53 155.922 133.594C162.307 138.328 169.312 139.112 178.022 138.438C179.054 136.614 179.571 134.715 180.603 132.892C182.075 134.722 183.265 136.264 184.738 138.094C189.3 137.378 194.722 136.098 198.327 133.773C195.141 130.119 193.16 125.557 191.123 121.525C190.167 119.633 190.566 118.842 188.027 116.365C179.942 116.736 171.926 116.936 163.841 117.308C164.055 117.321 163.222 117.48 163.435 117.486Z" fill="#001640"/>
<path d="M164.44 116.723L163.931 118.849C163.855 119.014 164.055 119.172 164.33 119.158L186.609 118.175C186.822 118.175 186.995 118.051 187.001 117.92L187.118 115.808C187.118 115.663 186.933 115.546 186.699 115.56L164.805 116.523C164.653 116.523 164.516 116.592 164.433 116.716L164.44 116.723Z" fill="#3F80FF"/>
<path d="M164.44 116.723L163.931 118.849C163.855 119.014 164.055 119.172 164.33 119.158L186.609 118.175C186.822 118.175 186.995 118.051 187.001 117.92L187.118 115.808C187.118 115.663 186.933 115.546 186.699 115.56L164.805 116.523C164.653 116.523 164.516 116.592 164.433 116.716L164.44 116.723Z" fill="#3F80FF"/>
<path d="M169.353 119.166L168.706 119.193C168.582 119.193 168.479 119.138 168.486 119.063L168.658 116.317C168.658 116.241 168.768 116.172 168.899 116.165L169.545 116.131C169.669 116.131 169.773 116.186 169.766 116.269L169.594 119.008C169.587 119.083 169.477 119.159 169.353 119.166Z" fill="#001640"/>
<path d="M185.44 118.471L184.793 118.498C184.669 118.498 184.566 118.443 184.573 118.368L184.745 115.629C184.745 115.546 184.855 115.477 184.979 115.47L185.625 115.443C185.749 115.443 185.853 115.498 185.846 115.574L185.674 118.313C185.674 118.395 185.57 118.464 185.44 118.471Z" fill="#001640"/>
<path d="M172.229 105.803C172.27 106.003 174.004 108.762 175.36 108.569C175.373 108.569 175.38 108.569 175.394 108.569C175.786 108.514 176.185 108.672 176.426 108.989C176.97 109.698 177.3 110.104 177.665 110.571C178.263 111.328 179.302 111.569 180.169 111.163C180.431 111.046 180.685 110.909 180.94 110.778C181.779 110.331 182.206 109.367 181.979 108.445C181.731 107.434 181.339 106.457 180.823 105.549C180.644 105.239 180.444 104.929 180.135 104.75C179.825 104.572 176.839 103.67 175.683 103.705C174.479 103.746 173.33 105.322 172.229 105.81V105.803Z" fill="#E8BFBF"/>
<path d="M175.717 103.608C175.717 103.608 157.429 98.0693 153.479 101.757C151.16 103.925 152.254 105.975 153.555 107.289C154.518 108.273 156.624 108.032 157.993 107.964L172.401 106.553L175.717 103.608Z" fill="#E8BFBF"/>
<path d="M165.204 101.076C165.108 100.085 164.337 99.2665 163.449 98.8193C162.562 98.3789 161.55 98.2413 160.566 98.1175C158.268 97.8285 155.97 97.5326 153.672 97.2437C152.502 98.7161 151.663 100.746 151.704 102.631C151.738 104.51 152.447 106.374 153.672 107.805C154.773 105.679 156.225 103.491 158.371 102.432C160.518 101.379 162.858 100.65 165.211 101.076H165.204Z" fill="#001640"/>
<path opacity="0.1" d="M160.492 67.6786C160.469 67.6337 160.469 67.6112 160.492 67.6037C160.649 67.5587 160.627 67.5887 160.492 67.6786Z" fill="white"/>
<path d="M205.93 38.0567L211.028 47.5037L231.821 29.8481C232.007 29.6898 231.794 29.4077 231.594 29.5453L212.102 42.4121L209.095 36.5498L205.93 38.0567Z" fill="#3F80FF"/>
<path d="M238.736 38.1048C238.736 46.5267 229.895 53.3523 218.996 53.3523C214.813 53.3523 210.932 52.3546 207.739 50.6275L196.146 55.6642L203.46 47.5175C200.824 44.9373 199.249 41.669 199.249 38.1117C199.249 29.6898 208.09 22.8643 218.989 22.8643C229.888 22.8643 238.73 29.6898 238.73 38.1117L238.736 38.1048Z" stroke="#3F80FF" stroke-width="1.3" stroke-miterlimit="10"/>
</g>
<defs>
<clipPath id="clip0_1_3354">
<rect width="344.03" height="256" fill="white"/>
</clipPath>
</defs>
</svg>
