<svg width="240" height="240" viewBox="0 0 240 240" fill="none" xmlns="http://www.w3.org/2000/svg">
<g clip-path="url(#clip0_24_3265)">
<path d="M139.216 239.303C139.182 239.227 138.348 237.415 138.059 233.653C137.795 230.201 137.965 224.382 140.281 216.266C144.668 200.89 139.27 188.484 139.215 188.36L139.481 188.159C140.52 190.751 141.271 193.522 141.711 196.39C142.798 203.068 142.402 210.011 140.57 216.406C136.19 231.756 139.446 239.022 139.479 239.094L139.216 239.303Z" fill="#C2A4F4"/>
<path d="M137.501 187.458C138.606 187.458 139.502 186.29 139.502 184.851C139.502 183.411 138.606 182.243 137.501 182.243C136.396 182.243 135.5 183.411 135.5 184.851C135.5 186.29 136.396 187.458 137.501 187.458Z" fill="#C2A4F4"/>
<path d="M143.811 197.084C144.916 197.084 145.812 195.916 145.812 194.477C145.812 193.037 144.916 191.869 143.811 191.869C142.706 191.869 141.81 193.037 141.81 194.477C141.81 195.916 142.706 197.084 143.811 197.084Z" fill="#C2A4F4"/>
<path d="M139.502 203.501C140.607 203.501 141.503 202.334 141.503 200.894C141.503 199.454 140.607 198.287 139.502 198.287C138.397 198.287 137.501 199.454 137.501 200.894C137.501 202.334 138.397 203.501 139.502 203.501Z" fill="#C2A4F4"/>
<path d="M144.735 208.916C145.84 208.916 146.736 207.749 146.736 206.309C146.736 204.869 145.84 203.702 144.735 203.702C143.63 203.702 142.734 204.869 142.734 206.309C142.734 207.749 143.63 208.916 144.735 208.916Z" fill="#C2A4F4"/>
<path d="M137.963 217.339C139.068 217.339 139.964 216.172 139.964 214.732C139.964 213.292 139.068 212.125 137.963 212.125C136.858 212.125 135.962 213.292 135.962 214.732C135.962 216.172 136.858 217.339 137.963 217.339Z" fill="#C2A4F4"/>
<path d="M140.425 239.398C140.425 239.398 138.424 232.98 144.427 228.167L140.425 239.398Z" fill="#C2A4F4"/>
<path d="M137.965 239.282C137.965 239.282 137.054 232.458 130.006 232.516L137.965 239.282Z" fill="#C2A4F4"/>
<path d="M34.2686 49.6369C32.6688 49.6369 31.1049 49.0187 29.7746 47.8606C28.4444 46.7024 27.4076 45.0563 26.7954 43.1304C26.1831 41.2044 26.0229 39.0852 26.3351 37.0406C26.6472 34.9961 27.4176 33.118 28.5488 31.644C29.6801 30.1699 31.1214 29.1661 32.6906 28.7594C34.2597 28.3527 35.8861 28.5614 37.3642 29.3592C38.8423 30.1569 40.1056 31.5079 40.9944 33.2412C41.8833 34.9745 42.3577 37.0123 42.3577 39.0969C42.3577 41.8923 41.5054 44.5731 39.9885 46.5498C38.4715 48.5264 36.414 49.6369 34.2686 49.6369ZM34.2686 28.9206C32.7239 28.9206 31.2139 29.5175 29.9296 30.6357C28.6452 31.7539 27.6441 33.3433 27.053 35.2029C26.4619 37.0624 26.3072 39.1086 26.6086 41.0827C26.9099 43.0567 27.6538 44.87 28.746 46.2933C29.8383 47.7165 31.2299 48.6857 32.745 49.0784C34.26 49.4711 35.8303 49.2695 37.2575 48.4993C38.6846 47.729 39.9044 46.4247 40.7626 44.7511C41.6208 43.0776 42.0788 41.11 42.0788 39.0973C42.0788 37.7609 41.8768 36.4375 41.4843 35.2029C41.0918 33.9682 40.5165 32.8463 39.7913 31.9013C39.066 30.9563 38.2051 30.2067 37.2575 29.6953C36.3099 29.1839 35.2943 28.9206 34.2686 28.9206Z" fill="#3F3D56"/>
<path d="M116.267 49.6369C114.667 49.6369 113.103 49.0187 111.773 47.8606C110.443 46.7024 109.406 45.0563 108.794 43.1304C108.181 41.2044 108.021 39.0852 108.333 37.0406C108.645 34.9961 109.416 33.118 110.547 31.644C111.678 30.1699 113.12 29.1661 114.689 28.7594C116.258 28.3527 117.884 28.5614 119.362 29.3592C120.84 30.1569 122.104 31.5079 122.993 33.2412C123.881 34.9745 124.356 37.0123 124.356 39.0969C124.356 41.8923 123.504 44.5731 121.987 46.5498C120.47 48.5264 118.412 49.6369 116.267 49.6369ZM116.267 28.9206C114.722 28.9206 113.212 29.5175 111.928 30.6357C110.643 31.7539 109.642 33.3433 109.051 35.2029C108.46 37.0624 108.305 39.1086 108.607 41.0827C108.908 43.0567 109.652 44.87 110.744 46.2933C111.836 47.7165 113.228 48.6857 114.743 49.0784C116.258 49.4711 117.828 49.2695 119.256 48.4993C120.683 47.729 121.903 46.4247 122.761 44.7511C123.619 43.0776 124.077 41.11 124.077 39.0973C124.077 37.7609 123.875 36.4375 123.482 35.2029C123.09 33.9682 122.515 32.8463 121.789 31.9013C121.064 30.9563 120.203 30.2067 119.256 29.6953C118.308 29.1839 117.292 28.9206 116.267 28.9206Z" fill="#3F3D56"/>
<path d="M145.883 25.1742H4.96993C2.22675 25.1804 0.00372512 28.7588 -3.05176e-05 33.1753V120.712C0.00372512 125.128 2.22675 128.705 4.96993 128.713H145.883C148.626 128.707 150.849 125.129 150.853 120.712V33.1749C150.849 28.7588 148.626 25.182 145.883 25.1738V25.1742ZM150.269 120.712C150.266 124.609 148.305 127.767 145.884 127.772H4.96993C2.54911 127.767 0.588352 124.609 0.584596 120.712V33.1749C0.587413 29.2779 2.54911 26.1199 4.96993 26.1154H145.883C148.304 26.1203 150.265 29.2779 150.268 33.1749L150.269 120.712Z" fill="#3F3D56"/>
<path d="M35.3656 60.3821H10.328V83.2189H35.3656V60.3821Z" fill="#C2A4F4"/>
<path d="M70.4182 60.3821H45.3806V83.2189H70.4182V60.3821Z" fill="#C2A4F4"/>
<path d="M105.471 60.3821H80.4333V83.2189H105.471V60.3821Z" fill="#C2A4F4"/>
<path d="M140.524 60.3821H115.486V83.2189H140.524V60.3821Z" fill="#C2A4F4"/>
<path d="M35.3656 93.8218H10.328V116.659H35.3656V93.8218Z" fill="#C2A4F4"/>
<path d="M70.4182 93.8218H45.3806V116.659H70.4182V93.8218Z" fill="#C2A4F4"/>
<path d="M105.471 93.8218H80.4333V116.659H105.471V93.8218Z" fill="#C2A4F4"/>
<path d="M140.524 93.8218H115.486V116.659H140.524V93.8218Z" fill="#C2A4F4"/>
<path d="M53.721 116.526L47.8105 105.89L49.4205 104.371L53.9448 112.512L71.2573 89.3359L72.6813 91.1425L53.721 116.526Z" fill="#5316B6"/>
<path d="M89.0866 83.0859L83.1761 72.4501L84.7861 70.9314L89.3104 79.0723L106.623 55.8962L108.047 57.7028L89.0866 83.0859Z" fill="#5316B6"/>
<path d="M34.3754 0H33.9475V39.1447H34.3754V0Z" fill="#2F2E41"/>
<path d="M116.686 0H116.259V39.1447H116.686V0Z" fill="#2F2E41"/>
<path d="M239.541 239.999H120.847C120.788 240.004 120.729 239.993 120.674 239.967C120.618 239.942 120.568 239.901 120.525 239.849C120.482 239.796 120.447 239.733 120.424 239.662C120.4 239.592 120.388 239.516 120.388 239.439C120.388 239.363 120.4 239.287 120.424 239.216C120.447 239.146 120.482 239.082 120.525 239.03C120.568 238.978 120.618 238.937 120.674 238.911C120.729 238.886 120.788 238.875 120.847 238.88H239.541C239.6 238.875 239.659 238.886 239.714 238.911C239.77 238.937 239.821 238.978 239.864 239.03C239.907 239.082 239.941 239.146 239.965 239.216C239.988 239.287 240 239.363 240 239.439C240 239.516 239.988 239.592 239.965 239.662C239.941 239.733 239.907 239.796 239.864 239.849C239.821 239.901 239.77 239.942 239.714 239.967C239.659 239.993 239.6 240.004 239.541 239.999Z" fill="#3F3D56"/>
<path d="M18.9813 83.0859L13.0709 72.4501L14.6808 70.9314L19.2051 79.0723L36.5177 55.8962L37.9417 57.7028L18.9813 83.0859Z" fill="#5316B6"/>
<path d="M205.386 152.022C205.552 151.958 205.722 151.91 205.894 151.88L212.748 133.733L210.655 129.646L214.976 124.725L220.408 133.387L209.345 154.367C209.617 155.161 209.698 156.044 209.576 156.899C209.455 157.754 209.136 158.541 208.663 159.154C208.189 159.767 207.584 160.178 206.927 160.332C206.27 160.486 205.593 160.375 204.985 160.015C204.378 159.655 203.869 159.063 203.526 158.317C203.183 157.57 203.023 156.706 203.066 155.838C203.11 154.97 203.355 154.14 203.77 153.459C204.184 152.777 204.748 152.276 205.386 152.022Z" fill="#FFB8B8"/>
<path d="M217.086 127.235C216.993 127.363 216.885 127.473 216.768 127.561L209.756 132.858C209.432 133.102 209.048 133.169 208.687 133.044C208.326 132.919 208.018 132.612 207.831 132.191C207.811 132.147 207.793 132.102 207.776 132.056L204.365 122.667C204.22 122.272 204.189 121.822 204.277 121.399C204.365 120.977 204.567 120.61 204.846 120.365L209.193 116.512C209.464 116.272 209.792 116.162 210.118 116.203C210.445 116.243 210.751 116.431 210.982 116.734L217.058 124.678C217.317 125.016 217.464 125.472 217.47 125.949C217.475 126.427 217.337 126.888 217.085 127.235L217.086 127.235Z" fill="#E949D0"/>
<path d="M226.932 231.212L223.23 232.525L217.582 214.541L223.047 212.604L226.932 231.212Z" fill="#FFB8B8"/>
<path d="M220.298 232.082L227.438 229.55L228.661 235.407L217.025 239.532C216.701 237.978 216.864 236.32 217.477 234.923C218.091 233.525 219.106 232.503 220.298 232.08H220.298L220.298 232.082Z" fill="#2F2E41"/>
<path d="M195.281 234.893H191.444L189.618 215.609H195.281V234.893Z" fill="#FFB8B8"/>
<path d="M188.703 233.465H196.103V239.536H184.044C184.044 238.739 184.165 237.949 184.399 237.213C184.633 236.476 184.976 235.807 185.409 235.243C185.841 234.679 186.355 234.232 186.92 233.927C187.485 233.622 188.091 233.465 188.703 233.465H188.703Z" fill="#2F2E41"/>
<path d="M199.324 110.111C203.569 110.111 207.011 105.626 207.011 100.095C207.011 94.5632 203.569 90.0789 199.324 90.0789C195.078 90.0789 191.637 94.5632 191.637 100.095C191.637 105.626 195.078 110.111 199.324 110.111Z" fill="#FFB8B8"/>
<path d="M195.046 221.144H189.803C189.444 221.144 189.099 220.965 188.837 220.646C188.576 220.326 188.418 219.888 188.394 219.422C186.832 187.058 187.746 163.843 191.271 146.363C191.286 146.287 191.305 146.212 191.328 146.138L191.609 145.224C191.713 144.882 191.893 144.59 192.127 144.384C192.36 144.178 192.635 144.069 192.917 144.07H203.7C203.903 144.07 204.104 144.127 204.288 144.237C204.473 144.348 204.637 144.509 204.769 144.71L206.233 146.937C206.262 146.98 206.289 147.025 206.314 147.071C212.918 159.071 218.837 182.531 225.691 214.064C225.792 214.522 225.752 215.014 225.579 215.434C225.406 215.854 225.114 216.17 224.765 216.314L219.132 218.663C218.808 218.796 218.459 218.773 218.147 218.599C217.836 218.424 217.583 218.11 217.434 217.712L202.811 178.194C202.709 177.918 202.541 177.692 202.333 177.549C202.124 177.407 201.886 177.356 201.654 177.404C201.421 177.452 201.207 177.596 201.042 177.815C200.877 178.034 200.771 178.316 200.739 178.62L196.442 219.557C196.394 219.996 196.227 220.398 195.971 220.69C195.715 220.981 195.386 221.143 195.046 221.144Z" fill="#2F2E41"/>
<path d="M205.643 147.1H205.598L192.5 146.56C192.164 146.548 191.841 146.379 191.593 146.083C191.344 145.787 191.185 145.384 191.145 144.948C189.487 127.437 194.039 122.745 196.074 121.54C196.244 121.44 196.391 121.285 196.501 121.089C196.611 120.893 196.681 120.663 196.703 120.422L196.879 118.587C196.909 118.262 197.005 117.955 197.158 117.695C200.348 112.31 204.704 110.586 207.016 110.037C207.383 109.951 207.761 110.059 208.068 110.336C208.374 110.614 208.583 111.038 208.649 111.517C208.653 111.547 208.657 111.577 208.66 111.607L208.923 114.243C208.95 114.494 209.027 114.732 209.147 114.933C215.8 126.266 208.388 143 206.834 146.24C206.708 146.503 206.532 146.72 206.323 146.87C206.115 147.02 205.881 147.1 205.643 147.1Z" fill="#E949D0"/>
<path d="M201.521 168.988L191.626 171.472L191.25 168.929L198.824 167.027L190.02 136.788L191.879 135.87L201.521 168.988Z" fill="#5316B6"/>
<path d="M214.832 101.222C213.118 98.0762 211.061 95.2712 208.728 92.8951C206.787 90.9209 204.628 89.2338 202.247 88.4272C199.865 87.6206 197.233 87.7576 195.06 89.2628C192.887 90.768 190.639 93.7588 190.625 96.9657C190.621 97.9962 190.822 99.3901 191.601 99.2119L191.826 99.2527L197.462 97.7695L199.862 108.624C200.031 109.386 200.257 110.239 200.812 110.564C201.336 110.87 201.939 110.581 202.471 110.293C202.558 110.246 203.306 108.058 203.306 108.058C203.325 107.989 203.357 107.929 203.4 107.882C203.443 107.836 203.494 107.805 203.549 107.793C203.604 107.781 203.661 107.788 203.713 107.814C203.765 107.84 203.811 107.884 203.845 107.94L204.29 108.664C204.375 108.803 204.492 108.902 204.623 108.946C204.755 108.99 204.894 108.977 205.02 108.909L214.21 103.91C214.634 103.679 215.107 103.38 215.23 102.803C215.346 102.248 215.086 101.69 214.832 101.222Z" fill="#2F2E41"/>
<path d="M204.421 171.99C204.823 171.622 205.159 171.144 205.404 170.589C205.649 170.034 205.798 169.416 205.84 168.778C205.882 168.14 205.816 167.497 205.647 166.896C205.478 166.295 205.21 165.749 204.861 165.297L207.294 127.017L200.05 128.315L199.913 165.507C199.368 166.319 199.072 167.364 199.079 168.443C199.087 169.522 199.398 170.559 199.954 171.359C200.51 172.159 201.271 172.665 202.095 172.781C202.918 172.898 203.745 172.616 204.419 171.991L204.421 171.99Z" fill="#FFB8B8"/>
<path d="M207.767 132.529C207.632 132.529 207.497 132.504 207.367 132.454L199.591 129.474C199.413 129.406 199.248 129.293 199.104 129.141C198.96 128.99 198.84 128.803 198.752 128.592C198.663 128.38 198.607 128.148 198.588 127.908C198.568 127.669 198.585 127.426 198.637 127.195C198.648 127.146 198.661 127.098 198.675 127.051L201.552 117.364C201.672 116.955 201.901 116.615 202.197 116.408C202.493 116.2 202.837 116.138 203.165 116.233L208.302 117.689C208.623 117.779 208.909 118.013 209.112 118.35C209.314 118.687 209.42 119.105 209.411 119.532L209.172 130.743C209.162 131.221 209.01 131.674 208.748 132.007C208.485 132.341 208.134 132.528 207.767 132.529V132.529Z" fill="#E949D0"/>
</g>
<defs>
<clipPath id="clip0_24_3265">
<rect width="240" height="240" fill="white"/>
</clipPath>
</defs>
</svg>
