<svg width="96" height="96" viewBox="0 0 96 96" fill="none" xmlns="http://www.w3.org/2000/svg">
<g id="undraw_online_learning_re_qw08 (2)" clip-path="url(#clip0_24_2554)">
<path id="Vector" d="M95.8613 95.2637H0.138728C0.101935 95.2637 0.0666491 95.2435 0.0406325 95.2075C0.0146159 95.1715 0 95.1226 0 95.0717C0 95.0208 0.0146159 94.9719 0.0406325 94.9359C0.0666491 94.8999 0.101935 94.8796 0.138728 94.8796H95.8613C95.8981 94.8796 95.9333 94.8999 95.9594 94.9359C95.9854 94.9719 96 95.0208 96 95.0717C96 95.1226 95.9854 95.1715 95.9594 95.2075C95.9333 95.2435 95.8981 95.2637 95.8613 95.2637Z" fill="#F7BBED"/>
<path id="Vector_2" d="M86.3868 61.7703H30.0631C29.824 61.7703 29.5946 61.9018 29.4255 62.1359C29.2564 62.37 29.1614 62.6875 29.1614 63.0186C29.1614 63.3496 29.2564 63.6672 29.4255 63.9013C29.5946 64.1354 29.824 64.2669 30.0631 64.2669H31.6585V94.1302C31.6585 94.4613 31.7535 94.7788 31.9226 95.0129C32.0917 95.247 32.3211 95.3786 32.5602 95.3786C32.7994 95.3786 33.0287 95.247 33.1978 95.0129C33.367 94.7788 33.462 94.4613 33.462 94.1302L33.4757 64.2669H82.8492V94.1302C82.8492 94.4613 82.9442 94.7788 83.1133 95.0129C83.2825 95.247 83.5118 95.3786 83.751 95.3786C83.9901 95.3786 84.2195 95.247 84.3886 95.0129C84.5577 94.7788 84.6527 94.4613 84.6527 94.1302V64.9251L84.9151 64.2669H86.3868C86.626 64.2669 86.8553 64.1354 87.0244 63.9013C87.1935 63.6672 87.2885 63.3496 87.2885 63.0186C87.2885 62.6875 87.1935 62.37 87.0244 62.1359C86.8553 61.9018 86.626 61.7703 86.3868 61.7703Z" fill="#F7BBED"/>
<path id="Vector_3" d="M61.2893 62.4237H44.2282C43.8979 62.4232 43.5811 62.2413 43.3475 61.9179C43.1139 61.5945 42.9826 61.1561 42.9822 60.6987V47.6954C42.9826 47.2381 43.1139 46.7996 43.3475 46.4763C43.5811 46.1529 43.8979 45.971 44.2282 45.9705H61.2893C61.6196 45.971 61.9363 46.1529 62.1699 46.4763C62.4035 46.7996 62.5349 47.2381 62.5353 47.6954V60.6987C62.5349 61.1561 62.4035 61.5945 62.1699 61.9179C61.9363 62.2413 61.6196 62.4232 61.2893 62.4237Z" fill="#3F3D56"/>
<path id="Vector_4" d="M61.2892 47.2981H44.2283C44.1522 47.2983 44.0792 47.3403 44.0254 47.4148C43.9716 47.4893 43.9413 47.5903 43.9412 47.6956V60.6992C43.9413 60.8045 43.9716 60.9055 44.0254 60.98C44.0793 61.0545 44.1522 61.0965 44.2283 61.0967H61.2892C61.3653 61.0965 61.4382 61.0545 61.492 60.98C61.5459 60.9055 61.5762 60.8045 61.5763 60.6992V47.6956C61.5762 47.5903 61.5459 47.4893 61.492 47.4148C61.4382 47.3403 61.3653 47.2983 61.2892 47.2981Z" fill="white"/>
<path id="Vector_5" d="M54.214 56.5045C54.214 56.5045 52.1716 55.853 51.0483 57.0474C49.925 58.2419 52.478 60.9565 52.478 60.9565L54.214 56.5045Z" fill="#2F2E41"/>
<path id="Vector_6" d="M52.8589 55.2734C53.9229 55.2734 54.7854 54.0794 54.7854 52.6064C54.7854 51.1335 53.9229 49.9395 52.8589 49.9395C51.7949 49.9395 50.9324 51.1335 50.9324 52.6064C50.9324 54.0794 51.7949 55.2734 52.8589 55.2734Z" fill="#A0616A"/>
<path id="Vector_7" d="M51.369 48.8625C51.4975 48.5607 51.6837 48.3138 51.9072 48.1493C52.1306 47.9847 52.3825 47.9088 52.6351 47.93C52.8994 47.9759 53.1572 48.0758 53.4003 48.2265L54.6597 48.9066C54.9856 49.0826 55.3425 49.2981 55.4839 49.741C55.6152 50.1521 55.5173 50.6269 55.4181 51.0549L54.9469 53.0893C54.8947 52.6289 54.8052 52.178 54.6799 51.7454C54.5526 51.3099 54.3226 50.9468 54.0273 50.7153C53.7001 50.483 53.3146 50.4878 52.9473 50.5122C52.4272 50.5469 51.8617 50.6385 51.4922 51.1463C51.296 51.4348 51.163 51.7943 51.1086 52.1833C51.0551 52.5701 51.0282 52.9631 51.0282 53.357C50.8149 52.8495 50.6353 52.3162 50.4914 51.7639C50.3731 51.3526 50.3057 50.9166 50.292 50.4743C50.2796 50.0282 50.3865 49.5915 50.5923 49.2477C50.6967 49.0797 50.833 48.9555 50.9857 48.8889C51.1384 48.8224 51.3015 48.8162 51.4566 48.8711L51.369 48.8625Z" fill="#2F2E41"/>
<path id="Vector_8" d="M57.459 58.8169C57.4409 58.7269 57.404 58.6462 57.3529 58.585C57.3018 58.5239 57.2388 58.485 57.1718 58.4732C57.1674 58.4689 57.1628 58.465 57.1579 58.4616L54.2819 56.2304C54.1998 56.1667 54.1031 56.1493 54.0119 56.1818C53.9207 56.2142 53.8421 56.2941 53.7924 56.4048L53.0059 58.1678L51.8211 56.5277L51.8023 56.5017C51.7415 56.4175 51.6612 56.3657 51.5755 56.3553C51.4899 56.3449 51.4043 56.3767 51.3339 56.4449L48.9702 58.7363C48.9661 58.7363 48.9619 58.7382 48.9577 58.7382C48.8446 58.7643 48.7413 58.843 48.6649 58.9614C48.5884 59.0798 48.5435 59.2307 48.5374 59.3892L48.4763 61.0965H57.9154L57.459 58.8169Z" fill="#FAF6FD"/>
<path id="Vector_9" d="M62.727 60.8315H60.9059C60.9059 60.7612 60.8857 60.6937 60.8498 60.6439C60.8138 60.5941 60.7651 60.5662 60.7142 60.5662H60.1391C60.0883 60.5662 60.0395 60.5941 60.0036 60.6439C59.9676 60.6937 59.9474 60.7612 59.9474 60.8315H59.3723C59.3723 60.7612 59.3521 60.6937 59.3162 60.6439C59.2802 60.5941 59.2315 60.5662 59.1806 60.5662H58.6055C58.5547 60.5662 58.5059 60.5941 58.47 60.6439C58.434 60.6937 58.4138 60.7612 58.4138 60.8315H57.8387C57.8387 60.7612 57.8186 60.6937 57.7826 60.6439C57.7467 60.5941 57.6979 60.5662 57.647 60.5662H57.072C57.0211 60.5662 56.9724 60.5941 56.9364 60.6439C56.9005 60.6937 56.8803 60.7612 56.8803 60.8315H56.3052C56.3052 60.7612 56.285 60.6937 56.249 60.6439C56.2131 60.5941 56.1643 60.5662 56.1135 60.5662H55.5384C55.4875 60.5662 55.4388 60.5941 55.4028 60.6439C55.3669 60.6937 55.3467 60.7612 55.3467 60.8315H54.7716C54.7716 60.7612 54.7514 60.6937 54.7154 60.6439C54.6795 60.5941 54.6307 60.5662 54.5799 60.5662H54.0048C53.954 60.5662 53.9052 60.5941 53.8693 60.6439C53.8333 60.6937 53.8131 60.7612 53.8131 60.8315H53.238C53.238 60.7612 53.2178 60.6937 53.1819 60.6439C53.1459 60.5941 53.0972 60.5662 53.0463 60.5662H52.4712C52.4204 60.5662 52.3716 60.5941 52.3357 60.6439C52.2997 60.6937 52.2795 60.7612 52.2795 60.8315H51.7044C51.7044 60.7612 51.6842 60.6937 51.6483 60.6439C51.6123 60.5941 51.5636 60.5662 51.5127 60.5662H50.9376C50.8868 60.5662 50.838 60.5941 50.8021 60.6439C50.7661 60.6937 50.7459 60.7612 50.7459 60.8315H50.1709C50.1709 60.7612 50.1507 60.6937 50.1147 60.6439C50.0788 60.5941 50.03 60.5662 49.9792 60.5662H49.4041C49.3532 60.5662 49.3045 60.5941 49.2685 60.6439C49.2326 60.6937 49.2124 60.7612 49.2124 60.8315H48.6373C48.6373 60.7612 48.6171 60.6937 48.5811 60.6439C48.5452 60.5941 48.4964 60.5662 48.4456 60.5662H47.8705C47.8196 60.5662 47.7709 60.5941 47.7349 60.6439C47.699 60.6937 47.6788 60.7612 47.6788 60.8315H47.1037C47.1037 60.7612 47.0835 60.6937 47.0475 60.6439C47.0116 60.5941 46.9628 60.5662 46.912 60.5662H46.3369C46.2861 60.5662 46.2373 60.5941 46.2014 60.6439C46.1654 60.6937 46.1452 60.7612 46.1452 60.8315H45.5701C45.5701 60.7612 45.5499 60.6937 45.514 60.6439C45.478 60.5941 45.4293 60.5662 45.3784 60.5662H44.8033C44.7525 60.5662 44.7037 60.5941 44.6678 60.6439C44.6318 60.6937 44.6116 60.7612 44.6116 60.8315H42.7905C42.6381 60.8319 42.4921 60.9159 42.3844 61.0652C42.2768 61.2144 42.2163 61.4167 42.2163 61.6277C42.2163 61.8386 42.2768 62.0409 42.3844 62.1902C42.4921 62.3394 42.6381 62.4235 42.7905 62.4238H62.727C62.8796 62.4238 63.0258 62.3399 63.1337 62.1906C63.2415 62.0413 63.3021 61.8388 63.3021 61.6277C63.3021 61.4165 63.2415 61.214 63.1337 61.0647C63.0258 60.9154 62.8796 60.8315 62.727 60.8315Z" fill="#3F3D56"/>
<path id="Vector_10" d="M39.8259 56.2081V61.4944H30.2589C30.0026 61.5067 29.7471 61.4475 29.5076 61.3202C29.2682 61.193 29.0497 61.0003 28.8652 60.7536C28.6808 60.507 28.534 60.2114 28.4338 59.8846C28.3336 59.5577 28.282 59.2063 28.282 58.8513C28.282 58.4962 28.3336 58.1448 28.4338 57.818C28.534 57.4911 28.6808 57.1956 28.8652 56.9489C29.0497 56.7023 29.2682 56.5096 29.5076 56.3823C29.7471 56.255 30.0026 56.1958 30.2589 56.2081H39.8259Z" fill="#BBC4F7"/>
<path id="Vector_11" d="M40.0609 61.4537C40.0609 61.5077 40.0454 61.5594 40.0179 61.5975C39.9904 61.6356 39.953 61.657 39.9141 61.6571H30.0885C29.5549 61.6571 29.0431 61.3636 28.6657 60.8412C28.2884 60.3189 28.0764 59.6104 28.0764 58.8716C28.0764 58.1329 28.2884 57.4244 28.6657 56.902C29.0431 56.3796 29.5549 56.0862 30.0885 56.0862H39.9141C39.953 56.0862 39.9904 56.1076 40.0179 56.1457C40.0455 56.1839 40.0609 56.2356 40.0609 56.2895C40.0609 56.3434 40.0455 56.3951 40.0179 56.4333C39.9904 56.4714 39.953 56.4928 39.9141 56.4928H30.0885C29.6331 56.4934 29.1964 56.7443 28.8745 57.1903C28.5525 57.6364 28.3717 58.2411 28.3717 58.8716C28.3717 59.5022 28.5525 60.1069 28.8745 60.5529C29.1964 60.999 29.6331 61.2499 30.0885 61.2504H39.9141C39.953 61.2505 39.9904 61.2719 40.0179 61.31C40.0454 61.3481 40.0609 61.3998 40.0609 61.4537Z" fill="#FAF6FD"/>
<path id="Vector_12" d="M39.826 57.428H29.5452C29.5413 57.428 29.5375 57.427 29.5339 57.425C29.5303 57.423 29.527 57.42 29.5243 57.4162C29.5216 57.4124 29.5194 57.4079 29.5179 57.403C29.5164 57.398 29.5156 57.3927 29.5156 57.3873C29.5156 57.382 29.5164 57.3767 29.5179 57.3717C29.5194 57.3668 29.5216 57.3623 29.5243 57.3585C29.527 57.3547 29.5303 57.3517 29.5339 57.3497C29.5375 57.3477 29.5413 57.3466 29.5452 57.3467H39.826C39.8338 57.3468 39.8412 57.3511 39.8467 57.3587C39.8521 57.3663 39.8552 57.3766 39.8552 57.3873C39.8552 57.3981 39.8521 57.4084 39.8467 57.416C39.8412 57.4236 39.8338 57.4279 39.826 57.428Z" fill="#F7BBED"/>
<path id="Vector_13" d="M39.826 58.4038H29.5452C29.5413 58.4039 29.5375 58.4028 29.5339 58.4008C29.5303 58.3988 29.527 58.3958 29.5243 58.392C29.5216 58.3882 29.5194 58.3837 29.5179 58.3788C29.5164 58.3738 29.5156 58.3685 29.5156 58.3632C29.5156 58.3578 29.5164 58.3525 29.5179 58.3475C29.5194 58.3426 29.5216 58.3381 29.5243 58.3343C29.527 58.3305 29.5303 58.3276 29.5339 58.3255C29.5375 58.3235 29.5413 58.3225 29.5452 58.3225H39.826C39.8338 58.3226 39.8412 58.3269 39.8467 58.3345C39.8521 58.3421 39.8552 58.3524 39.8552 58.3632C39.8552 58.3739 39.8521 58.3842 39.8467 58.3918C39.8412 58.3994 39.8338 58.4038 39.826 58.4038Z" fill="#F7BBED"/>
<path id="Vector_14" d="M39.826 59.3799H29.5452C29.5413 59.3799 29.5375 59.3789 29.5339 59.3769C29.5303 59.3749 29.527 59.3719 29.5243 59.3681C29.5216 59.3643 29.5194 59.3598 29.5179 59.3549C29.5164 59.3499 29.5156 59.3446 29.5156 59.3392C29.5156 59.3339 29.5164 59.3286 29.5179 59.3236C29.5194 59.3187 29.5216 59.3142 29.5243 59.3104C29.527 59.3066 29.5303 59.3036 29.5339 59.3016C29.5375 59.2996 29.5413 59.2985 29.5452 59.2986H39.826C39.8338 59.2987 39.8412 59.303 39.8467 59.3106C39.8521 59.3182 39.8552 59.3285 39.8552 59.3392C39.8552 59.35 39.8521 59.3603 39.8467 59.3679C39.8412 59.3755 39.8338 59.3798 39.826 59.3799Z" fill="#F7BBED"/>
<path id="Vector_15" d="M39.826 60.3557H29.5452C29.5413 60.3558 29.5375 60.3548 29.5339 60.3527C29.5303 60.3507 29.527 60.3477 29.5243 60.3439C29.5216 60.3402 29.5194 60.3357 29.5179 60.3307C29.5164 60.3258 29.5156 60.3204 29.5156 60.3151C29.5156 60.3097 29.5164 60.3044 29.5179 60.2995C29.5194 60.2945 29.5216 60.29 29.5243 60.2862C29.527 60.2825 29.5303 60.2795 29.5339 60.2774C29.5375 60.2754 29.5413 60.2744 29.5452 60.2744H39.826C39.8338 60.2745 39.8412 60.2788 39.8467 60.2864C39.8521 60.294 39.8552 60.3043 39.8552 60.3151C39.8552 60.3258 39.8521 60.3361 39.8467 60.3437C39.8412 60.3514 39.8338 60.3557 39.826 60.3557Z" fill="#F7BBED"/>
<path id="Vector_16" d="M38.0224 50.6388V55.9251H28.4554C28.1991 55.9374 27.9436 55.8782 27.7042 55.7509C27.4647 55.6236 27.2463 55.4309 27.0618 55.1843C26.8773 54.9376 26.7306 54.6421 26.6304 54.3152C26.5302 53.9884 26.4785 53.637 26.4785 53.2819C26.4785 52.9269 26.5302 52.5755 26.6304 52.2486C26.7306 51.9218 26.8773 51.6262 27.0618 51.3796C27.2463 51.1329 27.4647 50.9402 27.7042 50.813C27.9436 50.6857 28.1991 50.6265 28.4554 50.6388H38.0224Z" fill="#BBC4F7"/>
<path id="Vector_17" d="M38.2575 55.8844C38.2575 55.9383 38.242 55.99 38.2144 56.0282C38.1869 56.0663 38.1495 56.0877 38.1106 56.0877H28.2851C28.0208 56.0877 27.7592 56.0157 27.5151 55.8757C27.2709 55.7357 27.0491 55.5305 26.8623 55.2719C26.6754 55.0132 26.5272 54.7062 26.4261 54.3682C26.325 54.0303 26.2729 53.6681 26.2729 53.3023C26.2729 52.9365 26.325 52.5743 26.4261 52.2363C26.5272 51.8984 26.6754 51.5913 26.8623 51.3327C27.0491 51.074 27.2709 50.8689 27.5151 50.7289C27.7592 50.5889 28.0208 50.5168 28.2851 50.5168H38.1106C38.1495 50.5168 38.1869 50.5383 38.2144 50.5764C38.242 50.6145 38.2575 50.6662 38.2575 50.7202C38.2575 50.7741 38.242 50.8258 38.2144 50.8639C38.1869 50.9021 38.1495 50.9235 38.1106 50.9235H28.2851C27.8296 50.924 27.3929 51.1749 27.071 51.621C26.7491 52.067 26.5682 52.6718 26.5682 53.3023C26.5682 53.9328 26.7491 54.5376 27.071 54.9836C27.3929 55.4297 27.8296 55.6805 28.2851 55.6811H38.1106C38.1495 55.6811 38.1869 55.7025 38.2144 55.7407C38.242 55.7788 38.2575 55.8305 38.2575 55.8844Z" fill="#3F3D56"/>
<path id="Vector_18" d="M38.0226 51.8587H27.7417C27.7379 51.8587 27.734 51.8577 27.7304 51.8557C27.7268 51.8536 27.7236 51.8506 27.7208 51.8469C27.7181 51.8431 27.7159 51.8386 27.7144 51.8336C27.7129 51.8287 27.7122 51.8234 27.7122 51.818C27.7122 51.8126 27.7129 51.8073 27.7144 51.8024C27.7159 51.7974 27.7181 51.7929 27.7208 51.7892C27.7236 51.7854 27.7268 51.7824 27.7304 51.7804C27.734 51.7783 27.7379 51.7773 27.7417 51.7773H38.0226C38.0303 51.7774 38.0378 51.7817 38.0432 51.7894C38.0487 51.797 38.0518 51.8073 38.0518 51.818C38.0518 51.8287 38.0487 51.839 38.0432 51.8467C38.0378 51.8543 38.0303 51.8586 38.0226 51.8587Z" fill="#F7BBED"/>
<path id="Vector_19" d="M38.0226 52.8345H27.7417C27.7379 52.8345 27.734 52.8335 27.7304 52.8315C27.7268 52.8295 27.7236 52.8265 27.7208 52.8227C27.7181 52.8189 27.7159 52.8144 27.7144 52.8095C27.7129 52.8045 27.7122 52.7992 27.7122 52.7938C27.7122 52.7885 27.7129 52.7832 27.7144 52.7782C27.7159 52.7733 27.7181 52.7688 27.7208 52.765C27.7236 52.7612 27.7268 52.7582 27.7304 52.7562C27.734 52.7542 27.7379 52.7531 27.7417 52.7532H38.0226C38.0303 52.7532 38.0378 52.7576 38.0432 52.7652C38.0487 52.7728 38.0518 52.7831 38.0518 52.7938C38.0518 52.8046 38.0487 52.8149 38.0432 52.8225C38.0378 52.8301 38.0303 52.8344 38.0226 52.8345Z" fill="#F7BBED"/>
<path id="Vector_20" d="M38.0226 53.8106H27.7417C27.7379 53.8106 27.734 53.8096 27.7304 53.8076C27.7268 53.8055 27.7236 53.8025 27.7208 53.7988C27.7181 53.795 27.7159 53.7905 27.7144 53.7855C27.7129 53.7806 27.7122 53.7753 27.7122 53.7699C27.7122 53.7645 27.7129 53.7592 27.7144 53.7543C27.7159 53.7493 27.7181 53.7448 27.7208 53.7411C27.7236 53.7373 27.7268 53.7343 27.7304 53.7323C27.734 53.7302 27.7379 53.7292 27.7417 53.7292H38.0226C38.0303 53.7293 38.0378 53.7336 38.0432 53.7413C38.0487 53.7489 38.0518 53.7592 38.0518 53.7699C38.0518 53.7806 38.0487 53.7909 38.0432 53.7986C38.0378 53.8062 38.0303 53.8105 38.0226 53.8106Z" fill="#F7BBED"/>
<path id="Vector_21" d="M38.0226 54.7864H27.7417C27.7379 54.7864 27.734 54.7854 27.7304 54.7834C27.7268 54.7814 27.7236 54.7784 27.7208 54.7746C27.7181 54.7708 27.7159 54.7663 27.7144 54.7614C27.7129 54.7564 27.7122 54.7511 27.7122 54.7457C27.7122 54.7404 27.7129 54.7351 27.7144 54.7301C27.7159 54.7252 27.7181 54.7207 27.7208 54.7169C27.7236 54.7131 27.7268 54.7101 27.7304 54.7081C27.734 54.7061 27.7379 54.705 27.7417 54.7051H38.0226C38.0303 54.7052 38.0378 54.7095 38.0432 54.7171C38.0487 54.7247 38.0518 54.735 38.0518 54.7457C38.0518 54.7565 38.0487 54.7668 38.0432 54.7744C38.0378 54.782 38.0303 54.7863 38.0226 54.7864Z" fill="#F7BBED"/>
<path id="Vector_22" d="M49.1518 80.2841V75.6749C49.1518 75.4712 49.0934 75.2758 48.9893 75.1317C48.8852 74.9877 48.7441 74.9067 48.5969 74.9067H35.9726C35.8255 74.9067 35.6843 74.9877 35.5803 75.1317C35.4762 75.2758 35.4177 75.4712 35.4177 75.6749V80.2841H49.1518Z" fill="#F7BBED"/>
<path id="Vector_23" d="M49.1518 82.0125H35.4177V87.9659H49.1518V82.0125Z" fill="#F7BBED"/>
<path id="Vector_24" d="M35.4177 89.6943V94.3035C35.4177 94.5072 35.4762 94.7026 35.5803 94.8467C35.6843 94.9907 35.8255 95.0717 35.9726 95.0717H48.5969C48.7441 95.0717 48.8852 94.9907 48.9893 94.8467C49.0934 94.7026 49.1518 94.5072 49.1518 94.3035V89.6943H35.4177Z" fill="#F7BBED"/>
<path id="Vector_25" d="M42.2155 78.3637C42.4454 78.3637 42.6317 78.1058 42.6317 77.7876C42.6317 77.4694 42.4454 77.2114 42.2155 77.2114C41.9856 77.2114 41.7993 77.4694 41.7993 77.7876C41.7993 78.1058 41.9856 78.3637 42.2155 78.3637Z" fill="white"/>
<path id="Vector_26" d="M42.2155 86.0456C42.4454 86.0456 42.6317 85.7876 42.6317 85.4695C42.6317 85.1513 42.4454 84.8933 42.2155 84.8933C41.9856 84.8933 41.7993 85.1513 41.7993 85.4695C41.7993 85.7876 41.9856 86.0456 42.2155 86.0456Z" fill="white"/>
<path id="Vector_27" d="M42.2377 93.5646C42.4676 93.5646 42.6539 93.3067 42.6539 92.9885C42.6539 92.6703 42.4676 92.4124 42.2377 92.4124C42.0079 92.4124 41.8215 92.6703 41.8215 92.9885C41.8215 93.3067 42.0079 93.5646 42.2377 93.5646Z" fill="white"/>
<path id="Vector_28" d="M47.5947 69.6515V74.9378H38.0277C37.7714 74.9501 37.5159 74.8909 37.2764 74.7636C37.037 74.6363 36.8185 74.4436 36.634 74.197C36.4496 73.9503 36.3028 73.6548 36.2026 73.3279C36.1024 73.0011 36.0508 72.6497 36.0508 72.2946C36.0508 71.9396 36.1024 71.5882 36.2026 71.2613C36.3028 70.9345 36.4496 70.6389 36.634 70.3923C36.8185 70.1456 37.037 69.9529 37.2764 69.8257C37.5159 69.6984 37.7714 69.6392 38.0277 69.6515H47.5947Z" fill="#BBC4F7"/>
<path id="Vector_29" d="M47.8297 74.8969C47.8297 74.9508 47.8142 75.0025 47.7867 75.0406C47.7591 75.0787 47.7218 75.1002 47.6828 75.1002H37.8573C37.5929 75.1005 37.3311 75.0287 37.0868 74.8888C36.8425 74.749 36.6204 74.5438 36.4334 74.2852C36.2464 74.0265 36.098 73.7193 35.9968 73.3812C35.8956 73.0431 35.8435 72.6807 35.8435 72.3147C35.8435 71.9488 35.8956 71.5864 35.9968 71.2483C36.098 70.9102 36.2464 70.603 36.4334 70.3443C36.6204 70.0856 36.8425 69.8805 37.0868 69.7407C37.3311 69.6008 37.5929 69.529 37.8573 69.5293H47.6828C47.7218 69.5293 47.7591 69.5507 47.7867 69.5888C47.8142 69.627 47.8297 69.6787 47.8297 69.7326C47.8297 69.7865 47.8142 69.8382 47.7867 69.8764C47.7591 69.9145 47.7218 69.9359 47.6828 69.9359H37.8573C37.4018 69.9365 36.9651 70.1874 36.6432 70.6334C36.3213 71.0795 36.1405 71.6842 36.1405 72.3147C36.1405 72.9453 36.3213 73.55 36.6432 73.9961C36.9651 74.4421 37.4018 74.693 37.8573 74.6935H47.6828C47.7218 74.6936 47.7591 74.715 47.7867 74.7531C47.8142 74.7912 47.8297 74.8429 47.8297 74.8969Z" fill="#3F3D56"/>
<path id="Vector_30" d="M47.5948 70.8714H37.314C37.3101 70.8714 37.3063 70.8704 37.3027 70.8684C37.2991 70.8663 37.2958 70.8633 37.2931 70.8596C37.2903 70.8558 37.2882 70.8513 37.2867 70.8463C37.2852 70.8414 37.2844 70.8361 37.2844 70.8307C37.2844 70.8253 37.2852 70.82 37.2867 70.8151C37.2882 70.8101 37.2903 70.8056 37.2931 70.8019C37.2958 70.7981 37.2991 70.7951 37.3027 70.7931C37.3063 70.791 37.3101 70.79 37.314 70.79H47.5948C47.6026 70.7901 47.61 70.7944 47.6155 70.8021C47.6209 70.8097 47.624 70.82 47.624 70.8307C47.624 70.8414 47.6209 70.8517 47.6155 70.8594C47.61 70.867 47.6026 70.8713 47.5948 70.8714Z" fill="#F7BBED"/>
<path id="Vector_31" d="M47.5948 71.8472H37.314C37.3101 71.8472 37.3063 71.8462 37.3027 71.8442C37.2991 71.8422 37.2958 71.8392 37.2931 71.8354C37.2903 71.8316 37.2882 71.8271 37.2867 71.8222C37.2852 71.8172 37.2844 71.8119 37.2844 71.8065C37.2844 71.8012 37.2852 71.7959 37.2867 71.7909C37.2882 71.786 37.2903 71.7815 37.2931 71.7777C37.2958 71.7739 37.2991 71.7709 37.3027 71.7689C37.3063 71.7669 37.3101 71.7658 37.314 71.7659H47.5948C47.6026 71.7659 47.61 71.7703 47.6155 71.7779C47.6209 71.7855 47.624 71.7958 47.624 71.8065C47.624 71.8173 47.6209 71.8276 47.6155 71.8352C47.61 71.8428 47.6026 71.8471 47.5948 71.8472Z" fill="#F7BBED"/>
<path id="Vector_32" d="M47.5948 72.8233H37.314C37.3101 72.8233 37.3063 72.8223 37.3027 72.8203C37.2991 72.8182 37.2958 72.8152 37.2931 72.8115C37.2903 72.8077 37.2882 72.8032 37.2867 72.7982C37.2852 72.7933 37.2844 72.788 37.2844 72.7826C37.2844 72.7772 37.2852 72.7719 37.2867 72.767C37.2882 72.762 37.2903 72.7575 37.2931 72.7537C37.2958 72.75 37.2991 72.747 37.3027 72.745C37.3063 72.7429 37.3101 72.7419 37.314 72.7419H47.5948C47.6026 72.742 47.61 72.7463 47.6155 72.7539C47.6209 72.7616 47.624 72.7719 47.624 72.7826C47.624 72.7933 47.6209 72.8036 47.6155 72.8113C47.61 72.8189 47.6026 72.8232 47.5948 72.8233Z" fill="#F7BBED"/>
<path id="Vector_33" d="M47.5948 73.7991H37.314C37.3101 73.7991 37.3063 73.7981 37.3027 73.7961C37.2991 73.7941 37.2958 73.7911 37.2931 73.7873C37.2903 73.7835 37.2882 73.779 37.2867 73.7741C37.2852 73.7691 37.2844 73.7638 37.2844 73.7584C37.2844 73.7531 37.2852 73.7478 37.2867 73.7428C37.2882 73.7379 37.2903 73.7334 37.2931 73.7296C37.2958 73.7258 37.2991 73.7228 37.3027 73.7208C37.3063 73.7188 37.3101 73.7177 37.314 73.7178H47.5948C47.6026 73.7178 47.61 73.7222 47.6155 73.7298C47.6209 73.7374 47.624 73.7477 47.624 73.7584C47.624 73.7692 47.6209 73.7795 47.6155 73.7871C47.61 73.7947 47.6026 73.799 47.5948 73.7991Z" fill="#F7BBED"/>
<path id="Vector_34" d="M34.6975 35.1488V1.44447C34.6978 1.06151 34.8079 0.694355 35.0035 0.423559C35.1991 0.152762 35.4643 0.000435609 35.7409 0H54.9865C55.2632 0.000438145 55.5284 0.152766 55.724 0.423561C55.9196 0.694357 56.0296 1.06151 56.03 1.44447V35.1488C56.0296 35.5317 55.9196 35.8989 55.724 36.1697C55.5284 36.4405 55.2632 36.5928 54.9865 36.5933H35.7409C35.4643 36.5928 35.1991 36.4405 35.0035 36.1697C34.8079 35.8989 34.6978 35.5317 34.6975 35.1488ZM35.7409 0.320994C35.5258 0.321328 35.3195 0.439802 35.1674 0.650422C35.0152 0.861043 34.9296 1.14661 34.9294 1.44447V35.1488C34.9296 35.4466 35.0152 35.7322 35.1674 35.9428C35.3195 36.1535 35.5258 36.2719 35.7409 36.2723H54.9865C55.2017 36.2719 55.408 36.1535 55.5601 35.9428C55.7123 35.7322 55.7978 35.4466 55.7981 35.1488V1.44447C55.7978 1.14661 55.7123 0.861043 55.5601 0.650422C55.408 0.439802 55.2017 0.321328 54.9865 0.320994H35.7409Z" fill="#E6E6E6"/>
<path id="Vector_35" d="M46.4429 15.4785V8.55793C46.443 8.36645 46.498 8.18287 46.5958 8.04747C46.6936 7.91207 46.8263 7.83591 46.9646 7.83569H51.2009C51.3393 7.83591 51.4719 7.91207 51.5697 8.04747C51.6675 8.18287 51.7225 8.36645 51.7227 8.55793V15.4785C51.7225 15.67 51.6675 15.8536 51.5697 15.9889C51.4719 16.1243 51.3393 16.2005 51.2009 16.2007H46.9646C46.8263 16.2005 46.6936 16.1243 46.5958 15.9889C46.498 15.8536 46.443 15.67 46.4429 15.4785Z" fill="#FAF6FD"/>
<path id="Vector_36" d="M38.2112 18.6884V11.7679C38.2113 11.5764 38.2664 11.3928 38.3642 11.2574C38.462 11.122 38.5946 11.0459 38.7329 11.0457H42.9692C43.1076 11.0459 43.2402 11.122 43.338 11.2574C43.4358 11.3928 43.4908 11.5764 43.491 11.7679V18.6884C43.4908 18.8799 43.4358 19.0635 43.338 19.1989C43.2402 19.3343 43.1076 19.4105 42.9692 19.4107H38.7329C38.5946 19.4105 38.462 19.3343 38.3642 19.1989C38.2664 19.0635 38.2113 18.8799 38.2112 18.6884Z" fill="#F7BBED"/>
<path id="Vector_37" d="M44.8198 28.4787V21.5582C44.82 21.3667 44.875 21.1831 44.9728 21.0477C45.0706 20.9123 45.2032 20.8361 45.3415 20.8359H49.5779C49.7162 20.8361 49.8488 20.9123 49.9466 21.0477C50.0444 21.1831 50.0994 21.3667 50.0996 21.5582V28.4787C50.0995 28.6702 50.0444 28.8538 49.9466 28.9892C49.8488 29.1246 49.7162 29.2008 49.5779 29.201H45.3415C45.2032 29.2008 45.0706 29.1246 44.9728 28.9892C44.875 28.8538 44.82 28.6702 44.8198 28.4787Z" fill="#FF6584"/>
<path id="Vector_38" d="M70.1359 60.1192H65.777C65.7357 60.1191 65.6948 60.1323 65.6577 60.1576L64.5576 60.92C64.5214 60.9413 64.4905 60.9769 64.4688 61.0223C64.4471 61.0677 64.4355 61.121 64.4355 61.1754C64.4355 61.2299 64.4471 61.2832 64.4688 61.3286C64.4905 61.374 64.5214 61.4096 64.5576 61.4309L65.6577 62.1933C65.6948 62.2186 65.7357 62.2318 65.777 62.2317H70.1359C70.1959 62.2365 70.255 62.2084 70.3001 62.1534C70.3453 62.0984 70.373 62.0209 70.3773 61.9379V60.413C70.373 60.3299 70.3453 60.2525 70.3001 60.1975C70.255 60.1425 70.1959 60.1144 70.1359 60.1192Z" fill="#3F3D56"/>
<path id="Vector_39" d="M70.3774 60.413V61.9379C70.3732 62.021 70.3454 62.0984 70.3003 62.1534C70.2551 62.2084 70.1961 62.2365 70.136 62.2317H69.2676V60.1192H70.136C70.1961 60.1144 70.2551 60.1425 70.3003 60.1975C70.3454 60.2525 70.3732 60.3299 70.3774 60.413Z" fill="#FAF6FD"/>
<path id="Vector_40" d="M70.1031 48.7115C70.3005 48.5936 70.5137 48.5347 70.7287 48.5388C70.9438 48.5428 71.1557 48.6098 71.3508 48.7351C71.5458 48.8605 71.7195 49.0415 71.8605 49.2663C72.0014 49.4911 72.1065 49.7545 72.1688 50.0395C72.1882 50.1298 72.2031 50.2219 72.2132 50.315L78.3087 54.4994L79.7193 53.2053L81.4745 56.0025L79.3206 58.4242C79.0616 58.7131 78.7422 58.8788 78.4098 58.8965C78.0773 58.9143 77.7497 58.7832 77.4753 58.5227L71.2909 52.6022C71.2449 52.6293 71.1979 52.653 71.1501 52.6733C70.9443 52.7595 70.7276 52.7845 70.5143 52.7467C70.301 52.7089 70.0959 52.6091 69.9124 52.4538C69.7289 52.2986 69.5711 52.0915 69.4495 51.846C69.3278 51.6005 69.245 51.3221 69.2065 51.0292C69.1951 50.9442 69.1875 50.8583 69.1839 50.772C69.1668 50.3397 69.2457 49.9105 69.41 49.5421C69.5743 49.1738 69.8162 48.8839 70.1031 48.7115Z" fill="#FFB8B8"/>
<path id="Vector_41" d="M82.7988 74.4744H76.1384C76.1384 74.7394 69.2742 74.9545 69.2742 74.9545C69.1664 75.0668 69.0682 75.1956 68.9815 75.3386C68.7207 75.7691 68.5782 76.3132 68.5791 76.875V77.2591C68.5793 77.8957 68.762 78.5061 69.0872 78.9563C69.4124 79.4064 69.8533 79.6594 70.3132 79.6596H82.7988C83.2585 79.6591 83.6994 79.406 84.0245 78.9559C84.3496 78.5058 84.5325 77.8956 84.5329 77.2591V76.875C84.5322 76.2386 84.3493 75.6285 84.0242 75.1785C83.6992 74.7285 83.2585 74.4752 82.7988 74.4744Z" fill="#3F3D56"/>
<path id="Vector_42" d="M75.554 95.6963H77.3574V79.5643H75.554V95.6963Z" fill="#C2A4F4"/>
<path id="Vector_43" d="M70.4209 95.6086C70.4209 95.8784 73.1538 95.713 76.5249 95.713C79.8961 95.713 82.629 95.8784 82.629 95.6086C82.629 95.3389 79.8961 93.1997 76.5249 93.1997C73.1538 93.1997 70.4209 95.3389 70.4209 95.6086Z" fill="#3F3D56"/>
<path id="Vector_44" d="M72.0489 93.7178L70.3483 93.7176L69.5391 87.6111L72.0492 87.6113L72.0489 93.7178Z" fill="#FFB8B8"/>
<path id="Vector_45" d="M72.4828 95.9999L66.9988 95.9996V95.9036C66.9988 95.5156 67.054 95.1313 67.1613 94.7728C67.2685 94.4143 67.4258 94.0886 67.624 93.8142C67.8222 93.5398 68.0575 93.3221 68.3165 93.1736C68.5754 93.0251 68.853 92.9487 69.1333 92.9487H69.1335L72.4829 92.9489L72.4828 95.9999Z" fill="#2F2E41"/>
<path id="Vector_46" d="M69.5052 89.9311L66.1146 79.4054C65.8315 78.5183 65.8002 77.5161 66.0269 76.5984C66.2536 75.6807 66.7217 74.915 67.338 74.4536L74.6924 68.9942L78.0484 68.599L81.1441 68.2095L81.1664 68.2618C81.195 68.3286 81.8606 69.9201 81.4107 71.6652C81.0694 72.9889 80.1817 74.0228 78.7722 74.7383C75.4824 76.4082 71.6819 77.8355 70.2007 78.3715C70.1352 78.3947 70.074 78.4368 70.0212 78.495C69.9683 78.5533 69.9249 78.6263 69.8939 78.7094C69.8628 78.7916 69.8444 78.8817 69.8397 78.9743C69.835 79.0668 69.8442 79.1596 69.8667 79.247L73.0167 89.0442C73.0496 89.1684 73.0615 89.3015 73.0514 89.4331C73.0412 89.5647 73.0094 89.6913 72.9584 89.8032C72.9073 89.9151 72.8384 90.0092 72.7569 90.0784C72.6754 90.1475 72.5835 90.1899 72.4883 90.2021L70.1345 90.4393C70.1146 90.442 70.0947 90.4433 70.0749 90.4433C69.9543 90.4432 69.8364 90.3948 69.7353 90.3039C69.6342 90.213 69.5543 90.0835 69.5052 89.9311Z" fill="#2F2E41"/>
<path id="Vector_47" d="M72.8815 93.7178L71.1808 93.7176L70.3716 87.6111L72.8817 87.6113L72.8815 93.7178Z" fill="#FFB8B8"/>
<path id="Vector_48" d="M73.3151 95.9999L67.8311 95.9996V95.9036C67.8311 95.5156 67.8863 95.1313 67.9935 94.7728C68.1008 94.4143 68.258 94.0886 68.4562 93.8142C68.6545 93.5398 68.8898 93.3221 69.1487 93.1736C69.4077 93.0251 69.6853 92.9487 69.9656 92.9487H69.9657L73.3152 92.9489L73.3151 95.9999Z" fill="#2F2E41"/>
<path id="Vector_49" d="M70.4764 90.507L67.0858 79.9813C66.8027 79.0942 66.7714 78.092 66.9981 77.1743C67.2248 76.2567 67.6929 75.4909 68.3091 75.0296L75.6636 69.5701L79.0196 69.1749L82.1153 68.7854L82.1376 68.8377C82.1662 68.9045 82.8318 70.496 82.3818 72.2411C82.0406 73.5648 81.1529 74.5988 79.7434 75.3143C76.4535 76.9842 72.6531 78.4114 71.1719 78.9474C71.1064 78.9706 71.0452 79.0127 70.9924 79.0709C70.9395 79.1292 70.8961 79.2023 70.8651 79.2854C70.834 79.3675 70.8156 79.4577 70.8109 79.5502C70.8062 79.6427 70.8154 79.7355 70.8379 79.8229L73.9879 89.6201C74.0208 89.7444 74.0327 89.8774 74.0226 90.009C74.0124 90.1406 73.9806 90.2672 73.9296 90.3791C73.8785 90.491 73.8096 90.5851 73.7281 90.6543C73.6466 90.7235 73.5547 90.7658 73.4595 90.778L71.1057 91.0153C71.0857 91.0179 71.0659 91.0192 71.0461 91.0192C70.9255 91.0192 70.8076 90.9707 70.7065 90.8799C70.6054 90.789 70.5255 90.6595 70.4764 90.507Z" fill="#A4DCF4"/>
<path id="Vector_50" d="M68.7863 58.3526C67.3615 55.729 66.2351 52.8189 65.4464 49.7236C65.4007 49.5384 65.4039 49.3368 65.4555 49.1547C65.5072 48.9725 65.6038 48.8216 65.7282 48.7289L70.6039 45.1123C70.6827 45.0534 70.7703 45.0201 70.8599 45.0151C70.9494 45.01 71.0386 45.0334 71.1207 45.0833C71.2043 45.1336 71.2785 45.2096 71.3377 45.3056C71.3969 45.4015 71.4394 45.515 71.4622 45.6371C72.0296 48.6199 73.0964 51.3759 74.576 53.6821C74.6369 53.776 74.6816 53.8879 74.7065 54.0092C74.7315 54.1306 74.7361 54.2582 74.72 54.3825C74.7046 54.5047 74.6692 54.6204 74.6166 54.7209C74.5639 54.8213 74.4955 54.9038 74.4163 54.9621L69.5407 58.5786C69.4159 58.6707 69.2717 58.6985 69.1335 58.6571C68.9954 58.6157 68.8724 58.5078 68.7863 58.3526Z" fill="#F7BBED"/>
<path id="Vector_51" d="M69.119 58.0063C69.1453 58.0516 69.1821 58.0828 69.2232 58.0946C69.2642 58.1063 69.307 58.0979 69.344 58.0706L74.2197 54.454C74.2434 54.4369 74.2639 54.4125 74.2796 54.3826C74.2953 54.3527 74.3058 54.3182 74.3103 54.2817C74.3153 54.2433 74.3139 54.2037 74.3061 54.1661C74.2983 54.1285 74.2843 54.094 74.2652 54.0651C72.7419 51.691 71.6438 48.8538 71.0596 45.7831C71.0528 45.7451 71.0398 45.7099 71.0216 45.6801C71.0033 45.6502 70.9803 45.6267 70.9544 45.6112C70.93 45.5961 70.9034 45.589 70.8767 45.5905C70.8499 45.5921 70.8238 45.6022 70.8004 45.62L65.9248 49.2366C65.8879 49.2642 65.8591 49.3088 65.8434 49.3627C65.8277 49.4166 65.8261 49.4764 65.8389 49.5318C66.6135 52.5717 67.7197 55.4297 69.119 58.0063Z" fill="white"/>
<path id="Vector_52" d="M84.9839 57.3877L81.1654 59.3964L80.2332 55.8115C80.1094 55.3355 80.1111 54.8142 80.2381 54.3398C80.3651 53.8654 80.6091 53.4684 80.9271 53.219C81.2488 52.9667 81.625 52.8819 81.9878 52.9799C82.3507 53.078 82.6762 53.3524 82.9057 53.7537L84.9839 57.3877Z" fill="#FAF6FD"/>
<path id="Vector_53" d="M75.2716 71.5916C75.1912 71.5129 75.1239 71.4114 75.0741 71.2939C75.0242 71.1764 74.993 71.0455 74.9826 70.91C74.4935 64.5898 74.8341 59.6437 76.0238 55.7892C76.2334 55.1244 76.5491 54.5339 76.9471 54.0623C77.3452 53.5906 77.8153 53.25 78.3221 53.066L81.4088 52.8503L81.4248 52.861C82.1213 53.3333 82.6893 54.1037 83.0446 55.0581C83.4 56.0125 83.5237 57.1 83.3974 58.1593C82.4046 61.7819 81.5733 65.5537 82.2073 68.5964C82.2339 68.7236 82.2416 68.8569 82.2301 68.9883C82.2185 69.1198 82.188 69.2467 82.1402 69.3614C82.0938 69.4722 82.0315 69.5687 81.9572 69.645C81.8829 69.7213 81.798 69.7757 81.7079 69.8048L75.8288 71.7408C75.7336 71.7722 75.6347 71.7751 75.5386 71.7494C75.4425 71.7236 75.3515 71.6698 75.2716 71.5916Z" fill="#FAF6FD"/>
<path id="Vector_54" d="M80.3787 51.2543C82.2606 51.2543 83.7861 49.1425 83.7861 46.5374C83.7861 43.9324 82.2606 41.8206 80.3787 41.8206C78.4969 41.8206 76.9714 43.9324 76.9714 46.5374C76.9714 49.1425 78.4969 51.2543 80.3787 51.2543Z" fill="#FFB8B8"/>
<path id="Vector_55" d="M70.9239 50.2733L68.2684 51.8961C68.1674 51.9576 68.0529 51.9612 67.9501 51.906C67.8472 51.8508 67.7643 51.7413 67.7196 51.6016L67.654 51.3957C67.6095 51.2559 67.6069 51.0974 67.6468 50.9549C67.6867 50.8125 67.7657 50.6978 67.8666 50.6359L70.5221 49.0132C70.6231 48.9517 70.7376 48.9481 70.8405 49.0033C70.9434 49.0585 71.0262 49.168 71.0709 49.3076L71.1366 49.5136C71.181 49.6534 71.1836 49.8119 71.1437 49.9544C71.1039 50.0968 71.0248 50.2115 70.9239 50.2733Z" fill="#F7BBED"/>
<path id="Vector_56" d="M71.8951 52.7699L69.2396 54.3926C69.1386 54.4542 69.0241 54.4577 68.9213 54.4025C68.8184 54.3473 68.7355 54.2379 68.6908 54.0982L68.6251 53.8923C68.5807 53.7524 68.5781 53.5939 68.618 53.4515C68.6579 53.3091 68.7369 53.1944 68.8378 53.1325L71.4933 51.5098C71.5943 51.4483 71.7088 51.4447 71.8117 51.4999C71.9146 51.5551 71.9974 51.6645 72.0421 51.8042L72.1078 52.0102C72.1522 52.15 72.1548 52.3085 72.1149 52.4509C72.0751 52.5934 71.996 52.7081 71.8951 52.7699Z" fill="#F7BBED"/>
<path id="Vector_57" d="M73.9428 62.5217L68.0227 56.0563C67.9755 56.0792 67.9276 56.0988 67.8789 56.115C67.67 56.1826 67.4531 56.1887 67.2423 56.1327C67.0316 56.0768 66.8317 55.96 66.6557 55.7902C66.4785 55.6201 66.3295 55.3997 66.2188 55.1436C66.1082 54.8874 66.0383 54.6015 66.0138 54.305C65.9741 53.8309 66.0513 53.3522 66.2329 52.9465C66.4144 52.5407 66.6896 52.2318 67.0139 52.0699C67.2163 51.9694 67.4318 51.9292 67.6462 51.952C67.8606 51.9748 68.0691 52.06 68.258 52.2021C68.447 52.3442 68.6121 52.54 68.7426 52.7766C68.8731 53.0132 68.966 53.2853 69.0153 53.575C69.0305 53.6669 69.0411 53.7601 69.047 53.8539L74.9404 58.5605L76.407 57.3916L78.0317 60.3361L75.7546 62.5829C75.488 62.8437 75.1677 62.9787 74.8414 62.9677C74.515 62.9567 74.1999 62.8003 73.9428 62.5217Z" fill="#FFB8B8"/>
<path id="Vector_58" d="M78.7541 61.253L75.3762 58.0732L76.9637 54.9607C77.1745 54.5474 77.484 54.2506 77.8376 54.1227C78.1912 53.9948 78.5661 54.044 78.896 54.2617C79.2297 54.4819 79.4956 54.86 79.6455 55.3278C79.7955 55.7956 79.8197 56.3222 79.7137 56.8126L78.7541 61.253Z" fill="#FAF6FD"/>
<path id="Vector_59" d="M79.1295 45.8349C78.2537 46.6647 77.1038 47.5176 76.2094 46.634C75.6221 46.0538 75.437 44.9794 75.6752 44.0366C76.1035 42.3411 77.2802 41.5946 78.4055 41.0225C79.8683 40.2787 81.461 39.6869 82.9712 40.2196C84.4813 40.7523 85.8159 42.7763 85.5433 44.9004C85.324 46.6085 84.1601 48.0298 84.3254 49.7495C84.4917 51.4802 85.8977 52.3913 87.139 52.7006C88.3803 53.0099 89.7693 53.1093 90.6614 54.3436C91.7994 55.9181 91.5152 58.7325 90.4444 60.3949C89.3736 62.0573 87.7577 62.8109 86.1919 63.3232C84.1172 64.0019 81.8734 64.3586 79.903 63.2322C77.9327 62.1058 76.3993 59.0735 76.9701 56.2302C77.2112 55.0292 77.7792 54.0141 78.3281 53.026C78.877 52.0378 79.4328 51.0045 79.6422 49.7921C79.8166 48.7818 79.6875 47.6088 79.2035 46.8509C79.1155 46.7183 79.0601 46.5504 79.0453 46.3715C79.0305 46.1925 79.057 46.0117 79.1211 45.8549L79.1295 45.8349Z" fill="#2F2E41"/>
<path id="Vector_60" d="M15.1315 68.7528C14.2535 69.18 13.3108 69.287 12.3943 69.0635C11.4777 68.84 10.6182 68.2935 9.89852 67.4767C8.06564 65.347 7.49098 61.8384 7.0234 58.5897C6.56239 55.3866 6.10139 52.1835 5.64038 48.9805L8.53587 51.7405C10.6181 53.7253 12.7473 55.7737 14.1891 58.6486C15.6308 61.5235 16.2601 65.4481 15.1017 68.5589" fill="#E6E6E6"/>
<path id="Vector_61" d="M14.8839 80.3866C15.177 77.4314 15.4783 74.4384 15.2728 71.4516C15.0902 68.799 14.5056 66.2081 13.3155 64.0838C12.6837 62.9584 11.915 61.9941 11.0439 61.2343C10.8168 61.0358 10.6077 61.5342 10.8339 61.7318C12.3411 63.0505 13.5069 64.9978 14.1632 67.2928C14.888 69.845 15.0044 72.6271 14.8795 75.3383C14.804 76.9779 14.6439 78.6067 14.4826 80.2334C14.4699 80.307 14.4778 80.3845 14.5048 80.4502C14.5318 80.516 14.5758 80.5652 14.6279 80.5878C14.6811 80.6076 14.7379 80.5976 14.7858 80.5599C14.8337 80.5223 14.869 80.46 14.8839 80.3866H14.8839Z" fill="#BBC4F7"/>
<path id="Vector_62" d="M12.0611 75.1574C11.6846 75.9497 11.167 76.5944 10.5582 77.0294C9.94939 77.4643 9.26995 77.6749 8.58531 77.6409C6.8258 77.5252 5.35893 75.8252 4.03847 74.2113L0.132812 69.4375L2.71771 69.2663C4.57662 69.1431 6.48348 69.0282 8.25402 69.8218C10.0246 70.6154 11.6575 72.5252 11.9812 75.0623" fill="#E6E6E6"/>
<path id="Vector_63" d="M15.7121 82.0854C14.3015 78.6302 12.6654 74.7902 9.74196 73.5629C8.92909 73.2228 8.07675 73.1009 7.23083 73.2039C6.96422 73.2358 7.0308 73.8047 7.29692 73.7729C8.71487 73.6099 10.1301 74.1283 11.3043 75.2406C12.4342 76.3053 13.314 77.7855 14.0586 79.3553C14.5147 80.3168 14.9233 81.3191 15.3319 82.32C15.4625 82.6399 15.8442 82.409 15.7121 82.0854Z" fill="#BBC4F7"/>
<path id="Vector_64" d="M17.9722 85.7222C17.9247 84.9599 17.727 84.2302 17.4006 83.6126C17.0742 82.9951 16.6317 82.5134 16.1212 82.2199V80.2224H13.7011V82.2828C13.2158 82.5907 12.7981 83.0712 12.4906 83.6754C12.1831 84.2796 11.9969 84.9859 11.9509 85.7222L11.3818 94.8797H18.5413L17.9722 85.7222Z" fill="#BBC4F7"/>
</g>
<defs>
<clipPath id="clip0_24_2554">
<rect width="96" height="96" fill="white"/>
</clipPath>
</defs>
</svg>
