<svg width="249" height="256" viewBox="0 0 249 256" fill="none" xmlns="http://www.w3.org/2000/svg">
<g clip-path="url(#clip0_1_2705)">
<path d="M204.827 207.154H224.879V200.773H204.827V207.154Z" fill="#EBEBEB"/>
<path d="M82.9611 104.296H103.013V97.9141H82.9611V104.296Z" fill="#EBEBEB"/>
<path d="M216.011 215.201C219.341 215.144 227.879 215.001 231.095 214.967L236.062 214.944L235.8 215.207L235.777 208.825L236.062 209.11C232.732 209.099 224.24 209.07 221.024 209.025L216.011 208.962L216.148 208.825L216.011 215.207V215.201ZM216.011 215.201L215.874 208.819V208.688H216.011C218.514 208.654 223.533 208.597 226.037 208.58L236.062 208.54H236.348V208.825L236.325 215.207V215.469H236.062L231.004 215.446C227.81 215.412 219.307 215.269 216.011 215.212V215.201Z" fill="#EBEBEB"/>
<path d="M120.663 167.633C123.994 167.576 132.531 167.433 135.748 167.399L140.715 167.376L140.452 167.638L140.43 161.257L140.715 161.542C137.384 161.53 128.893 161.502 125.676 161.456L120.663 161.394L120.8 161.257L120.663 167.638V167.633ZM120.663 167.633L120.526 161.251V161.12H120.663C123.167 161.086 128.185 161.029 130.689 161.011L140.715 160.972H141V161.257L140.977 167.638V167.901H140.715L135.656 167.878C132.463 167.844 123.96 167.701 120.663 167.644V167.633Z" fill="#EBEBEB"/>
<path d="M131.847 175.679C135.177 175.622 143.715 175.48 146.931 175.446L151.898 175.423L151.636 175.685L151.613 169.304L151.898 169.589C148.568 169.577 140.076 169.549 136.86 169.503L131.847 169.44L131.984 169.304L131.847 175.685V175.679ZM131.847 175.679L131.71 169.298V169.167H131.847C134.35 169.133 139.369 169.075 141.873 169.058L151.898 169.018H152.184V169.304L152.161 175.685V175.948H151.898L146.84 175.925C143.646 175.891 135.143 175.748 131.847 175.691V175.679Z" fill="#EBEBEB"/>
<path d="M142.985 167.627H163.036V161.245H142.985V167.627Z" fill="#EBEBEB"/>
<path d="M0.136883 215.201H20.1885V208.819H0.136883V215.201Z" fill="#EBEBEB"/>
<path d="M11.3258 10.2824L31.3774 10.2824V3.90082L11.3258 3.90082V10.2824Z" fill="#EBEBEB"/>
<path d="M0.136871 18.3293L10.2311 18.1639L15.2212 18.0955L20.1885 18.0727L19.9261 18.335L19.9033 11.9534L20.1885 12.2385L10.1627 12.1986L5.14977 12.153L0.136871 12.0903L0.273742 11.9534L0.136871 18.335V18.3293ZM0.136871 18.3293L0 11.9477V11.8165H0.136871L5.14977 11.7538L10.1627 11.7082L20.1885 11.6682H20.4736V11.9534L20.4508 18.335V18.5973H20.1885L15.1299 18.5745L10.0942 18.5061L0.136871 18.3407V18.3293Z" fill="#EBEBEB"/>
<path d="M204.821 10.2824L214.916 10.117L219.906 10.0486L224.873 10.0258L224.611 10.2881L224.588 3.90652L224.873 4.19167L214.847 4.15175L209.834 4.10613L204.821 4.04339L204.958 3.90652L204.821 10.2881V10.2824ZM204.821 10.2824L204.685 3.90082V3.76965H204.821L209.834 3.70692L214.847 3.6613L224.873 3.62138H225.158V3.90652L225.135 10.2881V10.5505H224.873L219.815 10.5277L214.779 10.4592L204.821 10.2938V10.2824Z" fill="#EBEBEB"/>
<path d="M164.884 230.023H231.471L233.616 187.77H162.739L164.884 230.023Z" fill="#EBEBEB"/>
<path d="M167.416 192.703H227.257L226.35 206.852H168.191L167.416 192.703Z" stroke="#DBDBDB" stroke-miterlimit="10"/>
<path d="M169.246 211.004L169.879 223.727H225.557L226.35 211.004H169.246Z" stroke="#DBDBDB" stroke-miterlimit="10"/>
<path d="M203.789 201.109H191.813L191.419 198.086H204.177L203.789 201.109Z" stroke="#DBDBDB" stroke-miterlimit="10"/>
<path d="M203.789 218.874H191.813L191.419 215.857H204.177L203.789 218.874Z" stroke="#DBDBDB" stroke-miterlimit="10"/>
<path d="M174.117 230.023L173.472 234.625L172.172 243.875H169.628V230.023H174.117Z" fill="#EBEBEB"/>
<path d="M174.117 230.023L173.472 234.625H169.628V230.023H174.117Z" fill="#DBDBDB"/>
<path d="M222.238 230.023L222.888 234.625L224.189 243.875H226.732V230.023H222.238Z" fill="#EBEBEB"/>
<path d="M222.238 230.023L222.888 234.625H226.732V230.023H222.238Z" fill="#DBDBDB"/>
<path d="M237.134 0.285149H141.861V82.2024H237.134V0.285149Z" stroke="#EBEBEB" stroke-miterlimit="10"/>
<path d="M146.361 3.15374C146.361 3.79817 145.836 4.31714 145.197 4.31714C144.558 4.31714 144.034 3.79247 144.034 3.15374C144.034 2.51501 144.558 1.99033 145.197 1.99033C145.836 1.99033 146.361 2.51501 146.361 3.15374Z" fill="#A6A6A6"/>
<path d="M151.117 3.15374C151.117 3.79817 150.592 4.31714 149.953 4.31714C149.315 4.31714 148.79 3.79247 148.79 3.15374C148.79 2.51501 149.315 1.99033 149.953 1.99033C150.592 1.99033 151.117 2.51501 151.117 3.15374Z" fill="#EBEBEB"/>
<path d="M155.879 3.15374C155.879 3.79817 155.354 4.31714 154.715 4.31714C154.076 4.31714 153.552 3.79247 153.552 3.15374C153.552 2.51501 154.076 1.99033 154.715 1.99033C155.354 1.99033 155.879 2.51501 155.879 3.15374Z" fill="#3F80FF"/>
<path d="M141.861 5.99951H237.134" stroke="#EBEBEB" stroke-miterlimit="10"/>
<path d="M204.69 180.578C205.158 183.772 204.981 187.068 204.206 190.194C203.841 191.659 203.339 193.068 202.734 194.442C201.97 196.199 201.172 197.921 201.36 199.843C201.548 199.968 200.909 199.946 200.886 199.757C195.742 196.832 189.144 196.29 185.186 191.505C183.31 189.235 182.363 186.361 181.918 183.487C181.434 180.356 181.297 176.889 182.107 173.809C182.785 171.197 184.314 168.682 186.766 167.405C189.298 166.087 192.611 166.196 195.275 167.028C201.023 168.813 203.88 175.018 204.696 180.578H204.69Z" fill="#3F80FF"/>
<path d="M207.331 218.657C206.629 216.319 205.928 213.975 205.209 211.642C203.795 207.069 202.329 202.518 200.704 198.012C199.729 195.315 198.702 192.646 197.624 190C197.807 188.34 197.881 186.681 198.24 185.027C198.668 183.031 199.295 181.109 199.877 179.153C199.911 179.033 199.717 178.97 199.672 179.084C198.514 181.77 197.008 185.215 196.974 188.397C195.72 185.403 194.374 182.455 192.931 179.546C192.851 177.071 192.76 174.67 193.159 172.178C193.176 172.064 193.005 172.03 192.988 172.144C192.6 174.237 192.332 176.484 192.486 178.651C191.38 176.467 190.216 174.311 188.979 172.189C188.865 171.995 188.602 172.189 188.699 172.383C190.633 176.107 192.423 179.905 194.106 183.755C191.773 181.69 188.956 180.122 186.042 179.084C185.916 179.039 185.819 179.221 185.945 179.278C189.258 180.664 192.041 182.62 194.67 185.055C195.879 187.872 197.031 190.718 198.126 193.581C194.91 190.427 190.501 188.352 186.241 187.239C186.099 187.2 186.059 187.422 186.196 187.468C191.129 188.95 194.955 191.745 198.708 195.104C199.141 196.262 199.569 197.425 199.991 198.583C201.582 202.991 203.088 207.428 204.531 211.888C205.221 214.026 205.905 216.165 206.572 218.309C207.291 220.619 207.856 223.054 208.791 225.278C208.882 225.489 209.264 225.444 209.213 225.187C208.791 222.98 207.987 220.807 207.342 218.651L207.331 218.657Z" fill="#001640"/>
<path d="M198.799 176.079C197.875 177.493 197.265 179.044 196.946 180.698C196.94 180.738 197.003 180.767 197.02 180.721C197.596 179.164 198.269 177.664 199.027 176.187C199.107 176.039 198.885 175.942 198.799 176.073V176.079Z" fill="#001640"/>
<path d="M189.623 186.795C188.294 186.036 186.527 185.437 185.01 185.238C184.97 185.238 184.941 185.295 184.987 185.312C185.728 185.62 186.509 185.837 187.262 186.122C188.015 186.413 188.751 186.766 189.515 187.028C189.675 187.085 189.783 186.874 189.629 186.789L189.623 186.795Z" fill="#001640"/>
<path d="M187.034 173.9C186.567 173.592 186.07 173.193 185.551 172.982C185.472 172.948 185.397 173.05 185.466 173.113C185.877 173.495 186.453 173.775 186.932 174.06C187.029 174.117 187.131 173.957 187.04 173.895L187.034 173.9Z" fill="#001640"/>
<path d="M222.033 198.052C218.326 199.153 214.602 200.168 210.901 201.257C210.581 201.354 204.314 189.355 206.578 183.168C208.671 177.447 213.461 173.165 219.17 171.22C221.816 170.319 225.067 169.566 227.861 170.182C230.348 170.729 232.099 172.765 232.908 175.104C234.009 178.28 233.644 182.067 233.045 185.312C232.492 188.317 231.391 191.283 229.401 193.644C227.434 195.982 224.924 197.197 222.033 198.058V198.052Z" fill="#3F80FF"/>
<path d="M227.399 186.646C225.038 187.838 222.649 188.699 220.134 189.504C218.56 190.011 216.792 190.467 215.286 191.26C216.849 187.77 218.566 184.359 220.39 180.972C222.786 180.282 225.301 179.198 227.109 177.505C227.205 177.413 227.08 177.271 226.972 177.351C224.998 178.748 222.82 179.586 220.636 180.527C221.126 179.615 221.622 178.708 222.13 177.801C222.272 177.55 221.925 177.299 221.753 177.544C219.814 180.345 218.064 183.316 216.49 186.384C216.096 183.675 215.959 181.04 216.108 178.286C216.108 178.217 216.011 178.212 215.999 178.28C215.543 181.194 215.56 184.274 216.09 187.182C214.79 189.777 213.61 192.435 212.543 195.121C212.121 193.507 211.574 191.916 211.203 190.285C210.678 187.941 210.427 185.551 210.673 183.15C210.678 183.082 210.576 183.076 210.564 183.145C209.846 187.399 210.502 192.195 212.121 196.239C211.5 197.858 210.912 199.484 210.37 201.109C207.604 209.447 205.899 218.041 205.454 226.812C205.443 227.018 205.745 227.035 205.768 226.835C206.777 218.229 208.551 209.658 211.289 201.434C212.361 198.206 213.598 195.07 214.956 191.99C217.145 191.346 219.324 190.467 221.474 189.72C223.573 188.996 225.723 188.152 227.479 186.778C227.548 186.726 227.474 186.612 227.394 186.652L227.399 186.646Z" fill="#001640"/>
<path d="M230.855 183.156C228.591 183.96 226.441 185.089 224.177 185.905C224.069 185.945 224.131 186.11 224.24 186.087C226.635 185.591 229.013 184.85 230.941 183.282C231.015 183.219 230.935 183.122 230.855 183.15V183.156Z" fill="#001640"/>
<path d="M212.355 178.269C212.383 178.149 212.207 178.081 212.172 178.206C211.551 180.293 211.123 182.512 211.728 184.645C211.75 184.73 211.882 184.73 211.887 184.633C211.996 182.483 211.876 180.39 212.355 178.269Z" fill="#001640"/>
<path d="M221.719 173.444C220.961 174.414 220.687 175.788 220.738 176.997C220.738 177.077 220.87 177.122 220.892 177.031C221.166 175.834 221.628 174.75 221.999 173.587C222.05 173.415 221.833 173.313 221.725 173.45L221.719 173.444Z" fill="#001640"/>
<path d="M177.96 203.345C179.044 206.789 181.627 211.557 185.716 211.597C188.368 211.62 191.037 211.306 193.689 211.272C196.535 211.226 199.386 211.232 202.221 211.403C202.455 211.414 201.879 202.888 195.047 198.731C193.13 197.567 190.792 197.197 188.619 196.729C186.133 196.187 183.572 195.822 181.023 195.936C179.455 195.999 178.149 196.33 177.59 197.938C177.008 199.621 177.447 201.708 177.966 203.345H177.96Z" fill="#3F80FF"/>
<path d="M180.904 199.033C182.563 199.461 184.24 199.951 185.905 200.482C185.46 200.02 185.027 199.552 184.525 199.136C183.806 198.543 183.019 198.064 182.255 197.545C182.193 197.499 182.227 197.379 182.312 197.408C183.829 198.001 185.403 199.25 186.344 200.613C188.42 201.286 190.479 202.027 192.458 202.837C193.861 203.413 195.161 204.103 196.376 204.902C195.942 204.057 195.543 203.191 194.961 202.438C194.055 201.263 192.829 200.607 191.637 199.775C191.523 199.695 191.619 199.535 191.745 199.592C194.425 200.784 196.056 202.717 197.077 205.375C198.48 206.373 199.763 207.542 200.955 208.894C205.478 214.032 209.042 220.864 209.053 227.839C209.053 228.004 208.785 228.05 208.757 227.879C207.474 220.95 204.736 214.728 200.134 209.35C199.809 208.973 199.478 208.614 199.142 208.266C197.898 208.135 196.667 207.97 195.406 207.987C193.952 208.01 192.509 208.204 191.061 208.318C188.677 208.511 186.036 208.54 183.881 207.337C183.784 207.285 183.852 207.12 183.955 207.16C188.751 208.905 193.787 206.692 198.594 207.73C196.541 205.763 194.209 204.28 191.5 203.156C191.351 203.094 191.203 203.037 191.061 202.98C187.981 203.35 184.73 204.154 181.731 203.151C181.639 203.122 181.679 202.985 181.77 203.008C184.668 203.732 187.451 202.82 190.308 202.677C187.194 201.463 184.023 200.499 180.898 199.295C180.636 199.193 180.63 198.953 180.915 199.027L180.904 199.033Z" fill="#001640"/>
<path d="M179.546 202.061C181.052 202.307 182.517 202.318 184.029 202.404C184.063 202.404 184.074 202.461 184.034 202.466C182.563 202.797 180.949 202.592 179.512 202.175C179.438 202.153 179.472 202.05 179.54 202.061H179.546Z" fill="#001640"/>
<path d="M189.669 199.107C190.484 199.392 191.248 200.082 191.887 200.653C191.967 200.721 191.859 200.864 191.773 200.801C191.397 200.527 191.009 200.271 190.621 200.02C190.268 199.792 189.868 199.609 189.543 199.335C189.441 199.25 189.549 199.073 189.674 199.113L189.669 199.107Z" fill="#001640"/>
<path d="M213.804 210.205C213.752 210.319 213.918 210.428 213.98 210.308C213.98 210.308 213.982 210.306 213.986 210.302C214.009 210.336 214.043 210.365 214.095 210.371C216.855 210.969 219.632 211.574 222.444 211.825C224.702 212.024 227.308 212.15 229.287 210.838C231.968 209.059 233.73 204.308 232.281 201.286C230.565 197.699 225.398 199.649 222.809 200.921C218.822 202.866 215.617 206.156 213.804 210.2V210.205Z" fill="#3F80FF"/>
<path d="M211.802 211.865C213.324 210.376 215.007 209.139 216.786 208.067C218.007 205.991 219.883 204.268 221.845 202.911C221.942 202.843 222.027 202.997 221.936 203.065C220.248 204.365 218.93 205.888 217.676 207.548C219.672 206.436 221.782 205.517 223.932 204.702C224.679 203.327 225.899 202.044 227.291 201.337C227.319 201.326 227.354 201.36 227.325 201.383C226.11 202.335 225.141 203.316 224.291 204.565C225.563 204.092 226.846 203.647 228.129 203.225C228.243 203.185 228.289 203.362 228.181 203.407C225.899 204.303 223.561 205.244 221.297 206.327C224.154 206.709 226.726 206.801 229.629 206.304C229.703 206.293 229.738 206.401 229.663 206.424C226.858 207.223 223.647 207.371 220.818 206.555C219.375 207.263 217.967 208.038 216.626 208.905C217.75 208.757 218.879 208.956 220.014 209.184C221.999 209.578 223.938 209.926 225.974 209.857C226.048 209.857 226.071 209.977 225.991 209.994C222.535 210.587 219.267 209.019 215.839 209.424C214.573 210.297 213.37 211.26 212.269 212.338C210.119 214.448 208.391 216.975 207.068 219.678C205.625 222.615 204.844 225.723 203.681 228.757C203.629 228.888 203.447 228.837 203.47 228.7C204.468 222.723 207.445 216.131 211.802 211.865Z" fill="#001640"/>
<path d="M222.221 203.664C222.421 203.253 222.774 202.9 223.105 202.592C223.396 202.318 223.75 201.97 224.126 201.828C224.16 201.816 224.177 201.862 224.16 201.885C223.875 202.204 223.482 202.444 223.179 202.751C222.871 203.059 222.615 203.424 222.307 203.727C222.261 203.767 222.198 203.715 222.227 203.664H222.221Z" fill="#001640"/>
<path d="M227.924 205.517C228.437 205.386 228.979 205.398 229.498 205.289C230.023 205.181 230.513 204.993 231.026 204.833C231.095 204.81 231.135 204.913 231.072 204.947C230.234 205.449 228.905 205.871 227.924 205.677C227.844 205.66 227.85 205.535 227.924 205.517Z" fill="#001640"/>
<path d="M197.562 221.332L198.012 226.481L199.552 243.875H213.176L215.098 226.481L215.668 221.332H197.562Z" fill="#37474F"/>
<path d="M197.562 221.332L198.012 226.481H215.098L215.668 221.332H197.562Z" fill="#001640"/>
<path d="M196.21 224.103H217.014V219.923H196.21V224.103Z" fill="#37474F"/>
<path d="M2.5835 243.875L31.4576 243.739L60.3373 243.687L118.097 243.59L175.856 243.687L204.736 243.733L233.616 243.875L204.736 244.012L175.856 244.064L118.097 244.161L60.3373 244.064L31.4576 244.012L2.5835 243.875Z" fill="#001640"/>
<path d="M223.111 10.5676H13.0884V143.435H223.111V10.5676Z" fill="white"/>
<path d="M223.111 143.435C223.077 143.469 13.0428 143.498 13.0028 143.521C12.9572 143.492 12.98 10.6189 12.9458 10.5676V10.425H13.0884C13.0884 10.425 223.14 10.5277 223.168 10.5105C223.214 10.5391 223.077 143.395 223.111 143.435ZM223.111 143.435C223.111 143.435 222.98 10.3223 223.111 10.6246L13.0884 10.7102L13.2309 10.5676C13.2138 10.522 13.2937 143.817 13.0884 143.35L223.111 143.435Z" fill="#001640"/>
<path d="M223.111 10.5676H13.0884V15.6774H223.111V10.5676Z" fill="#001640"/>
<path d="M18.0156 13.1225C18.0156 13.6928 17.5537 14.1547 16.9834 14.1547C16.4131 14.1547 15.9512 13.6928 15.9512 13.1225C15.9512 12.5522 16.4131 12.0903 16.9834 12.0903C17.5537 12.0903 18.0156 12.5522 18.0156 13.1225Z" fill="#3F80FF"/>
<path d="M22.2246 13.1225C22.2246 13.6928 21.7627 14.1547 21.1924 14.1547C20.6221 14.1547 20.1602 13.6928 20.1602 13.1225C20.1602 12.5522 20.6221 12.0903 21.1924 12.0903C21.7627 12.0903 22.2246 12.5522 22.2246 13.1225Z" fill="white"/>
<path d="M26.4273 13.1225C26.4273 13.6928 25.9653 14.1547 25.395 14.1547C24.8247 14.1547 24.3628 13.6928 24.3628 13.1225C24.3628 12.5522 24.8247 12.0903 25.395 12.0903C25.9653 12.0903 26.4273 12.5522 26.4273 13.1225Z" fill="#455A64"/>
<path d="M76.6708 79.984H54.9653V108.447H76.6708V79.984Z" fill="#EBEBEB"/>
<path d="M102.808 79.984H81.1021V108.447H102.808V79.984Z" fill="#EBEBEB"/>
<path d="M128.95 79.984H107.244V108.447H128.95V79.984Z" fill="#EBEBEB"/>
<path d="M155.092 79.984H133.387V108.447H155.092V79.984Z" fill="#EBEBEB"/>
<path d="M181.234 79.984H159.529V108.447H181.234V79.984Z" fill="#EBEBEB"/>
<path d="M68.9549 92.7472C69.9986 93.768 70.5061 95.1253 70.5061 96.4883C70.5061 97.8513 69.9757 99.1858 68.9549 100.207C67.9341 101.25 66.5768 101.758 65.2366 101.758H65.1967C63.8793 101.758 62.4992 101.25 61.5011 100.207C61.0107 99.7618 61.0107 98.9976 61.5011 98.5072C61.946 98.0395 62.733 98.0395 63.2006 98.5072C63.7538 99.0832 64.4781 99.3569 65.2423 99.3569C65.9666 99.3569 66.7079 99.0832 67.2611 98.5072C67.8143 97.954 68.1109 97.2126 68.1109 96.4883C68.1109 95.7241 67.8371 94.9999 67.2611 94.4467C66.7079 93.8707 65.9837 93.6198 65.2423 93.6198C64.5009 93.6198 63.7538 93.8764 63.2006 94.4467C62.733 94.9143 61.9688 94.9143 61.5011 94.4467C61.4156 94.3611 61.3529 94.2528 61.2673 94.1729C61.2673 94.133 61.2673 94.1102 61.2445 94.1102C61.2445 94.0703 61.2217 94.0247 61.2046 94.0018C61.2046 93.9391 61.1818 93.8935 61.1818 93.8536C61.1818 93.8308 61.159 93.8308 61.159 93.8136C61.1362 93.6882 61.1362 93.557 61.159 93.4544L61.7977 87.951C61.8604 87.5917 62.0543 87.2952 62.3281 87.1013C62.368 87.0785 62.3908 87.0785 62.4136 87.0613C62.4364 87.0385 62.4535 87.0385 62.4764 87.0214C62.6474 86.9359 62.8185 86.896 63.0295 86.896H69.2971C69.9757 86.896 70.5061 87.4263 70.5061 88.105C70.5061 88.7437 69.9757 89.2969 69.2971 89.2969H64.0675L63.8108 91.4013C64.2785 91.2758 64.7689 91.2074 65.2366 91.2074C66.5768 91.2074 67.9341 91.715 68.9549 92.7586V92.7472Z" fill="#C7C7C7"/>
<path d="M95.0856 92.7244C96.1292 93.7452 96.6368 95.1025 96.6368 96.4427C96.6368 97.7829 96.1292 99.1402 95.0856 100.184C94.0648 101.205 92.7075 101.735 91.3445 101.735C89.9814 101.735 88.647 101.205 87.6261 100.184C87.1585 99.7162 87.1585 98.952 87.6261 98.4843C88.0938 98.0167 88.858 98.0167 89.3256 98.4843C89.8788 99.0375 90.6031 99.3113 91.3445 99.3113C92.0858 99.3113 92.8101 99.0375 93.3861 98.4843C93.9621 97.9083 94.2359 97.1898 94.2359 96.4427C94.2359 95.6956 93.9621 94.977 93.3861 94.4238C92.8329 93.8478 92.1087 93.5969 91.3673 93.5741C91.0251 93.5969 90.7114 93.4486 90.4947 93.192C90.4947 93.192 90.4871 93.1844 90.4719 93.1692C89.9814 92.7015 89.9815 91.9602 90.432 91.4697L92.5991 89.257H89.1545C88.4987 89.257 87.9626 88.7266 87.9626 88.0479C87.9626 87.3693 88.493 86.856 89.1545 86.856H95.4221C96.1007 86.856 96.6311 87.3864 96.6311 88.0479C96.6311 88.2589 96.5684 88.4528 96.4828 88.6239C96.4201 88.7323 96.3573 88.8349 96.2718 88.9205L93.5971 91.6807C94.1503 91.9373 94.6579 92.2738 95.0856 92.7244Z" fill="#C7C7C7"/>
<path d="M121.228 92.7244C122.266 93.7452 122.779 95.1025 122.779 96.4427C122.779 97.7829 122.272 99.1402 121.228 100.184C120.207 101.205 118.85 101.735 117.487 101.735C116.124 101.735 114.79 101.205 113.769 100.184C113.301 99.7162 113.301 98.952 113.769 98.4843C114.236 98.0167 115.001 98.0167 115.468 98.4843C116.021 99.0375 116.746 99.3113 117.487 99.3113C118.228 99.3113 118.953 99.0375 119.529 98.4843C120.105 97.9083 120.378 97.1898 120.378 96.4427C120.378 95.6956 120.105 94.977 119.529 94.4238C118.975 93.8478 118.251 93.5969 117.51 93.5741C117.168 93.5969 116.854 93.4486 116.637 93.192C116.637 93.192 116.63 93.1844 116.614 93.1692C116.124 92.7015 116.124 91.9602 116.575 91.4697L118.742 89.257H115.297C114.641 89.257 114.105 88.7266 114.105 88.0479C114.105 87.3693 114.636 86.856 115.297 86.856H121.565C122.243 86.856 122.774 87.3864 122.774 88.0479C122.774 88.2589 122.711 88.4528 122.625 88.6239C122.563 88.7323 122.5 88.8349 122.414 88.9205L119.74 91.6807C120.293 91.9373 120.8 92.2738 121.228 92.7244Z" fill="#C7C7C7"/>
<path d="M149.321 96.6993C149.321 99.4824 147.045 101.758 144.262 101.758C141.479 101.758 139.164 99.4824 139.164 96.6993C139.164 94.9371 140.059 93.3859 141.439 92.4734C140.994 91.8974 140.738 91.1561 140.738 90.369C140.738 88.4586 142.312 86.8845 144.262 86.8845C146.212 86.8845 147.747 88.4586 147.747 90.369C147.747 91.1561 147.49 91.8974 147.045 92.4734C148.402 93.3859 149.321 94.9371 149.321 96.6993ZM147.005 96.6993C147.005 95.188 145.773 93.9391 144.262 93.9391C142.751 93.9391 141.502 95.1937 141.479 96.6993C141.502 98.2106 142.734 99.4424 144.262 99.4424C145.79 99.4424 147.005 98.2106 147.005 96.6993ZM143.053 90.369C143.053 91.0249 143.583 91.5781 144.262 91.5781C144.901 91.5781 145.431 91.0249 145.431 90.369C145.431 89.7132 144.901 89.1999 144.262 89.1999C143.583 89.1999 143.053 89.7303 143.053 90.369Z" fill="#C7C7C7"/>
<path d="M133.529 118.405H102.665V128.077H133.529V118.405Z" fill="#3F80FF"/>
<path d="M109.246 123.988C109.332 123.88 109.491 123.868 109.594 123.954C109.805 124.125 110.17 124.324 110.506 124.324C110.746 124.324 110.963 124.25 111.105 124.148C111.248 124.045 111.311 123.925 111.311 123.805C111.311 123.743 111.293 123.703 111.265 123.651C111.236 123.606 111.191 123.555 111.122 123.509C110.985 123.418 110.752 123.338 110.467 123.287H110.455C110.233 123.247 110.022 123.184 109.839 123.098C109.657 123.013 109.503 122.893 109.394 122.728C109.32 122.614 109.286 122.477 109.286 122.334C109.286 122.049 109.446 121.798 109.668 121.638C109.891 121.479 110.187 121.387 110.495 121.387C110.951 121.387 111.293 121.61 111.539 121.77C111.647 121.844 111.681 121.998 111.607 122.112C111.533 122.226 111.385 122.26 111.265 122.186C111.02 122.02 110.786 121.878 110.495 121.878C110.278 121.878 110.09 121.946 109.959 122.038C109.828 122.135 109.776 122.237 109.776 122.34C109.776 122.397 109.788 122.437 109.811 122.471C109.834 122.511 109.879 122.551 109.942 122.596C110.067 122.682 110.284 122.762 110.541 122.807H110.552C110.797 122.853 111.02 122.916 111.214 123.007C111.408 123.104 111.584 123.229 111.693 123.406C111.761 123.52 111.807 123.663 111.807 123.811C111.807 124.119 111.636 124.381 111.396 124.553C111.162 124.724 110.849 124.826 110.512 124.826C109.993 124.826 109.56 124.564 109.292 124.347C109.189 124.262 109.172 124.102 109.252 123.999L109.246 123.988Z" fill="white"/>
<path d="M113.923 124.821C113.153 124.821 112.542 124.199 112.542 123.44V121.741C112.542 121.593 112.657 121.479 112.805 121.479C112.953 121.479 113.073 121.593 113.073 121.741V123.44C113.073 123.908 113.455 124.29 113.923 124.29C114.39 124.29 114.772 123.908 114.772 123.44V121.741C114.772 121.593 114.892 121.479 115.04 121.479C115.189 121.479 115.303 121.593 115.303 121.741V123.44C115.303 124.199 114.687 124.821 113.923 124.821Z" fill="white"/>
<path d="M116.42 124.558V121.741C116.42 121.593 116.54 121.479 116.683 121.479H117.361C117.863 121.479 118.268 121.884 118.268 122.385C118.268 122.591 118.2 122.779 118.086 122.933C118.371 123.115 118.57 123.435 118.57 123.8C118.57 124.37 118.114 124.826 117.55 124.826H116.706C116.694 124.826 116.694 124.826 116.694 124.826C116.552 124.826 116.432 124.707 116.432 124.564L116.42 124.558ZM116.951 122.773H117.361C117.572 122.773 117.738 122.596 117.738 122.385C117.738 122.174 117.572 122.009 117.361 122.009H116.951V122.773ZM116.951 124.29H117.55C117.823 124.29 118.04 124.068 118.04 123.794C118.04 123.52 117.818 123.309 117.55 123.304H116.951V124.29Z" fill="white"/>
<path d="M122.135 121.741V124.558C122.135 124.701 122.009 124.821 121.867 124.821C121.724 124.821 121.604 124.701 121.604 124.558V122.545L120.914 123.503C120.863 123.577 120.783 123.612 120.698 123.612H120.686C120.601 123.612 120.521 123.572 120.464 123.503L119.779 122.545V124.558C119.779 124.701 119.66 124.821 119.511 124.821C119.363 124.821 119.249 124.701 119.249 124.558V121.741C119.249 121.598 119.369 121.479 119.511 121.479H119.528C119.603 121.479 119.688 121.519 119.739 121.587L120.692 122.904L121.644 121.587C121.696 121.513 121.775 121.479 121.861 121.479C122.004 121.479 122.129 121.598 122.129 121.741H122.135Z" fill="white"/>
<path d="M123.327 121.741C123.327 121.593 123.441 121.479 123.589 121.479C123.737 121.479 123.857 121.593 123.857 121.741V124.558C123.857 124.707 123.732 124.821 123.589 124.821C123.446 124.821 123.327 124.707 123.327 124.558V121.741Z" fill="white"/>
<path d="M126.794 122.009H126.035V124.558C126.035 124.707 125.921 124.821 125.773 124.821C125.625 124.821 125.511 124.707 125.511 124.558V122.009H124.758C124.61 122.009 124.496 121.884 124.496 121.741C124.496 121.598 124.61 121.479 124.758 121.479H126.8C126.942 121.479 127.062 121.593 127.062 121.741C127.062 121.889 126.942 122.009 126.8 122.009H126.794Z" fill="white"/>
<path d="M122.125 33.8642V38.2041H120.899V33.8642C120.899 32.2103 119.644 30.8701 118.104 30.8701C116.564 30.8701 115.31 32.2103 115.31 33.8642V38.2041H114.083V33.8642C114.083 31.4974 115.886 29.5755 118.11 29.5755C120.334 29.5755 122.136 31.4974 122.136 33.8642H122.125Z" fill="#EBEBEB"/>
<path d="M114.077 34.9933L115.303 35.0447V38.2041H114.077V34.9933Z" fill="#C7C7C7"/>
<path d="M122.124 35.3184V38.2041H120.897V35.2728L122.124 35.3184Z" fill="#C7C7C7"/>
<path d="M123.697 36.6016H112.502V45.8917H123.697V36.6016Z" fill="#3F80FF"/>
<path d="M118.571 41.181L119.038 43.4052H117.048L117.515 41.181C117.236 41.0043 117.048 40.6963 117.048 40.3427C117.048 39.7895 117.493 39.3504 118.04 39.3504C118.588 39.3504 119.032 39.7895 119.032 40.3427C119.032 40.6963 118.844 41.0043 118.565 41.181H118.571Z" fill="#001640"/>
<path d="M57.4346 69.2589C57.4346 69.1905 57.4916 69.1335 57.56 69.1335H58.5923C59.1683 69.1335 59.6302 69.6011 59.6302 70.1771C59.6302 70.7531 59.1683 71.215 58.5923 71.215L57.6912 71.2264V72.6579C57.6912 72.7263 57.6342 72.7833 57.56 72.7833C57.4916 72.7833 57.4346 72.7263 57.4346 72.6579V69.2589ZM58.5923 70.9698C59.0257 70.9698 59.3793 70.6105 59.3793 70.1771C59.3793 69.7437 59.0257 69.3901 58.5923 69.3901H57.6912V70.9698H58.5923Z" fill="#001640"/>
<path d="M60.4517 69.2567C60.4517 69.1883 60.5087 69.1312 60.5771 69.1312C60.6513 69.1312 60.7083 69.1883 60.7083 69.2567V72.6557C60.7083 72.7241 60.6513 72.7811 60.5771 72.7811C60.5087 72.7811 60.4517 72.7241 60.4517 72.6557V69.2567Z" fill="#001640"/>
<path d="M61.7632 71.5094C61.7632 70.8022 62.3164 70.2262 63.0064 70.2262C63.6965 70.2262 64.1869 70.7452 64.2383 71.4124V71.4352C64.2383 71.5037 64.1812 71.5493 64.1128 71.5493H62.0198C62.0483 72.1082 62.4818 72.5302 63.0121 72.5302C63.3486 72.5302 63.6623 72.3534 63.8334 72.0683C63.8676 72.0055 63.9474 71.9941 63.9987 72.0283C64.0558 72.0683 64.0786 72.1424 64.0387 72.2051C63.822 72.553 63.4399 72.7811 63.0064 72.7811C62.3164 72.7811 61.7632 72.2051 61.7632 71.5094ZM62.0312 71.3041H63.9645C63.879 70.825 63.4741 70.4771 63.0064 70.4771C62.5388 70.4771 62.1282 70.8193 62.0312 71.3041Z" fill="#001640"/>
<path d="M67.2608 70.3517V72.6557C67.2608 72.7241 67.2038 72.7811 67.1354 72.7811C67.0669 72.7811 67.0099 72.7241 67.0099 72.6557V72.2736C66.7932 72.5758 66.4396 72.7811 66.0518 72.7811C65.3789 72.7811 64.8428 72.2051 64.8428 71.5037C64.8428 70.8022 65.3789 70.2262 66.0518 70.2262C66.4453 70.2262 66.7932 70.4258 67.0099 70.7281V70.3517C67.0099 70.2775 67.0669 70.2262 67.1354 70.2262C67.2038 70.2262 67.2608 70.2775 67.2608 70.3517ZM67.0099 71.5037C67.0099 70.9277 66.5765 70.4714 66.0518 70.4714C65.5271 70.4714 65.0937 70.9277 65.0937 71.5037C65.0937 72.0797 65.5328 72.5302 66.0518 72.5302C66.5708 72.5302 67.0099 72.074 67.0099 71.5037Z" fill="#001640"/>
<path d="M68.1673 72.2508C68.2072 72.1994 68.2871 72.188 68.3441 72.2336C68.5209 72.3648 68.8003 72.5302 69.1254 72.5302C69.325 72.5302 69.4961 72.4675 69.6102 72.3762C69.7356 72.2907 69.8041 72.1766 69.8041 72.0626C69.8041 71.9428 69.7527 71.8572 69.6216 71.7489C69.5132 71.6633 69.3307 71.6006 69.0798 71.5607H69.0684C68.8403 71.5151 68.635 71.4637 68.4924 71.3554C68.3327 71.2641 68.2186 71.0931 68.2186 70.8992C68.2186 70.7053 68.3327 70.5171 68.4924 70.3973C68.6464 70.2946 68.8574 70.2262 69.1197 70.2262C69.4505 70.2262 69.6843 70.3802 69.8782 70.4999C69.9352 70.5399 69.9523 70.6197 69.9124 70.6767C69.8782 70.7338 69.7984 70.7509 69.7413 70.711C69.5531 70.5855 69.3649 70.4543 69.114 70.4543C68.903 70.4543 68.7376 70.5114 68.6292 70.6026C68.5266 70.6881 68.4696 70.7908 68.4696 70.8934C68.4696 70.9961 68.5152 71.0702 68.6178 71.1501C68.7319 71.2299 68.903 71.2927 69.1368 71.3269H69.1482C69.3934 71.3611 69.593 71.4352 69.7698 71.5379C69.9352 71.6462 70.055 71.8458 70.055 72.0569C70.055 72.2679 69.9352 72.4447 69.7641 72.5758C69.5873 72.707 69.3763 72.7811 69.1254 72.7811C68.7148 72.7811 68.3897 72.5815 68.1844 72.4161C68.1331 72.3705 68.1274 72.3021 68.1673 72.2508Z" fill="#001640"/>
<path d="M70.728 71.5094C70.728 70.8022 71.2812 70.2262 71.9713 70.2262C72.6613 70.2262 73.1518 70.7452 73.2031 71.4124V71.4352C73.2031 71.5037 73.1461 71.5493 73.0776 71.5493H70.9847C71.0132 72.1082 71.4466 72.5302 71.977 72.5302C72.3135 72.5302 72.6271 72.3534 72.7982 72.0683C72.8324 72.0055 72.9123 71.9941 72.9636 72.0283C73.0206 72.0683 73.0434 72.1424 73.0035 72.2051C72.7868 72.553 72.4047 72.7811 71.9713 72.7811C71.2812 72.7811 70.728 72.2051 70.728 71.5094ZM70.9961 71.3041H72.9294C72.8438 70.825 72.4389 70.4771 71.9713 70.4771C71.5036 70.4771 71.093 70.8193 70.9961 71.3041Z" fill="#001640"/>
<path d="M75.4673 71.5094C75.4673 70.8022 76.0205 70.2262 76.7105 70.2262C77.4006 70.2262 77.891 70.7452 77.9424 71.4124V71.4352C77.9424 71.5037 77.8853 71.5493 77.8169 71.5493H75.7239C75.7524 72.1082 76.1859 72.5302 76.7162 72.5302C77.0527 72.5302 77.3664 72.3534 77.5375 72.0683C77.5717 72.0055 77.6515 71.9941 77.7028 72.0283C77.7599 72.0683 77.7827 72.1424 77.7428 72.2051C77.5261 72.553 77.144 72.7811 76.7105 72.7811C76.0205 72.7811 75.4673 72.2051 75.4673 71.5094ZM75.7353 71.3041H77.6686C77.5831 70.825 77.1782 70.4771 76.7105 70.4771C76.2429 70.4771 75.8323 70.8193 75.7353 71.3041Z" fill="#001640"/>
<path d="M80.6514 71.2698C80.6514 70.8364 80.3035 70.4828 79.8644 70.4828C79.4253 70.4828 79.0831 70.8364 79.0717 71.2698V72.6785C79.0717 72.6785 79.0603 72.7184 79.0432 72.7355C79.0204 72.764 78.9862 72.7811 78.9519 72.7811H78.9234C78.8892 72.7697 78.855 72.7469 78.8379 72.7127C78.8379 72.7127 78.8379 72.7013 78.8379 72.6956V72.6842V70.3517C78.8379 70.2832 78.8892 70.2262 78.9634 70.2262C79.0318 70.2262 79.0831 70.2832 79.0831 70.3517V70.5969C79.2713 70.3745 79.5565 70.2262 79.8758 70.2262C80.4518 70.2262 80.9138 70.6938 80.9138 71.2641V72.65C80.9138 72.7241 80.8567 72.7754 80.7883 72.7754C80.7199 72.7754 80.6628 72.7241 80.6628 72.65V71.2641L80.6514 71.2698Z" fill="#001640"/>
<path d="M82.9095 70.3517C82.9095 70.4144 82.8468 70.4771 82.784 70.4771H82.4533V72.3363C82.4533 72.4618 82.5787 72.5245 82.6415 72.5245C82.7042 72.5245 82.7726 72.5929 82.7726 72.6557C82.7726 72.7184 82.7042 72.7811 82.6415 72.7811C82.3848 72.7811 82.1909 72.5929 82.1909 72.3363V70.4771H81.8716C81.7461 70.4771 81.7461 70.4144 81.7461 70.3517C81.7461 70.2889 81.7461 70.2262 81.8716 70.2262H82.1909V69.2795C82.1909 69.2168 82.2537 69.154 82.3164 69.154C82.3848 69.154 82.4533 69.2168 82.4533 69.2795V70.2262H82.784C82.8468 70.2262 82.9095 70.2889 82.9095 70.3517Z" fill="#001640"/>
<path d="M83.7139 71.5094C83.7139 70.8022 84.2671 70.2262 84.9571 70.2262C85.6472 70.2262 86.1376 70.7452 86.189 71.4124V71.4352C86.189 71.5037 86.1319 71.5493 86.0635 71.5493H83.9705C83.999 72.1082 84.4324 72.5302 84.9628 72.5302C85.2993 72.5302 85.613 72.3534 85.784 72.0683C85.8183 72.0055 85.8981 71.9941 85.9494 72.0283C86.0065 72.0683 86.0293 72.1424 85.9893 72.2051C85.7726 72.553 85.3905 72.7811 84.9571 72.7811C84.2671 72.7811 83.7139 72.2051 83.7139 71.5094ZM83.9819 71.3041H85.9152C85.8297 70.825 85.4248 70.4771 84.9571 70.4771C84.4895 70.4771 84.0732 70.8193 83.9819 71.3041Z" fill="#001640"/>
<path d="M86.9588 70.3574C86.9588 70.2832 87.0159 70.2319 87.09 70.2319C87.1527 70.2319 87.2098 70.2832 87.2098 70.3574V70.922C87.2098 70.922 87.2326 70.882 87.244 70.8592C87.4379 70.557 87.7744 70.2319 88.2648 70.2319C88.3332 70.2319 88.3903 70.2832 88.3903 70.3574C88.3903 70.4258 88.3332 70.4828 88.2648 70.4828C87.934 70.4828 87.7002 70.671 87.5234 70.8992C87.3523 71.1273 87.2497 71.3896 87.2155 71.4923C87.2041 71.5151 87.2041 71.5208 87.2041 71.5322V72.6557C87.2041 72.7298 87.147 72.7811 87.0843 72.7811C87.0102 72.7811 86.9531 72.7298 86.9531 72.6557V70.3574H86.9588Z" fill="#001640"/>
<path d="M91.7034 70.3517C91.7034 70.4144 91.6407 70.4771 91.578 70.4771H91.2472V72.3363C91.2472 72.4618 91.3727 72.5245 91.4354 72.5245C91.4981 72.5245 91.5666 72.5929 91.5666 72.6557C91.5666 72.7184 91.4981 72.7811 91.4354 72.7811C91.1788 72.7811 90.9849 72.5929 90.9849 72.3363V70.4771H90.6655C90.54 70.4771 90.54 70.4144 90.54 70.3517C90.54 70.2889 90.54 70.2262 90.6655 70.2262H90.9849V69.2795C90.9849 69.2168 91.0476 69.154 91.1103 69.154C91.1788 69.154 91.2472 69.2168 91.2472 69.2795V70.2262H91.578C91.6407 70.2262 91.7034 70.2889 91.7034 70.3517Z" fill="#001640"/>
<path d="M94.6692 71.2299C94.6692 70.7794 94.3043 70.4771 93.8537 70.4771C93.4032 70.4771 93.0439 70.7794 93.0439 71.2299V72.6671C93.0439 72.6671 93.0439 72.6842 93.0439 72.6899C93.0439 72.7013 93.0439 72.707 93.0325 72.7127C93.0154 72.7412 92.9926 72.764 92.9527 72.7754C92.9527 72.7754 92.9526 72.7754 92.9412 72.7754H92.9127C92.8785 72.7754 92.8386 72.7583 92.8158 72.7355C92.8044 72.7184 92.7987 72.707 92.793 72.6956C92.793 72.6785 92.793 72.6671 92.793 72.6557V69.2567C92.793 69.1883 92.85 69.1312 92.9184 69.1312C92.9926 69.1312 93.0496 69.1883 93.0496 69.2567V70.6026C93.2435 70.3745 93.5344 70.2262 93.8594 70.2262C94.4468 70.2262 94.9259 70.6425 94.9259 71.2299V72.6557C94.9259 72.7241 94.8688 72.7811 94.7947 72.7811C94.7263 72.7811 94.6692 72.7241 94.6692 72.6557V71.2299Z" fill="#001640"/>
<path d="M95.8096 71.5094C95.8096 70.8022 96.3628 70.2262 97.0528 70.2262C97.7429 70.2262 98.2333 70.7452 98.2847 71.4124V71.4352C98.2847 71.5037 98.2276 71.5493 98.1592 71.5493H96.0662C96.0947 72.1082 96.5281 72.5302 97.0585 72.5302C97.395 72.5302 97.7087 72.3534 97.8797 72.0683C97.914 72.0055 97.9938 71.9941 98.0451 72.0283C98.1022 72.0683 98.125 72.1424 98.0851 72.2051C97.8683 72.553 97.4862 72.7811 97.0528 72.7811C96.3628 72.7811 95.8096 72.2051 95.8096 71.5094ZM96.0776 71.3041H98.0109C97.9254 70.825 97.5205 70.4771 97.0528 70.4771C96.5852 70.4771 96.1746 70.8193 96.0776 71.3041Z" fill="#001640"/>
<path d="M102.385 69.0799C103.36 69.0799 104.125 69.9068 104.13 70.9334C104.13 71.9542 103.36 72.7868 102.385 72.7868C101.41 72.7868 100.629 71.9599 100.623 70.9334C100.623 69.9125 101.399 69.0799 102.385 69.0799ZM102.385 72.5245C103.189 72.5245 103.868 71.823 103.874 70.9277C103.874 70.0266 103.189 69.3365 102.385 69.3365C101.581 69.3365 100.88 70.0266 100.88 70.9277C100.88 71.8287 101.558 72.5245 102.385 72.5245Z" fill="#001640"/>
<path d="M105.876 69.3879H104.775C104.706 69.3879 104.649 69.3308 104.649 69.2567C104.649 69.1883 104.706 69.1312 104.775 69.1312H107.227C107.296 69.1312 107.353 69.1883 107.353 69.2567C107.353 69.3308 107.296 69.3879 107.227 69.3879H106.126V72.6557C106.126 72.7241 106.069 72.7811 106.001 72.7811C105.933 72.7811 105.876 72.7241 105.876 72.6557V69.3879Z" fill="#001640"/>
<path d="M108.305 69.2567C108.305 69.1883 108.362 69.1312 108.431 69.1312H109.463C110.039 69.1312 110.501 69.5989 110.501 70.1749C110.501 70.7509 110.039 71.2128 109.463 71.2128L108.562 71.2242V72.6557C108.562 72.7241 108.505 72.7811 108.431 72.7811C108.362 72.7811 108.305 72.7241 108.305 72.6557V69.2567ZM109.463 70.9676C109.896 70.9676 110.25 70.6083 110.25 70.1749C110.25 69.7415 109.896 69.3879 109.463 69.3879H108.562V70.9676H109.463Z" fill="#001640"/>
<path d="M112.667 71.498C112.667 70.7908 113.249 70.2262 113.979 70.2262C114.281 70.2262 114.567 70.3289 114.795 70.5056C114.846 70.5399 114.857 70.6197 114.812 70.6767C114.772 70.7224 114.698 70.7395 114.641 70.6995C114.458 70.5513 114.23 70.4714 113.985 70.4714C113.392 70.4714 112.924 70.9334 112.924 71.498C112.924 72.0626 113.392 72.5302 113.985 72.5302C114.23 72.5302 114.458 72.4447 114.641 72.3078C114.698 72.2679 114.772 72.2793 114.812 72.3306C114.857 72.3876 114.846 72.4675 114.783 72.5131C114.572 72.6785 114.281 72.7868 113.979 72.7868C113.249 72.7868 112.667 72.2222 112.667 71.5037V71.498Z" fill="#001640"/>
<path d="M116.842 70.2262C117.515 70.2262 118.051 70.8079 118.051 71.5037C118.051 72.1994 117.515 72.7811 116.842 72.7811C116.169 72.7811 115.633 72.1994 115.633 71.5037C115.633 70.8079 116.175 70.2262 116.842 70.2262ZM116.842 72.5302C117.361 72.5302 117.8 72.074 117.8 71.5037C117.8 70.9334 117.361 70.4714 116.842 70.4714C116.323 70.4714 115.884 70.9334 115.884 71.5037C115.884 72.074 116.323 72.5302 116.842 72.5302Z" fill="#001640"/>
<path d="M121.051 72.285C120.829 72.5872 120.475 72.7811 120.07 72.7811C119.38 72.7811 118.833 72.2051 118.833 71.5094C118.833 70.8136 119.38 70.2262 120.07 70.2262C120.469 70.2262 120.829 70.4258 121.051 70.7281V69.2567C121.051 69.1883 121.108 69.1312 121.182 69.1312C121.251 69.1312 121.308 69.1883 121.308 69.2567V72.6557C121.308 72.7241 121.251 72.7811 121.182 72.7811C121.108 72.7811 121.051 72.7241 121.051 72.6557V72.285ZM121.051 71.5493V71.4637C121.028 70.9163 120.595 70.4771 120.07 70.4771C119.545 70.4771 119.089 70.9334 119.089 71.5037C119.089 72.074 119.534 72.5188 120.07 72.5188C120.606 72.5188 121.028 72.0854 121.051 71.5436V71.5493Z" fill="#001640"/>
<path d="M122.186 71.5094C122.186 70.8022 122.739 70.2262 123.429 70.2262C124.119 70.2262 124.61 70.7452 124.661 71.4124V71.4352C124.661 71.5037 124.604 71.5493 124.536 71.5493H122.443C122.471 72.1082 122.905 72.5302 123.435 72.5302C123.771 72.5302 124.085 72.3534 124.256 72.0683C124.29 72.0055 124.37 71.9941 124.422 72.0283C124.479 72.0683 124.501 72.1424 124.462 72.2051C124.245 72.553 123.863 72.7811 123.429 72.7811C122.739 72.7811 122.186 72.2051 122.186 71.5094ZM122.454 71.3041H124.387C124.302 70.825 123.897 70.4771 123.429 70.4771C122.962 70.4771 122.551 70.8193 122.454 71.3041Z" fill="#001640"/>
<path d="M126.931 72.2508C126.971 72.1994 127.051 72.188 127.108 72.2336C127.285 72.3648 127.564 72.5302 127.889 72.5302C128.089 72.5302 128.26 72.4675 128.374 72.3762C128.499 72.2907 128.568 72.1766 128.568 72.0626C128.568 71.9428 128.516 71.8572 128.385 71.7489C128.277 71.6633 128.094 71.6006 127.843 71.5607H127.832C127.604 71.5151 127.399 71.4637 127.256 71.3554C127.096 71.2641 126.982 71.0931 126.982 70.8992C126.982 70.7053 127.096 70.5171 127.256 70.3973C127.41 70.2946 127.621 70.2262 127.883 70.2262C128.214 70.2262 128.448 70.3802 128.642 70.4999C128.699 70.5399 128.716 70.6197 128.676 70.6767C128.642 70.7338 128.562 70.7509 128.505 70.711C128.317 70.5855 128.129 70.4543 127.878 70.4543C127.667 70.4543 127.501 70.5114 127.393 70.6026C127.29 70.6881 127.233 70.7908 127.233 70.8934C127.233 70.9961 127.279 71.0702 127.382 71.1501C127.496 71.2299 127.667 71.2927 127.9 71.3269H127.912C128.157 71.3611 128.357 71.4352 128.534 71.5379C128.699 71.6462 128.819 71.8458 128.819 72.0569C128.819 72.2679 128.699 72.4447 128.528 72.5758C128.351 72.707 128.14 72.7811 127.889 72.7811C127.478 72.7811 127.153 72.5815 126.948 72.4161C126.897 72.3705 126.891 72.3021 126.931 72.2508Z" fill="#001640"/>
<path d="M129.491 71.5094C129.491 70.8022 130.044 70.2262 130.734 70.2262C131.425 70.2262 131.915 70.7452 131.966 71.4124V71.4352C131.966 71.5037 131.909 71.5493 131.841 71.5493H129.748C129.776 72.1082 130.21 72.5302 130.74 72.5302C131.077 72.5302 131.39 72.3534 131.561 72.0683C131.596 72.0055 131.675 71.9941 131.727 72.0283C131.784 72.0683 131.807 72.1424 131.767 72.2051C131.55 72.553 131.168 72.7811 130.734 72.7811C130.044 72.7811 129.491 72.2051 129.491 71.5094ZM129.759 71.3041H131.693C131.607 70.825 131.202 70.4771 130.734 70.4771C130.267 70.4771 129.856 70.8193 129.759 71.3041Z" fill="#001640"/>
<path d="M134.675 71.2698C134.675 70.8364 134.327 70.4828 133.888 70.4828C133.449 70.4828 133.107 70.8364 133.096 71.2698V72.6785C133.096 72.6785 133.084 72.7184 133.067 72.7355C133.044 72.764 133.01 72.7811 132.976 72.7811H132.947C132.913 72.7697 132.879 72.7469 132.862 72.7127C132.862 72.7127 132.862 72.7013 132.862 72.6956V72.6842V70.3517C132.862 70.2832 132.913 70.2262 132.987 70.2262C133.056 70.2262 133.107 70.2832 133.107 70.3517V70.5969C133.295 70.3745 133.58 70.2262 133.9 70.2262C134.476 70.2262 134.938 70.6938 134.938 71.2641V72.65C134.938 72.7241 134.881 72.7754 134.812 72.7754C134.744 72.7754 134.687 72.7241 134.687 72.65V71.2641L134.675 71.2698Z" fill="#001640"/>
<path d="M136.934 70.3517C136.934 70.4144 136.871 70.4771 136.808 70.4771H136.478V72.3363C136.478 72.4618 136.603 72.5245 136.666 72.5245C136.729 72.5245 136.797 72.5929 136.797 72.6557C136.797 72.7184 136.729 72.7811 136.666 72.7811C136.409 72.7811 136.215 72.5929 136.215 72.3363V70.4771H135.896C135.77 70.4771 135.771 70.4144 135.771 70.3517C135.771 70.2889 135.77 70.2262 135.896 70.2262H136.215V69.2795C136.215 69.2168 136.278 69.154 136.341 69.154C136.409 69.154 136.478 69.2168 136.478 69.2795V70.2262H136.808C136.871 70.2262 136.934 70.2889 136.934 70.3517Z" fill="#001640"/>
<path d="M140.584 70.3517C140.584 70.4144 140.521 70.4771 140.458 70.4771H140.128V72.3363C140.128 72.4618 140.253 72.5245 140.316 72.5245C140.379 72.5245 140.447 72.5929 140.447 72.6557C140.447 72.7184 140.379 72.7811 140.316 72.7811C140.059 72.7811 139.865 72.5929 139.865 72.3363V70.4771H139.546C139.42 70.4771 139.42 70.4144 139.42 70.3517C139.42 70.2889 139.42 70.2262 139.546 70.2262H139.865V69.2795C139.865 69.2168 139.928 69.154 139.991 69.154C140.059 69.154 140.128 69.2168 140.128 69.2795V70.2262H140.458C140.521 70.2262 140.584 70.2889 140.584 70.3517Z" fill="#001640"/>
<path d="M142.791 70.2262C143.464 70.2262 144 70.8079 144 71.5037C144 72.1994 143.464 72.7811 142.791 72.7811C142.118 72.7811 141.582 72.1994 141.582 71.5037C141.582 70.8079 142.123 70.2262 142.791 70.2262ZM142.791 72.5302C143.31 72.5302 143.749 72.074 143.749 71.5037C143.749 70.9334 143.31 70.4714 142.791 70.4714C142.272 70.4714 141.832 70.9334 141.832 71.5037C141.832 72.074 142.272 72.5302 142.791 72.5302Z" fill="#001640"/>
<path d="M146.309 70.346C146.309 70.2775 146.366 70.2262 146.429 70.2262C146.503 70.2262 146.56 70.2775 146.56 70.346V71.7318C146.56 72.1709 146.908 72.5188 147.342 72.5188C147.775 72.5188 148.129 72.1709 148.134 71.7318V70.346C148.134 70.346 148.134 70.3003 148.157 70.2832C148.157 70.2832 148.157 70.2718 148.157 70.2661C148.157 70.2661 148.157 70.2661 148.169 70.2661C148.18 70.249 148.197 70.2376 148.214 70.2376H148.226C148.226 70.2376 148.237 70.2376 148.243 70.2376H148.271C148.271 70.2376 148.311 70.2547 148.334 70.2661C148.345 70.2775 148.362 70.2946 148.362 70.306C148.374 70.3232 148.38 70.3403 148.38 70.3574V72.5872C148.38 73.2545 147.838 73.7849 147.165 73.7849C146.977 73.7849 146.8 73.7392 146.64 73.6651C146.583 73.6309 146.555 73.5567 146.589 73.4997C146.617 73.437 146.686 73.4199 146.749 73.437C146.874 73.4997 147.022 73.5339 147.165 73.5339C147.695 73.5339 148.123 73.1119 148.129 72.5872V72.4218C147.935 72.6386 147.655 72.7868 147.336 72.7868C146.766 72.7868 146.304 72.3192 146.304 71.7432V70.3574L146.309 70.346Z" fill="#001640"/>
<path d="M150.518 70.2262C151.191 70.2262 151.727 70.8079 151.727 71.5037C151.727 72.1994 151.191 72.7811 150.518 72.7811C149.845 72.7811 149.309 72.1994 149.309 71.5037C149.309 70.8079 149.851 70.2262 150.518 70.2262ZM150.518 72.5302C151.037 72.5302 151.476 72.074 151.476 71.5037C151.476 70.9334 151.037 70.4714 150.518 70.4714C149.999 70.4714 149.56 70.9334 149.56 71.5037C149.56 72.074 149.999 72.5302 150.518 72.5302Z" fill="#001640"/>
<path d="M152.554 70.346C152.554 70.2718 152.611 70.2205 152.68 70.2205C152.748 70.2205 152.805 70.2718 152.805 70.346V71.7375C152.805 72.1766 153.153 72.5245 153.586 72.5302C154.026 72.5302 154.379 72.1766 154.379 71.7375V70.346C154.379 70.2718 154.442 70.2205 154.505 70.2205C154.579 70.2205 154.636 70.2718 154.636 70.346V71.7375C154.636 72.3135 154.174 72.7811 153.586 72.7811C152.999 72.7811 152.554 72.3135 152.554 71.7375V70.346Z" fill="#001640"/>
<path d="M155.799 70.3574C155.799 70.2832 155.856 70.2319 155.93 70.2319C155.993 70.2319 156.05 70.2832 156.05 70.3574V70.922C156.05 70.922 156.073 70.882 156.084 70.8592C156.278 70.557 156.615 70.2319 157.105 70.2319C157.174 70.2319 157.231 70.2832 157.231 70.3574C157.231 70.4258 157.174 70.4828 157.105 70.4828C156.774 70.4828 156.541 70.671 156.364 70.8992C156.193 71.1273 156.09 71.3896 156.056 71.4923C156.044 71.5151 156.044 71.5208 156.044 71.5322V72.6557C156.044 72.7298 155.987 72.7811 155.925 72.7811C155.85 72.7811 155.793 72.7298 155.793 72.6557V70.3574H155.799Z" fill="#001640"/>
<path d="M161.474 71.2698C161.474 70.8364 161.126 70.4828 160.687 70.4828C160.248 70.4828 159.905 70.8364 159.894 71.2698V72.6785C159.894 72.6785 159.883 72.7184 159.865 72.7355C159.843 72.764 159.808 72.7811 159.774 72.7811H159.746C159.711 72.7697 159.677 72.7469 159.66 72.7127C159.66 72.7127 159.66 72.7013 159.66 72.6956V72.6842V70.3517C159.66 70.2832 159.711 70.2262 159.786 70.2262C159.854 70.2262 159.905 70.2832 159.905 70.3517V70.5969C160.094 70.3745 160.379 70.2262 160.698 70.2262C161.274 70.2262 161.736 70.6938 161.736 71.2641V72.65C161.736 72.7241 161.679 72.7754 161.611 72.7754C161.542 72.7754 161.485 72.7241 161.485 72.65V71.2641L161.474 71.2698Z" fill="#001640"/>
<path d="M162.797 70.346C162.797 70.2718 162.854 70.2205 162.922 70.2205C162.991 70.2205 163.048 70.2718 163.048 70.346V71.7375C163.048 72.1766 163.396 72.5245 163.829 72.5302C164.268 72.5302 164.622 72.1766 164.622 71.7375V70.346C164.622 70.2718 164.685 70.2205 164.747 70.2205C164.821 70.2205 164.878 70.2718 164.878 70.346V71.7375C164.878 72.3135 164.417 72.7811 163.829 72.7811C163.242 72.7811 162.797 72.3135 162.797 71.7375V70.346Z" fill="#001640"/>
<path d="M169.697 71.2698C169.686 70.8364 169.344 70.4771 168.905 70.4771C168.465 70.4771 168.118 70.8364 168.118 71.2698V72.6785V72.6899V72.7013C168.106 72.7298 168.083 72.7526 168.055 72.7697C168.032 72.7811 168.015 72.7868 167.992 72.7868H167.964H167.952C167.941 72.7868 167.929 72.7754 167.924 72.7697C167.924 72.7697 167.912 72.7697 167.907 72.7583L167.889 72.7412C167.889 72.7412 167.889 72.7298 167.878 72.7298C167.878 72.7298 167.878 72.726 167.878 72.7184C167.878 72.7184 167.878 72.7184 167.878 72.707C167.878 72.707 167.878 72.6956 167.878 72.6899V71.2698C167.878 70.8364 167.53 70.4771 167.091 70.4771C166.652 70.4771 166.304 70.8364 166.304 71.2698V72.6614C166.304 72.7013 166.281 72.7412 166.247 72.7583C166.247 72.7583 166.224 72.7754 166.218 72.7754C166.218 72.7754 166.207 72.7754 166.196 72.7754H166.167C166.121 72.7754 166.076 72.7298 166.064 72.6842V70.346C166.064 70.2775 166.121 70.2262 166.184 70.2262C166.258 70.2262 166.31 70.2775 166.31 70.346V70.5912C166.498 70.3688 166.777 70.2262 167.097 70.2262C167.49 70.2262 167.832 70.4429 168.009 70.768C168.192 70.4429 168.534 70.2262 168.927 70.2262C169.503 70.2262 169.965 70.6881 169.965 71.2641V72.6557C169.965 72.7184 169.914 72.7754 169.84 72.7754C169.771 72.7754 169.72 72.7184 169.72 72.6557V71.2641L169.697 71.2698Z" fill="#001640"/>
<path d="M170.998 71.5607V69.2567C170.998 69.1883 171.055 69.1312 171.123 69.1312C171.197 69.1312 171.254 69.1883 171.254 69.2567V70.7281C171.477 70.4258 171.83 70.2262 172.235 70.2262C172.925 70.2262 173.473 70.8022 173.473 71.5094C173.473 72.2165 172.925 72.7811 172.235 72.7811C171.836 72.7811 171.477 72.5872 171.254 72.285V72.6557C171.254 72.7241 171.197 72.7811 171.123 72.7811C171.055 72.7811 170.998 72.7241 170.998 72.6557V71.5607ZM171.254 71.5094C171.254 72.074 171.699 72.5245 172.235 72.5245C172.771 72.5245 173.216 72.0683 173.216 71.5094C173.216 70.9505 172.777 70.4828 172.235 70.4828C171.693 70.4828 171.277 70.922 171.254 71.4694V71.5094Z" fill="#001640"/>
<path d="M174.26 71.5094C174.26 70.8022 174.813 70.2262 175.503 70.2262C176.193 70.2262 176.684 70.7452 176.735 71.4124V71.4352C176.735 71.5037 176.678 71.5493 176.609 71.5493H174.516C174.545 72.1082 174.978 72.5302 175.509 72.5302C175.845 72.5302 176.159 72.3534 176.33 72.0683C176.364 72.0055 176.444 71.9941 176.495 72.0283C176.552 72.0683 176.575 72.1424 176.535 72.2051C176.319 72.553 175.936 72.7811 175.503 72.7811C174.813 72.7811 174.26 72.2051 174.26 71.5094ZM174.528 71.3041H176.461C176.376 70.825 175.971 70.4771 175.503 70.4771C175.035 70.4771 174.625 70.8193 174.528 71.3041Z" fill="#001640"/>
<path d="M177.505 70.3574C177.505 70.2832 177.562 70.2319 177.636 70.2319C177.699 70.2319 177.756 70.2832 177.756 70.3574V70.922C177.756 70.922 177.778 70.882 177.79 70.8592C177.984 70.557 178.32 70.2319 178.811 70.2319C178.879 70.2319 178.936 70.2832 178.936 70.3574C178.936 70.4258 178.879 70.4828 178.811 70.4828C178.48 70.4828 178.246 70.671 178.069 70.8992C177.898 71.1273 177.796 71.3896 177.761 71.4923C177.75 71.5151 177.75 71.5208 177.75 71.5322V72.6557C177.75 72.7298 177.693 72.7811 177.63 72.7811C177.556 72.7811 177.499 72.7298 177.499 72.6557V70.3574H177.505Z" fill="#001640"/>
<path d="M92.5362 58.9401C92.5362 58.9401 92.4963 58.9115 92.4678 58.8887C92.4678 58.8773 92.4564 58.8773 92.4564 58.8602C92.4336 58.8374 92.4165 58.8203 92.4051 58.7975C92.4051 58.7975 92.3937 58.7975 92.3937 58.7861C92.3823 58.7633 92.3652 58.7233 92.3423 58.7062L89.8787 52.8265C89.7589 52.5527 89.8901 52.222 90.1809 52.1136C90.4547 51.9939 90.774 52.125 90.8938 52.4045L92.8556 57.0638L94.8174 52.4045C94.9372 52.125 95.268 51.9939 95.5417 52.1136C95.8211 52.222 95.9523 52.5584 95.844 52.8265L93.3575 58.7062C93.3575 58.7062 93.3347 58.769 93.3176 58.7861C93.3176 58.7861 93.3137 58.7899 93.3061 58.7975C93.3061 58.7975 93.2662 58.8374 93.2548 58.8602C93.2548 58.8602 93.2472 58.8697 93.232 58.8887C93.232 58.8887 93.1921 58.9172 93.1693 58.9401L93.1465 58.9515C93.1465 58.9515 93.0951 58.9914 93.0666 59.0028C93.0666 59.0028 93.059 59.0066 93.0438 59.0142C93.0153 59.0142 92.9925 59.0256 92.964 59.037H92.9412C92.9012 59.0484 92.8727 59.0484 92.8385 59.0484C92.8043 59.0484 92.7701 59.0484 92.7358 59.037H92.713C92.713 59.037 92.6503 59.0142 92.6332 59.0142C92.6332 59.0028 92.6218 59.0028 92.6218 59.0028H92.6104C92.6104 59.0028 92.5476 58.9629 92.5191 58.9401H92.5077H92.5362Z" fill="#001640"/>
<path d="M96.6253 56.522C96.6367 55.1533 97.7032 54.007 99.0833 54.007C100.463 54.007 101.427 54.9822 101.507 56.3452V56.3965C101.507 56.3965 101.507 56.465 101.496 56.4878C101.467 56.7273 101.256 56.8927 100.971 56.8927H97.7716C97.823 57.1265 97.9313 57.3888 98.1138 57.5542C98.3248 57.7938 98.7297 57.9763 99.0776 58.0048C99.4426 58.0333 99.8703 57.942 100.127 57.7538C100.338 57.5314 100.749 57.5599 100.88 57.7253C101.011 57.8679 101.114 58.1702 100.88 58.3812C100.384 58.8317 99.7905 59.0427 99.0776 59.0427C97.6975 59.0313 96.631 57.8964 96.6196 56.5277L96.6253 56.522ZM97.7203 56.0258H100.572C100.469 55.6209 99.9559 55.0278 99.0833 54.9594C98.2279 54.9993 97.8058 55.6152 97.726 56.0258H97.7203Z" fill="#001640"/>
<path d="M106.001 54.5374C106.001 54.8168 105.767 55.0734 105.465 55.0734C105.231 55.0734 105.031 55.1362 104.86 55.2674C104.666 55.3871 104.518 55.5582 104.398 55.7521C104.159 56.0715 104.033 56.4593 103.988 56.5961V58.5066C103.988 58.7975 103.737 59.0427 103.435 59.0427C103.132 59.0427 102.898 58.8032 102.898 58.5066V54.5431C102.898 54.2522 103.138 54.0184 103.435 54.0184C103.731 54.0184 103.988 54.2522 103.988 54.5431V54.6115C104.05 54.5431 104.13 54.4575 104.199 54.4119C104.529 54.1895 104.963 54.007 105.465 54.0184C105.767 54.0184 106.001 54.2522 106.001 54.5431V54.5374Z" fill="#001640"/>
<path d="M108.419 52.7466C108.419 53.0489 108.185 53.2998 107.877 53.2998C107.569 53.2998 107.335 53.0489 107.335 52.7466V52.5356C107.335 52.2334 107.575 51.9939 107.877 51.9939C108.179 51.9939 108.419 52.2334 108.419 52.5356V52.7466ZM108.419 54.5659V58.4895C108.419 58.7918 108.185 59.0313 107.877 59.0313C107.569 59.0313 107.335 58.7918 107.335 58.4895V54.5659C107.335 54.2465 107.575 54.0127 107.877 54.0127C108.179 54.0127 108.419 54.2465 108.419 54.5659Z" fill="#001640"/>
<path d="M111.801 53.6705V53.8131H112.103C112.405 53.8131 112.656 54.0526 112.656 54.3663C112.656 54.6799 112.405 54.9195 112.103 54.9195H111.801V58.4724C111.801 58.7747 111.561 59.0256 111.248 59.0256C110.934 59.0256 110.695 58.7747 110.695 58.4724V54.9195H110.432C110.119 54.9195 109.868 54.6685 109.868 54.3663C109.868 54.064 110.119 53.8131 110.432 53.8131H110.695V53.6705C110.695 53.2998 110.735 52.9748 110.889 52.6839C111.031 52.3817 111.311 52.1478 111.613 52.0623C111.812 51.9996 112.006 51.9824 112.217 51.9824C112.52 51.9824 112.77 52.2334 112.77 52.5356C112.77 52.8379 112.52 53.1002 112.217 53.1002C112.086 53.1002 111.995 53.1116 111.955 53.1287C111.915 53.1401 111.904 53.1516 111.892 53.1573C111.881 53.1573 111.801 53.2998 111.801 53.6705Z" fill="#001640"/>
<path d="M114.898 52.7466C114.898 53.0489 114.664 53.2998 114.356 53.2998C114.048 53.2998 113.814 53.0489 113.814 52.7466V52.5356C113.814 52.2334 114.053 51.9939 114.356 51.9939C114.658 51.9939 114.898 52.2334 114.898 52.5356V52.7466ZM114.898 54.5659V58.4895C114.898 58.7918 114.664 59.0313 114.356 59.0313C114.048 59.0313 113.814 58.7918 113.814 58.4895V54.5659C113.814 54.2465 114.053 54.0127 114.356 54.0127C114.658 54.0127 114.898 54.2465 114.898 54.5659Z" fill="#001640"/>
<path d="M116.278 56.5334C116.278 55.1362 117.447 54.0184 118.833 54.007C119.437 54.007 120.002 54.2294 120.435 54.5602C120.669 54.7427 120.709 55.0849 120.544 55.3073C120.344 55.5468 120.019 55.5867 119.791 55.4099C119.529 55.216 119.209 55.0906 118.833 55.0906C118.017 55.0906 117.344 55.7635 117.344 56.5391C117.344 57.3147 118.017 57.9763 118.833 57.9763C119.192 57.9763 119.529 57.8451 119.791 57.6569C120.013 57.4858 120.344 57.5257 120.544 57.7652C120.703 57.9877 120.663 58.307 120.435 58.5123C120.002 58.826 119.437 59.0484 118.833 59.0484C117.441 59.0484 116.278 57.9192 116.278 56.5391V56.5334Z" fill="#001640"/>
<path d="M126.64 56.5334V58.5066C126.64 58.7975 126.4 59.0427 126.104 59.0427C125.842 59.0427 125.642 58.8488 125.579 58.6093C125.197 58.883 124.741 59.0427 124.239 59.0427C123.555 59.0427 122.962 58.7633 122.528 58.307C122.095 57.8451 121.844 57.2178 121.844 56.5334C121.844 55.849 122.095 55.216 122.528 54.7598C122.962 54.2978 123.555 54.007 124.239 54.007C124.741 54.007 125.197 54.1781 125.579 54.4518C125.642 54.2009 125.842 54.007 126.104 54.007C126.395 54.007 126.64 54.2465 126.64 54.5488V56.5334ZM125.573 56.5334C125.573 56.1114 125.425 55.7464 125.18 55.4955C124.94 55.2217 124.598 55.0849 124.245 55.0849C123.891 55.0849 123.538 55.2274 123.309 55.4955C123.07 55.7464 122.927 56.1114 122.927 56.5334C122.927 56.9554 123.07 57.309 123.309 57.5713C123.543 57.8223 123.885 57.9648 124.245 57.9648C124.604 57.9648 124.94 57.8223 125.18 57.5713C125.42 57.309 125.573 56.9497 125.573 56.5334Z" fill="#001640"/>
<path d="M130.877 54.5602C130.877 54.8624 130.615 55.1134 130.313 55.1134H130.062V57.9249C130.376 57.9249 130.615 58.1759 130.615 58.4895C130.615 58.8032 130.376 59.0427 130.062 59.0427C129.446 59.0427 128.944 58.5408 128.944 57.9249V55.1134H128.653C128.34 55.1134 128.1 54.8624 128.1 54.5602C128.1 54.2579 128.34 54.007 128.653 54.007H128.944V52.547C128.944 52.2334 129.195 51.9939 129.509 51.9939C129.822 51.9939 130.062 52.2334 130.062 52.547V54.007H130.313C130.615 54.007 130.877 54.2465 130.877 54.5602Z" fill="#001640"/>
<path d="M133.74 52.7466C133.74 53.0489 133.506 53.2998 133.199 53.2998C132.891 53.2998 132.657 53.0489 132.657 52.7466V52.5356C132.657 52.2334 132.896 51.9939 133.199 51.9939C133.501 51.9939 133.74 52.2334 133.74 52.5356V52.7466ZM133.74 54.5659V58.4895C133.74 58.7918 133.506 59.0313 133.199 59.0313C132.891 59.0313 132.657 58.7918 132.657 58.4895V54.5659C132.657 54.2465 132.896 54.0127 133.199 54.0127C133.501 54.0127 133.74 54.2465 133.74 54.5659Z" fill="#001640"/>
<path d="M135.936 58.3013C135.502 57.8565 135.24 57.2349 135.24 56.5277C135.24 55.8205 135.502 55.2502 135.936 54.7655C136.386 54.2921 136.973 54.0013 137.669 54.0013C138.365 54.0013 138.935 54.2921 139.352 54.7655C139.808 55.2502 140.059 55.8434 140.059 56.5277C140.059 57.2121 139.808 57.8565 139.352 58.3013C138.941 58.7747 138.336 59.0655 137.669 59.0655C137.002 59.0655 136.392 58.7747 135.936 58.3013ZM136.34 56.5277C136.34 56.9611 136.472 57.3147 136.705 57.5942C136.956 57.8337 137.287 57.9648 137.675 57.9648C138.028 57.9648 138.348 57.8337 138.599 57.5942C138.85 57.3147 138.992 56.9611 138.992 56.5277C138.992 56.0943 138.85 55.7521 138.599 55.4784C138.348 55.2559 138.023 55.0963 137.675 55.0963C137.293 55.0963 136.962 55.2559 136.705 55.4784C136.472 55.7521 136.34 56.1114 136.34 56.5277Z" fill="#001640"/>
<path d="M145.962 56.1V58.5066C145.962 58.7975 145.728 59.0427 145.437 59.0427C145.146 59.0427 144.901 58.8032 144.901 58.5066V56.1C144.901 55.5354 144.427 55.0849 143.851 55.0849C143.275 55.0849 142.842 55.5354 142.842 56.1V58.5066C142.842 58.5351 142.842 58.5694 142.819 58.6093C142.768 58.8488 142.545 59.0427 142.283 59.0427C141.981 59.0427 141.747 58.8032 141.747 58.5066V54.5431C141.747 54.2522 141.981 54.007 142.283 54.007C142.494 54.007 142.688 54.1268 142.774 54.3207C143.076 54.1268 143.447 54.007 143.84 54.007C145.009 54.007 145.944 54.9651 145.944 56.1H145.962Z" fill="#001640"/>
<path d="M248.825 22.3328C248.825 22.3328 245.079 52.3303 238.919 59.0826C231.528 67.1808 226.162 65.9946 223.179 70.1692C223.174 70.1692 223.174 70.1749 223.174 70.1749C220.191 65.9946 214.824 67.1865 207.428 59.0769C201.268 52.3246 197.527 22.3271 197.527 22.3271C213.752 14.4513 223.174 5.62312 223.174 5.62312H223.179C223.47 5.90256 232.851 14.5768 248.825 22.3271V22.3328Z" fill="#3F80FF"/>
<path opacity="0.1" d="M223.179 5.63452V70.1692L223.174 70.1749C220.191 65.9946 214.824 67.1865 207.428 59.0769C201.268 52.3246 197.527 22.3271 197.527 22.3271C213.752 14.4513 223.174 5.62312 223.174 5.62312H223.179V5.63452Z" fill="black"/>
<path d="M201.508 24.7508C201.508 24.7508 204.673 50.0948 209.874 55.7977C216.124 62.647 220.658 61.6433 223.179 65.1677C225.7 61.6376 230.234 62.647 236.484 55.7977C241.685 50.0948 244.845 24.7508 244.845 24.7508C231.135 18.0955 223.179 10.636 223.179 10.636C223.179 10.636 215.212 18.0955 201.508 24.7508Z" fill="#3F80FF"/>
<path opacity="0.2" d="M244.839 24.7508C244.839 24.7508 241.674 50.089 236.473 55.7977C230.228 62.6413 225.7 61.6432 223.173 65.162V10.6417C223.419 10.8698 231.346 18.1924 244.839 24.7508Z" fill="white"/>
<path d="M223.179 47.9505C228.729 47.9505 233.228 43.4515 233.228 37.9018C233.228 32.3522 228.729 27.8532 223.179 27.8532C217.63 27.8532 213.131 32.3522 213.131 37.9018C213.131 43.4515 217.63 47.9505 223.179 47.9505Z" fill="#455A64"/>
<path d="M222.033 44.4317L217.556 39.7781L219.216 38.1813L221.685 40.7476L227 32.5867L228.934 33.8413L222.033 44.4317Z" fill="white"/>
<path d="M244.839 65.7665L243.419 66.0288L243.1 67.5287L242.786 66.0288L241.366 65.7665L242.781 65.4186L243.1 64.0043L243.425 65.4186L244.839 65.7665Z" fill="#3F80FF"/>
<path d="M202.746 54.3777L201.326 54.64L201.006 56.1342L200.692 54.64L199.272 54.372L200.687 54.0298L201.006 52.6155L201.331 54.0298L202.746 54.3777Z" fill="#3F80FF"/>
<path d="M209.236 14.8847L207.81 15.1471L207.496 16.6469L207.177 15.1471L205.757 14.8847L207.171 14.5368L207.496 13.1225L207.816 14.5368L209.236 14.8847Z" fill="#3F80FF"/>
<path d="M242.296 59.0313L241.503 59.1739L241.326 60.0122L241.15 59.1739L240.357 59.0256L241.144 58.8374L241.326 58.0447L241.509 58.8374L242.296 59.0313Z" fill="#3F80FF"/>
<path d="M247.793 42.3616L246.995 42.5098L246.818 43.3482L246.641 42.5098L245.849 42.3616L246.636 42.1677L246.818 41.375L247.001 42.1677L247.793 42.3616Z" fill="#3F80FF"/>
<path d="M241.047 13.1225L240.254 13.2708L240.077 14.1091L239.901 13.2708L239.108 13.1225L239.895 12.9286L240.077 12.1416L240.26 12.9286L241.047 13.1225Z" fill="#3F80FF"/>
<path d="M220.762 73.7734L219.969 73.9217L219.792 74.76L219.615 73.9217L218.817 73.7734L219.61 73.5795L219.792 72.7925L219.969 73.5795L220.762 73.7734Z" fill="#3F80FF"/>
<path d="M198.331 56.3224L197.539 56.4707L197.362 57.309L197.185 56.4707L196.387 56.3224L197.179 56.1342L197.362 55.3415L197.539 56.1342L198.331 56.3224Z" fill="#3F80FF"/>
<path d="M199.569 33.1171L198.777 33.2596L198.594 34.098L198.417 33.2596L197.625 33.1171L198.417 32.9232L198.594 32.1305L198.777 32.9232L199.569 33.1171Z" fill="#3F80FF"/>
<path d="M232.886 62.7838C232.589 62.7838 232.589 63.2458 232.886 63.2458C233.183 63.2458 233.183 62.7838 232.886 62.7838Z" fill="#3F80FF"/>
<path d="M196.273 21.0553C195.976 21.0553 195.976 21.5173 196.273 21.5173C196.569 21.5173 196.569 21.0553 196.273 21.0553Z" fill="#3F80FF"/>
<path d="M240.077 64.0841C239.781 64.0841 239.781 64.5461 240.077 64.5461C240.374 64.5461 240.374 64.0841 240.077 64.0841Z" fill="#3F80FF"/>
<path d="M216.758 28.1213C216.462 28.1213 216.462 28.5832 216.758 28.5832C217.055 28.5832 217.055 28.1213 216.758 28.1213Z" fill="#3F80FF"/>
<path d="M195.44 37.3943C195.144 37.3943 195.144 37.8562 195.44 37.8562C195.737 37.8562 195.737 37.3943 195.44 37.3943Z" fill="#3F80FF"/>
<path d="M190.074 34.885C189.863 34.885 189.863 35.21 190.074 35.21C190.285 35.21 190.285 34.885 190.074 34.885Z" fill="#3F80FF"/>
<path d="M234.009 10.117C233.798 10.117 233.798 10.4421 234.009 10.4421C234.22 10.4421 234.22 10.117 234.009 10.117Z" fill="#3F80FF"/>
<path d="M211.272 65.8748C211.061 65.8748 211.061 66.1999 211.272 66.1999C211.483 66.1999 211.483 65.8748 211.272 65.8748Z" fill="#3F80FF"/>
<path d="M206.185 62.8865C205.614 62.8865 205.614 63.7705 206.185 63.7705C206.755 63.7705 206.755 62.8865 206.185 62.8865Z" fill="#3F80FF"/>
<path d="M96.5454 101.461V111.059H99.0718V115.428L103.446 111.059H133.141V101.461H96.5454Z" fill="white"/>
<path d="M96.5454 101.461C96.5682 104.695 96.6651 107.894 96.6651 111.054L96.5454 110.934H99.0775L99.203 110.928V111.054L99.2144 115.428L98.9748 115.331L103.332 110.945C103.383 110.894 103.372 110.9 103.44 110.9C110.837 110.877 125.739 110.854 133.136 110.848L132.93 111.054L132.959 101.461L133.136 101.638C124.011 101.621 105.659 101.524 96.5397 101.461H96.5454ZM96.5454 101.461L114.795 101.347L133.141 101.284H133.318V101.461L133.347 111.054V111.259H133.141L118.296 111.242C118.376 111.19 103.013 111.299 103.56 111.162L99.1744 115.519L98.9349 115.753V115.416L98.9463 111.042L99.0718 111.168H96.5397L96.4199 111.162V111.042C96.4199 107.809 96.5169 104.609 96.5397 101.45L96.5454 101.461Z" fill="#001640"/>
<path d="M102.944 104.934V106.223H102.579V104.934C102.579 104.444 102.209 104.045 101.752 104.045C101.296 104.045 100.926 104.444 100.926 104.934V106.223H100.561V104.934C100.561 104.233 101.097 103.663 101.752 103.663C102.408 103.663 102.944 104.233 102.944 104.934Z" fill="#001640"/>
<path d="M100.561 105.271L100.926 105.282V106.223H100.561V105.271Z" fill="#001640"/>
<path d="M102.945 105.368V106.223H102.58V105.351L102.945 105.368Z" fill="#001640"/>
<path d="M103.406 105.744H100.093V108.499H103.406V105.744Z" fill="#001640"/>
<path d="M108.698 105.123C108.219 106.012 107.529 106.708 106.64 107.181C107.113 106.292 107.809 105.602 108.698 105.123Z" fill="#001640"/>
<path d="M106.64 105.123C107.529 105.602 108.225 106.292 108.698 107.181C107.809 106.708 107.119 106.012 106.64 105.123Z" fill="#001640"/>
<path d="M109.126 106.155C108.157 106.446 107.181 106.451 106.212 106.155C107.181 105.858 108.157 105.864 109.126 106.155Z" fill="#001640"/>
<path d="M107.666 104.695C107.957 105.664 107.963 106.64 107.666 107.609C107.37 106.64 107.375 105.664 107.666 104.695Z" fill="#001640"/>
<path d="M113.723 105.123C113.244 106.012 112.554 106.708 111.664 107.181C112.137 106.292 112.833 105.602 113.723 105.123Z" fill="#001640"/>
<path d="M111.664 105.123C112.554 105.602 113.249 106.292 113.723 107.181C112.833 106.708 112.143 106.012 111.664 105.123Z" fill="#001640"/>
<path d="M114.151 106.155C113.181 106.446 112.206 106.451 111.236 106.155C112.206 105.858 113.181 105.864 114.151 106.155Z" fill="#001640"/>
<path d="M112.69 104.695C112.981 105.664 112.987 106.64 112.69 107.609C112.394 106.64 112.4 105.664 112.69 104.695Z" fill="#001640"/>
<path d="M118.747 105.123C118.268 106.012 117.578 106.708 116.688 107.181C117.162 106.292 117.858 105.602 118.747 105.123Z" fill="#001640"/>
<path d="M116.688 105.123C117.578 105.602 118.274 106.292 118.747 107.181C117.858 106.708 117.168 106.012 116.688 105.123Z" fill="#001640"/>
<path d="M119.169 106.155C118.2 106.446 117.224 106.451 116.255 106.155C117.224 105.858 118.2 105.864 119.169 106.155Z" fill="#001640"/>
<path d="M117.715 104.695C118.006 105.664 118.011 106.64 117.715 107.609C117.418 106.64 117.424 105.664 117.715 104.695Z" fill="#001640"/>
<path d="M123.766 105.123C123.287 106.012 122.597 106.708 121.707 107.181C122.18 106.292 122.876 105.602 123.766 105.123Z" fill="#001640"/>
<path d="M121.707 105.123C122.597 105.602 123.292 106.292 123.766 107.181C122.876 106.708 122.186 106.012 121.707 105.123Z" fill="#001640"/>
<path d="M124.194 106.155C123.224 106.446 122.249 106.451 121.279 106.155C122.249 105.858 123.224 105.864 124.194 106.155Z" fill="#001640"/>
<path d="M122.739 104.695C123.03 105.664 123.036 106.64 122.739 107.609C122.443 106.64 122.448 105.664 122.739 104.695Z" fill="#001640"/>
<path d="M128.79 105.123C128.311 106.012 127.621 106.708 126.731 107.181C127.204 106.292 127.9 105.602 128.79 105.123Z" fill="#001640"/>
<path d="M126.731 105.123C127.621 105.602 128.316 106.292 128.79 107.181C127.9 106.708 127.21 106.012 126.731 105.123Z" fill="#001640"/>
<path d="M129.217 106.155C128.248 106.446 127.273 106.451 126.303 106.155C127.273 105.858 128.248 105.864 129.217 106.155Z" fill="#001640"/>
<path d="M127.763 104.695C128.054 105.664 128.06 106.64 127.763 107.609C127.467 106.64 127.472 105.664 127.763 104.695Z" fill="#001640"/>
<path d="M56.4538 217.323L23.5249 243.876H25.3784L63.4114 217.323H56.4538Z" fill="#C7C7C7"/>
<path d="M59.5506 217.323L43.2744 243.876H45.1336L65.0768 217.323H59.5506Z" fill="#C7C7C7"/>
<path d="M67.5289 217.323L83.7995 243.876H81.946L61.9971 217.323H67.5289Z" fill="#C7C7C7"/>
<path d="M70.3687 217.323L103.298 243.876H101.444L63.4111 217.323H70.3687Z" fill="#C7C7C7"/>
<path d="M125.328 207.582V199.814L80.1094 197.955L56.2197 134.185H1.49414L20.8557 207.582L67.1237 220.568H70.0208L125.328 207.582Z" fill="#455A64"/>
<path opacity="0.1" d="M1.49414 134.185H7.75598L27.9273 201.086L68.8631 212.68L125.328 199.814V207.582L70.0208 220.568H67.1237L20.8557 207.582L1.49414 134.185Z" fill="black"/>
<path d="M100.708 255.949C99.3282 255.424 68.287 229.989 67.7167 228.272C67.4943 227.622 70.9389 222.883 75.2561 217.277C76.1913 216.068 77.1608 214.825 78.1531 213.564C84.5861 205.386 91.6064 196.86 91.6064 196.86L112.422 213.815L98.3929 230.052L95.319 233.616C95.319 233.616 102.847 248.672 103.275 250.622C103.691 252.567 102.094 256.473 100.714 255.949H100.708Z" fill="#AD6359"/>
<path d="M100.708 255.949C99.3282 255.424 68.287 229.989 67.7167 228.272C67.4543 227.479 72.587 220.653 78.1531 213.564L98.3929 230.052L95.319 233.616C95.319 233.616 102.847 248.672 103.275 250.622C103.691 252.567 102.094 256.473 100.714 255.949H100.708Z" fill="#EBEBEB"/>
<path d="M100.708 255.949C99.3282 255.424 68.287 229.989 67.7167 228.272C67.4943 227.622 70.9389 222.883 75.2561 217.277L95.319 233.616C95.319 233.616 102.847 248.672 103.275 250.622C103.691 252.567 102.094 256.473 100.714 255.949H100.708Z" fill="#3F80FF"/>
<path d="M101.284 254.34C96.1857 249.949 75.2045 232.721 69.8323 228.768C69.7867 228.734 69.7639 228.768 69.8038 228.803C74.7597 233.262 95.8834 250.326 101.216 254.432C101.33 254.517 101.392 254.437 101.284 254.346V254.34Z" fill="#001640"/>
<path d="M102.191 247.873C100.999 246.813 99.3111 246.408 98.0394 246.596C96.8132 246.773 95.4502 247.314 94.6005 248.421C94.5777 248.455 94.6347 248.501 94.6632 248.472C96.6307 246.681 99.9441 246.408 102.14 247.942C102.185 247.97 102.237 247.913 102.191 247.879V247.873Z" fill="#001640"/>
<path d="M96.9099 235.789C94.8511 234.055 91.8342 232.812 89.1424 233.451C89.0398 233.473 89.074 233.622 89.1653 233.644C91.8456 234.215 94.2238 234.962 96.7388 236.074C96.9156 236.154 97.0581 235.914 96.9156 235.789H96.9099Z" fill="#001640"/>
<path d="M98.0051 237.733C95.9463 236 92.9294 234.756 90.2377 235.395C90.135 235.418 90.1692 235.566 90.2605 235.589C92.9409 236.159 95.319 236.906 97.834 238.019C98.0108 238.098 98.1534 237.859 98.0108 237.733H98.0051Z" fill="#001640"/>
<path d="M99.0998 239.678C97.041 237.944 94.0242 236.701 91.3324 237.34C91.2297 237.363 91.2639 237.511 91.3552 237.534C94.0356 238.104 96.4137 238.851 98.9287 239.963C99.1055 240.043 99.2481 239.804 99.1055 239.678H99.0998Z" fill="#001640"/>
<path d="M100.195 241.623C98.1363 239.889 95.1194 238.646 92.4276 239.285C92.3249 239.307 92.3592 239.456 92.4504 239.479C95.1308 240.049 97.5089 240.796 100.024 241.908C100.201 241.988 100.343 241.748 100.201 241.623H100.195Z" fill="#001640"/>
<path d="M75.2046 224.913C72.8607 223.008 69.8952 226.641 72.2391 228.552C74.583 230.462 77.5485 226.824 75.2046 224.913Z" fill="white"/>
<path d="M103.714 232.076C103.377 230.337 101.347 230.103 99.9555 230.479C97.6971 231.089 95.2848 232.555 93.6994 234.255C93.6595 234.295 93.6823 234.34 93.7165 234.369C93.6366 234.557 93.7165 234.825 93.956 234.842C96.2771 235.03 98.7408 235.521 101.05 234.99C102.402 234.682 104.039 233.719 103.719 232.076H103.714ZM97.5318 234.409C96.3855 234.346 95.2506 234.22 94.1043 234.198C95.3247 233.462 96.5109 232.681 97.8055 232.07C98.4214 231.78 99.0659 231.494 99.716 231.289C100.731 230.97 104.204 230.907 102.556 233.342C101.649 234.682 98.8948 234.483 97.5318 234.403V234.409Z" fill="#001640"/>
<path d="M87.8934 230.787C89.4789 232.549 91.7715 233.57 93.7789 234.751C93.9899 234.876 94.2009 234.694 94.2465 234.5C94.2922 234.5 94.3321 234.471 94.3264 234.414C94.007 232.11 92.8835 229.521 91.3894 227.725C90.4655 226.613 88.6747 225.637 87.3973 226.864C86.1883 228.021 86.9753 229.755 87.8991 230.782L87.8934 230.787ZM87.6083 228.574C87.6653 225.632 90.4598 227.685 91.1099 228.529C91.5262 229.071 91.8855 229.675 92.222 230.268C92.9292 231.512 93.4481 232.835 94.0241 234.135C93.0717 233.49 92.0737 232.937 91.1042 232.333C89.9465 231.608 87.5798 230.194 87.6083 228.569V228.574Z" fill="#001640"/>
<path d="M134.042 181.97C132.468 192.874 105.174 224.063 102.02 227.645C101.553 228.17 101.302 228.46 101.302 228.46L79.2483 211.084L79.5106 210.758L99.4254 185.329L40.9644 184.274L63.3713 167.285C63.3713 167.285 65.162 168.346 68.9088 167.844C81.8374 166.11 110.98 162.283 117.835 162.643C126.68 163.116 135.485 171.967 134.042 181.97Z" fill="#001640"/>
<path d="M106.583 175.868C105.813 176.626 105.197 177.584 104.53 178.434C103.828 179.335 103.11 180.225 102.408 181.126C102.403 181.137 102.397 181.143 102.385 181.154C102.511 180.892 102.636 180.624 102.768 180.362C103.212 179.461 103.577 178.531 104.102 177.676C104.136 177.624 104.056 177.573 104.022 177.624C103.48 178.474 102.853 179.284 102.391 180.185C102.174 180.607 101.963 181.035 101.77 181.468C101.661 181.708 101.553 181.947 101.462 182.187C101.416 182.295 101.365 182.415 101.33 182.535C101.017 182.951 100.703 183.373 100.401 183.801C99.7279 184.747 99.1348 185.751 98.4561 186.692C98.4219 186.743 98.5017 186.789 98.5359 186.743C99.2203 185.859 99.9902 185.038 100.692 184.16C101.405 183.27 102.077 182.352 102.745 181.422C103.395 180.521 104.034 179.609 104.684 178.702C105.34 177.79 106.109 176.894 106.646 175.908C106.663 175.873 106.623 175.834 106.589 175.862L106.583 175.868Z" fill="#37474F"/>
<path d="M104.347 223.333C103.093 222.238 101.747 221.229 100.424 220.214C99.0948 219.193 97.766 218.178 96.4258 217.174C93.7511 215.161 91.0821 213.131 88.3789 211.158C86.8961 210.074 85.3963 209.002 83.8565 207.998C83.788 207.953 83.7139 208.061 83.7766 208.118C86.3201 210.291 89.0233 212.27 91.6923 214.277C94.3727 216.29 97.0588 218.292 99.7677 220.265C101.25 221.343 102.728 222.455 104.273 223.442C104.336 223.482 104.399 223.385 104.347 223.339V223.333Z" fill="#37474F"/>
<path d="M56.8874 138.479C62.9497 150.028 70.1468 162.283 76.9675 164.057C83.4575 165.745 98.8954 149.577 101.513 144.211C102.414 142.363 90.1927 134.253 88.4647 135.616C85.2026 138.183 78.0682 146.321 77.0474 146.115C75.9923 145.899 67.3695 138.194 59.5564 131.71C54.823 127.78 52.6843 130.472 56.8817 138.473L56.8874 138.479Z" fill="#AD6359"/>
<path d="M90.6663 116.859L85.9956 133.21C85.8074 133.689 86.0355 134.088 86.5089 134.105L95.012 134.373C95.4854 134.39 96.0271 134.014 96.221 133.535L100.892 117.184C101.086 116.705 100.852 116.306 100.378 116.289L91.8754 116.021C91.402 116.004 90.8602 116.38 90.6663 116.859Z" fill="#A6A6A6"/>
<path d="M91.6755 116.882L87.0048 133.232C86.8109 133.712 87.0447 134.111 87.5181 134.128L96.0212 134.396C96.4945 134.413 97.0363 134.037 97.2302 133.558L101.901 117.207C102.095 116.728 101.861 116.329 101.388 116.312L92.8846 116.044C92.4112 116.027 91.8694 116.403 91.6755 116.882Z" fill="#DBDBDB"/>
<path d="M93.9855 117.709C93.9627 118.108 93.6263 118.416 93.227 118.393C92.8278 118.371 92.5199 118.034 92.5427 117.635C92.5655 117.236 92.902 116.928 93.3012 116.951C93.7004 116.973 94.0084 117.31 93.9855 117.709Z" fill="#455A64"/>
<path d="M105.448 134.96C106.167 130.21 105.619 128.875 108.356 125.186C110.153 122.762 109.377 120.578 106.554 121.941C101.935 124.165 99.7222 130.102 99.5454 132.383L105.448 134.96Z" fill="#AD6359"/>
<path d="M99.3172 147.416C99.3172 147.416 103.754 142.237 105.02 137.247C105.893 133.797 106.965 126.081 99.4199 118.593C97.6292 116.819 93.8253 115.559 95.6902 119.517C97.019 122.328 98.707 123.714 99.1861 125.488C99.1861 125.488 94.1504 124.461 92.4452 126.32C91.681 127.153 89.6507 129.474 88.3277 131.504C88.3277 131.504 88.6926 131.909 89.2287 132.36C89.2287 132.36 87.7973 134.248 88.0995 137.84L99.323 147.41L99.3172 147.416Z" fill="#AD6359"/>
<path d="M105.323 133.82C104.479 132.155 102.631 128.659 100.127 126.326C97.3443 123.731 91.282 119.488 89.3887 121.559C88.0028 123.081 90.17 124.906 90.17 124.906C90.17 124.906 87.2957 123.68 86.3433 125.328C85.4764 126.828 87.2386 128.14 87.2386 128.14C87.2386 128.14 85.3681 127.695 84.8092 129.303C84.1362 131.236 88.1682 131.852 89.1833 134.396C89.4115 134.966 105.323 133.82 105.323 133.82Z" fill="#AD6359"/>
<path d="M97.8802 129.725C96.8309 128.288 93.6087 125.642 90.2497 124.883C90.1756 124.866 90.1185 124.912 90.187 124.946C93.7057 126.571 96.6598 128.75 97.8574 129.754C97.8745 129.765 97.8917 129.742 97.8802 129.725Z" fill="#001640"/>
<path d="M95.177 132.457C94.1448 131.311 90.7002 128.733 87.2727 128.077C87.1986 128.06 87.1473 128.117 87.2157 128.14C90.9625 129.685 93.9053 131.55 95.1599 132.48C95.177 132.491 95.1941 132.468 95.1827 132.451L95.177 132.457Z" fill="#001640"/>
<path d="M84.25 137.726L96.979 151.225C96.979 151.225 83.5314 166.298 77.2182 164.724C70.905 163.15 58.9688 146.058 55.1421 135.211C52.4959 127.706 56.6705 128.91 61.056 132.588C65.4416 136.266 76.9103 145.403 77.4121 145.266C77.914 145.129 84.2443 137.726 84.2443 137.726H84.25Z" fill="#3F80FF"/>
<path opacity="0.1" d="M79.9394 164.582C78.9471 164.85 78.0289 164.924 77.2248 164.725C70.9116 163.151 58.9753 146.059 55.1486 135.212C53.4035 130.262 54.624 129.104 56.9166 129.943C63.7943 140.145 72.9476 153.821 79.9394 164.582Z" fill="black"/>
<path d="M92.8557 153.467C91.0137 151.607 83.7424 143.714 82.2882 141.901C82.1855 141.775 82.2425 141.679 82.3623 141.798C88.0196 147.245 91.2076 151.476 92.9242 153.392C92.9698 153.438 92.9014 153.518 92.8557 153.467Z" fill="#001640"/>
<path d="M71.0419 175.029C71.0419 175.029 29.245 182.671 29.0339 182.42C28.84 182.198 33.6305 136.985 47.8195 129.343C50.0664 128.134 55.4957 127.415 57.8168 129.782C64.4265 136.523 71.5951 174.419 71.0476 175.035L71.0419 175.029Z" fill="#3F80FF"/>
<path d="M70.6083 171.277L29.4443 178.337C29.5983 177.094 29.8093 175.611 30.066 173.94L69.8498 167.114C70.152 168.693 70.4087 170.096 70.6083 171.271V171.277Z" fill="#EBEBEB"/>
<path d="M69.4052 164.912L30.4312 171.602C30.5509 170.861 30.6821 170.102 30.8247 169.315L68.9546 162.774C69.1143 163.504 69.2626 164.222 69.3994 164.918L69.4052 164.912Z" fill="#EBEBEB"/>
<path d="M55.9688 136.66C53.6363 136.649 50.6651 132.36 49.8267 129.269C49.7697 129.058 50.5339 127.153 51.3551 124.792C51.8456 123.361 52.3588 121.752 52.7238 120.247L61.5862 124.809C61.5862 124.809 59.8981 127.735 59.2822 130.352C59.2309 130.575 59.2081 130.78 59.1967 130.985C59.1967 131.014 59.1967 131.048 59.1853 131.088C59.094 132.303 58.2215 136.666 55.9631 136.66H55.9688Z" fill="#AD6359"/>
<path d="M61.5864 124.809C61.5864 124.809 59.8983 127.729 59.2824 130.358C59.2368 130.575 59.2026 130.786 59.1969 130.985C59.1969 131.014 59.1969 131.048 59.1855 131.088C58.8832 131.065 58.5582 131.003 58.2046 130.906C52.7582 129.457 52.8495 122.306 52.9807 120.378L61.5864 124.809Z" fill="#001640"/>
<path d="M52.3419 109.913C50.9218 113.209 51.6404 123.269 53.8246 125.739C56.9955 129.315 62.7213 130.256 65.8978 126.32C68.9774 122.511 67.814 109.417 65.3218 107.119C61.6491 103.737 54.4406 105.037 52.3476 109.913H52.3419Z" fill="#AD6359"/>
<path d="M61.5238 117.15C61.5238 117.15 61.4724 117.184 61.4781 117.213C61.5637 117.88 61.5409 118.661 60.9592 118.941C60.9421 118.947 60.9478 118.981 60.9706 118.975C61.7006 118.804 61.7177 117.766 61.5295 117.144L61.5238 117.15Z" fill="#001640"/>
<path d="M60.8563 116.506C59.7671 116.523 59.8811 118.696 60.8905 118.684C61.8829 118.667 61.7688 116.494 60.8563 116.506Z" fill="#001640"/>
<path d="M65.4755 116.933C65.4755 116.933 65.5325 116.962 65.5325 116.99C65.5439 117.663 65.6751 118.433 66.2967 118.627C66.3138 118.633 66.3138 118.667 66.2967 118.667C65.5496 118.604 65.3842 117.578 65.4812 116.933H65.4755Z" fill="#001640"/>
<path d="M66.0406 116.203C67.1184 116.067 67.318 118.234 66.32 118.359C65.3334 118.485 65.1338 116.317 66.0406 116.203Z" fill="#001640"/>
<path d="M59.9438 115.559C60.2347 115.468 60.4913 115.337 60.7708 115.217C61.0844 115.08 61.3525 115.006 61.5464 114.709C61.649 114.55 61.592 114.276 61.4437 114.156C61.1015 113.882 60.6738 113.951 60.286 114.099C59.864 114.259 59.5845 114.487 59.3564 114.875C59.1397 115.251 59.556 115.679 59.9381 115.559H59.9438Z" fill="#001640"/>
<path d="M66.8274 115.063C66.5251 115.029 66.2456 114.949 65.9491 114.886C65.6126 114.812 65.3389 114.789 65.0879 114.532C64.9568 114.396 64.9625 114.11 65.0879 113.968C65.3731 113.637 65.8065 113.626 66.2114 113.694C66.6506 113.768 66.9756 113.945 67.2665 114.282C67.5516 114.607 67.2266 115.108 66.8216 115.063H66.8274Z" fill="#001640"/>
<path d="M61.1241 123.144C61.261 123.321 61.3921 123.56 61.6317 123.617C61.8598 123.669 62.1506 123.606 62.373 123.555C62.3959 123.555 62.413 123.577 62.3959 123.594C62.1849 123.828 61.7971 123.937 61.4948 123.834C61.1982 123.737 61.0899 123.458 61.0557 123.167C61.0557 123.127 61.1013 123.121 61.1241 123.144Z" fill="#001640"/>
<path d="M61.8717 121.159C62.2823 121.724 62.8526 122.015 63.4571 122.1C63.7251 122.14 64.0103 122.135 64.284 122.095C64.3353 122.095 64.5349 122.049 64.5863 122.038C64.6661 122.02 64.706 121.952 64.7117 121.878C64.7117 121.849 64.592 120.435 64.592 120.435C64.7859 120.521 65.7782 120.903 65.744 120.635C65.493 118.399 65.2136 115.913 64.4893 113.74C64.4665 113.666 64.3582 113.688 64.3696 113.763C64.5292 115.924 65.0653 118.04 65.2535 120.201C64.9399 120.099 64.4266 119.91 64.1528 119.927C64.1129 119.939 64.3467 121.69 64.341 121.701C63.4742 121.861 62.8069 121.633 61.9287 121.091C61.8774 121.057 61.826 121.102 61.8717 121.154V121.159Z" fill="#001640"/>
<path d="M64.0614 121.992C64.0614 121.992 63.5824 122.648 62.9209 122.887C62.6756 122.979 62.4133 123.013 62.1395 122.939C61.575 122.79 61.5578 122.271 61.6605 121.827C61.746 121.462 61.9114 121.148 61.9114 121.148C61.9114 121.148 62.7384 121.918 64.0671 121.998L64.0614 121.992Z" fill="#001640"/>
<path d="M62.9209 122.887C62.6756 122.979 62.4133 123.013 62.1395 122.939C61.575 122.79 61.5578 122.271 61.6605 121.827C62.265 121.889 62.8695 122.294 62.9209 122.887Z" fill="#FF9CBD"/>
<path d="M51.4124 118.998C54.0357 119.203 55.4273 116.084 54.8285 113.563C54.8285 113.563 61.7975 114.538 62.1739 108.944C62.1739 108.944 63.8334 111.487 66.9929 111.595L67.4548 113.563C68.1734 113.363 68.949 111.333 67.2096 109.725C67.2096 109.725 67.1069 106.93 65.0653 105.242C63.0179 103.554 60.9648 104.638 60.9648 104.638C60.9648 104.638 59.3395 103.258 56.7675 103.571C54.1954 103.879 53.1176 106.218 53.1176 106.218C53.1176 106.218 49.6559 106.851 49.0514 109.303C48.4469 111.755 49.7015 113.409 49.7015 113.409C49.7015 113.409 48.829 114.367 49.251 116.466C49.5247 117.817 50.6197 118.947 51.4067 119.004L51.4124 118.998Z" fill="#001640"/>
<path d="M62.0256 108.447C62.0712 108.904 62.0826 109.366 62.0256 109.816C61.9971 110.267 61.9001 110.711 61.7633 111.139C61.4781 111.983 60.9135 112.719 60.1322 113.135C59.3737 113.614 58.4441 113.683 57.5545 113.763C57.1039 113.745 56.6477 113.763 56.1915 113.717C55.7352 113.666 55.2847 113.609 54.8228 113.569C55.2676 113.683 55.7181 113.774 56.1687 113.877C56.6249 113.951 57.0868 113.968 57.5545 114.014C58.4726 113.985 59.4479 113.911 60.2862 113.42C61.1188 112.947 61.7461 112.126 61.9914 111.213C62.2366 110.301 62.2309 109.343 62.0142 108.453L62.0256 108.447Z" fill="#001640"/>
<path d="M65.5957 111.71C64.8201 111.419 64.1015 111.059 63.4913 110.552C63.1776 110.307 62.9153 110.01 62.6815 109.696C62.4362 109.383 62.2823 109.012 62.1055 108.63C62.1511 109.041 62.2537 109.457 62.4762 109.828C62.6815 110.198 62.9609 110.535 63.2917 110.803C63.6225 111.071 63.9931 111.287 64.3867 111.436C64.7802 111.584 65.1908 111.692 65.6071 111.704L65.5957 111.71Z" fill="#001640"/>
<path d="M60.1952 120.549C58.8892 120.486 57.7373 119.545 57.4635 118.205C57.1441 116.62 58.1707 115.069 59.7504 114.743C61.3358 114.418 62.887 115.445 63.2121 117.03C63.5314 118.616 62.5049 120.167 60.9252 120.492C60.68 120.543 60.4347 120.56 60.2009 120.549H60.1952ZM60.4633 115.08C60.258 115.069 60.0469 115.08 59.8359 115.126C58.4615 115.405 57.5719 116.751 57.8513 118.12C58.1308 119.494 59.4767 120.384 60.8454 120.104C62.2198 119.825 63.1094 118.479 62.83 117.11C62.5962 115.947 61.5981 115.131 60.4633 115.08Z" fill="#3F80FF"/>
<path d="M66.9075 120.059C65.784 120.002 64.8259 118.804 64.7233 117.281C64.672 116.511 64.8431 115.77 65.2023 115.194C65.573 114.595 66.1091 114.247 66.7022 114.207C67.301 114.167 67.8713 114.441 68.3219 114.983C68.7553 115.502 69.029 116.215 69.0804 116.985C69.1887 118.599 68.3048 119.979 67.1014 120.059C67.0387 120.059 66.9703 120.059 66.9075 120.059ZM66.8733 114.595C66.822 114.595 66.7764 114.595 66.725 114.595C66.2574 114.629 65.8354 114.915 65.5274 115.399C65.208 115.907 65.0598 116.563 65.1054 117.253C65.2023 118.65 66.0806 119.734 67.0672 119.665C68.0538 119.597 68.7781 118.405 68.6811 117.008C68.6355 116.317 68.396 115.69 68.0139 115.228C67.6831 114.835 67.2839 114.612 66.8676 114.595H66.8733Z" fill="#3F80FF"/>
<path d="M63.138 117.384L62.8643 117.099C63.2806 116.694 64.2729 116.124 65.0428 116.842L64.7747 117.127C64.0904 116.483 63.1779 117.344 63.138 117.384Z" fill="#3F80FF"/>
<path d="M50.7397 119.095L50.3804 118.941C50.4545 118.775 51.1161 117.298 51.9772 117.093C52.787 116.905 57.4748 116.973 57.703 116.979L57.6916 117.373C56.1803 117.333 52.6901 117.333 52.0684 117.481C51.4982 117.612 50.9165 118.696 50.7397 119.101V119.095Z" fill="#3F80FF"/>
<path d="M53.8874 118.821C53.8874 118.821 51.9427 115.422 50.4201 116.089C48.8974 116.757 50.1634 121.541 51.8059 122.328C53.4483 123.115 54.2068 121.604 54.2068 121.604L53.8874 118.821Z" fill="#AD6359"/>
<path d="M50.8191 117.452C50.8191 117.452 50.7848 117.487 50.8076 117.498C51.9596 118.091 52.4843 119.255 52.8208 120.441C52.5071 119.967 52.0452 119.682 51.4122 120.053C51.3779 120.07 51.4065 120.121 51.4407 120.121C51.9368 120.059 52.2847 120.178 52.5813 120.6C52.7923 120.897 52.9177 121.262 53.0546 121.598C53.1002 121.712 53.2998 121.673 53.2713 121.541C53.2713 121.53 53.2713 121.524 53.2656 121.513C53.431 119.996 52.4444 117.76 50.8191 117.458V117.452Z" fill="#001640"/>
<path d="M59.3279 132.16C59.3279 132.16 59.2937 132.137 59.2937 132.16C59.1968 134.059 58.8546 138.456 55.7921 137.852C54.5603 137.607 53.5109 136.74 52.6441 135.907C51.7544 135.052 49.8268 132.662 48.555 130.039C48.5322 129.987 48.4581 130.027 48.4752 130.084C48.6805 130.797 49.2394 132.08 49.9637 133.261C50.6594 134.396 51.4807 135.474 52.473 136.392C53.4026 137.253 54.526 138.126 55.8377 138.325C57.0867 138.513 58.0847 137.869 58.5808 136.803C59.231 135.4 59.4021 133.689 59.3279 132.166V132.16Z" fill="#001640"/>
<path d="M43.1316 132.947C36.6074 138.667 19.8806 161.177 23.9867 166.002C28.1214 170.861 53.9044 167.479 61.3297 164.81C63.5367 164.017 56.8472 150.073 54.4006 149.52C52.3646 149.058 41.3351 152.822 41.0899 152.183C40.8162 151.465 42.9947 146.572 46.4507 137.664C50.437 127.393 46.0116 130.415 43.1259 132.942L43.1316 132.947Z" fill="#AD6359"/>
<path d="M65.2935 146.332C70.4888 146.133 71.8519 146.88 76.1462 144.382C78.9634 142.745 81.2218 143.84 79.4197 146.709C76.4712 151.402 69.8273 153.067 67.3522 152.982L65.2935 146.326V146.332Z" fill="#AD6359"/>
<path d="M51.1956 149.896C51.1956 149.896 57.2693 147.279 62.784 146.52C66.5993 145.996 75.0226 145.773 82.157 154.784C83.8508 156.923 84.7461 161.166 80.7141 158.679C77.8512 156.917 76.5681 154.932 74.7146 154.208C74.7146 154.208 75.2165 159.74 73.0094 161.354C72.0228 162.072 69.2854 163.977 66.9472 165.158C66.9472 165.158 66.5537 164.718 66.1317 164.085C66.1317 164.085 63.9303 165.397 60.1037 164.644L51.1899 149.908L51.1956 149.896Z" fill="#AD6359"/>
<path d="M66.5022 146.594C68.1902 147.701 71.7261 150.108 73.9331 153.079C76.3854 156.381 80.2178 163.407 77.7598 165.192C75.9577 166.504 74.2582 163.949 74.2582 163.949C74.2582 163.949 75.2334 167.188 73.3457 168.015C71.6291 168.768 70.4315 166.715 70.4315 166.715C70.4315 166.715 70.6824 168.779 68.886 169.184C66.7246 169.674 66.5535 165.266 63.9358 163.869C63.3484 163.555 66.4965 146.594 66.4965 146.594H66.5022Z" fill="#AD6359"/>
<path d="M70.015 155.092C71.4294 156.392 73.8873 160.173 74.3037 163.874C74.3151 163.96 74.2523 164.011 74.2295 163.937C72.9064 159.957 70.9161 156.523 69.9865 155.12C69.9751 155.103 70.0036 155.08 70.015 155.098V155.092Z" fill="#001640"/>
<path d="M66.753 157.664C67.8594 158.913 70.2204 162.922 70.5055 166.686C70.5112 166.772 70.4485 166.817 70.4257 166.743C69.2167 162.529 67.5628 159.147 66.7131 157.687C66.7017 157.67 66.7302 157.647 66.7473 157.664H66.753Z" fill="#001640"/>
<path d="M74.7205 154.168C76.3401 154.83 77.3439 155.753 78.6555 156.877C79.3057 157.43 79.9615 157.978 80.6687 158.457C81.3131 158.89 82.2598 159.552 83.0411 159.044C83.4745 158.765 83.5316 158.183 83.4859 157.71C83.4346 157.185 83.024 156.175 82.7617 155.719C82.7503 155.696 82.7902 155.674 82.8016 155.696C83.0468 156.107 83.5145 157.025 83.6342 157.487C83.7426 157.909 83.811 158.388 83.657 158.805C83.3206 159.7 82.2199 159.711 81.4785 159.381C81.0337 159.181 80.6231 158.896 80.2295 158.611C79.8475 158.337 79.4825 158.046 79.1175 157.749C78.3761 157.134 77.6746 156.478 76.939 155.85C76.1348 155.166 75.5645 154.812 74.692 154.219C74.6635 154.197 74.692 154.151 74.7205 154.168Z" fill="#001640"/>
<path d="M77.6287 160.39C77.2922 159.392 75.3532 155.195 74.6859 154.202C74.6688 154.179 74.703 154.151 74.7259 154.174C75.9007 155.537 77.6629 159.021 78.045 160.122C78.4214 161.205 78.8434 162.591 78.7293 163.743C78.5525 165.488 77.3663 165.699 76.9272 165.745C76.4082 165.796 75.9007 165.637 75.4672 165.352C74.9825 165.038 74.5434 164.439 74.2468 163.954C74.2297 163.931 74.2639 163.897 74.2867 163.926C74.8228 164.673 75.7581 165.454 76.7162 165.426C77.1325 165.414 77.5659 165.266 77.8511 164.952C78.1876 164.582 78.2617 164.057 78.2731 163.578C78.2902 162.489 77.9765 161.416 77.6287 160.396V160.39Z" fill="#001640"/>
<path d="M51.1955 149.897L57.5657 167.69C57.5657 167.69 25.2756 171.613 23.1027 165.842C20.9299 160.071 35.3527 139.785 41.5062 134.077C48.6406 127.455 49.2109 130.01 47.1521 136.306C44.9964 142.899 41.1697 152.354 41.1697 152.354L51.1955 149.897Z" fill="#3F80FF"/>
<path d="M31.1158 155.913C32.6784 155.035 34.3209 154.311 35.9918 153.672C37.6457 153.039 39.3623 152.583 41.0846 152.2C42.0712 151.978 43.0635 151.807 44.0615 151.63C44.09 151.63 44.1014 151.67 44.0672 151.676C42.3278 152.035 40.6112 152.548 38.9289 153.107C37.2522 153.66 35.5869 154.248 33.9274 154.864C32.9921 155.212 32.0682 155.605 31.1443 155.987C31.0987 156.004 31.0759 155.942 31.1158 155.925V155.913Z" fill="#001640"/>
<path d="M51.116 149.839C50.9507 149.862 42.0312 151.853 41.7347 151.955C41.786 151.83 43.7935 147.393 44.0957 146.743C44.1242 146.68 44.1527 146.612 44.1813 146.549C44.3695 146.264 44.5577 145.984 44.7344 145.688C44.9626 145.311 45.185 144.941 45.4074 144.564C45.4131 144.553 45.396 144.541 45.3903 144.553C45.1508 144.918 44.9112 145.277 44.6717 145.648C44.5634 145.819 44.455 145.99 44.3523 146.161C44.5519 145.699 44.7458 145.237 44.9397 144.775C45.2477 144.034 45.5329 143.287 45.818 142.54C45.8294 142.517 45.7895 142.505 45.7781 142.528C45.185 143.823 44.5519 145.095 43.9531 146.389C43.36 147.678 41.0845 152.429 41.1017 152.429C41.1188 152.44 50.9507 150.028 51.1389 149.971C51.213 149.948 51.1959 149.839 51.116 149.851V149.839Z" fill="#001640"/>
<path d="M50.5852 160.977C49.8895 158.993 49.2051 157.002 48.4295 155.041C47.9904 153.928 47.557 152.811 47.1064 151.704C47.0893 151.664 47.0152 151.687 47.0266 151.727C47.6482 153.746 48.2755 155.771 48.9941 157.761C49.707 159.74 50.397 161.73 51.1384 163.703C51.5547 164.827 52.011 165.927 52.4957 167.022C52.5071 167.045 52.5413 167.034 52.5356 167.011C51.9824 164.969 51.2867 162.973 50.5852 160.977Z" fill="#001640"/>
<path d="M57.9422 167.998C57.6799 167.444 57.3548 166.652 57.0697 166.104C56.9956 165.962 56.8872 165.979 56.9442 166.127C57.1381 166.623 57.2807 167.182 57.4746 167.69C57.0241 167.735 56.5678 167.77 56.1173 167.815C55.5926 167.872 55.0737 167.929 54.549 167.986C53.5225 168.095 52.5016 168.186 51.4751 168.271C49.3992 168.443 47.3176 168.574 45.2361 168.654C41.0615 168.825 36.8698 168.836 32.6953 168.574C31.5262 168.5 30.3628 168.403 29.1994 168.271C28.0189 168.135 26.7471 167.986 25.7833 167.764C25.7548 167.758 25.7434 167.809 25.7719 167.821C26.7642 168.129 27.6938 168.351 28.7203 168.511C29.7697 168.671 30.819 168.796 31.874 168.893C33.9784 169.081 36.0885 169.155 38.1986 169.173C42.3789 169.207 46.5649 169.058 50.7394 168.75C51.9085 168.665 53.0776 168.562 54.241 168.448C54.8284 168.391 55.4158 168.334 56.0032 168.26C56.5907 168.192 57.9936 168.1 57.948 168.003L57.9422 167.998Z" fill="#001640"/>
<path d="M99.545 167.604H58.8887V169.423H99.545V167.604Z" fill="#C7C7C7"/>
<path d="M99.5452 167.604V169.423H71.9087L73.3059 167.604H99.5452Z" fill="#A6A6A6"/>
<path d="M77.5029 169.423H113.084L118.233 144.319H82.647L77.5029 169.423Z" fill="#A6A6A6"/>
<path d="M79.1626 169.423H114.743L119.893 144.319H84.3124L79.1626 169.423Z" fill="#C7C7C7"/>
<path d="M102.738 155.936C102.778 157.122 101.98 158.257 100.965 158.468C99.9497 158.679 99.0942 157.892 99.06 156.706C99.0201 155.52 99.8185 154.385 100.834 154.174C101.849 153.963 102.704 154.75 102.738 155.936Z" fill="white"/>
<path d="M182.404 221.531C181.873 222.911 156.341 253.873 154.619 254.437C153.969 254.654 149.241 251.198 143.652 246.864C142.443 245.929 141.205 244.953 139.951 243.955C131.796 237.494 123.292 230.445 123.292 230.445L140.31 209.686L156.501 223.767L160.059 226.852C160.059 226.852 175.138 219.37 177.088 218.954C179.033 218.543 182.934 220.151 182.404 221.531Z" fill="#AD6359"/>
<path d="M182.404 221.531C181.873 222.911 156.341 253.873 154.619 254.437C153.826 254.7 147.011 249.544 139.945 243.955L156.495 223.767L160.054 226.852C160.054 226.852 175.133 219.37 177.083 218.954C179.028 218.543 182.928 220.151 182.398 221.531H182.404Z" fill="#EBEBEB"/>
<path d="M182.403 221.531C181.873 222.911 156.341 253.873 154.619 254.437C153.969 254.654 149.241 251.198 143.652 246.864L160.054 226.858C160.054 226.858 175.132 219.376 177.083 218.959C179.027 218.549 182.928 220.157 182.398 221.537L182.403 221.531Z" fill="#3F80FF"/>
<path d="M180.801 220.955C176.392 226.042 159.095 246.967 155.126 252.327C155.092 252.373 155.126 252.396 155.16 252.356C159.637 247.411 176.763 226.35 180.886 221.029C180.972 220.915 180.892 220.853 180.801 220.961V220.955Z" fill="#001640"/>
<path d="M174.328 220.031C173.261 221.223 172.856 222.906 173.033 224.183C173.204 225.409 173.74 226.778 174.847 227.628C174.881 227.651 174.927 227.594 174.898 227.565C173.113 225.592 172.851 222.273 174.39 220.088C174.419 220.043 174.362 219.992 174.328 220.037V220.031Z" fill="#001640"/>
<path d="M162.232 225.267C160.493 227.32 159.238 230.331 159.871 233.023C159.894 233.125 160.042 233.091 160.065 233C160.647 230.325 161.394 227.941 162.517 225.438C162.597 225.261 162.358 225.118 162.232 225.261V225.267Z" fill="#001640"/>
<path d="M164.182 224.177C162.443 226.231 161.188 229.242 161.821 231.934C161.844 232.036 161.992 232.002 162.015 231.911C162.597 229.236 163.344 226.852 164.467 224.349C164.547 224.172 164.308 224.029 164.182 224.172V224.177Z" fill="#001640"/>
<path d="M166.127 223.094C164.388 225.147 163.133 228.158 163.766 230.85C163.789 230.953 163.937 230.918 163.96 230.827C164.542 228.152 165.289 225.769 166.412 223.265C166.492 223.088 166.253 222.946 166.127 223.088V223.094Z" fill="#001640"/>
<path d="M168.077 222.005C166.338 224.058 165.083 227.069 165.716 229.761C165.739 229.863 165.887 229.829 165.91 229.738C166.492 227.063 167.245 224.679 168.363 222.176C168.442 221.999 168.203 221.856 168.077 221.999V222.005Z" fill="#001640"/>
<path d="M151.282 246.938C149.366 249.276 152.993 252.253 154.915 249.915C156.831 247.577 153.204 244.6 151.282 246.938Z" fill="white"/>
<path d="M158.542 218.452C156.803 218.782 156.563 220.813 156.934 222.204C157.533 224.463 158.993 226.881 160.687 228.472C160.726 228.512 160.772 228.495 160.801 228.455C160.989 228.535 161.257 228.455 161.274 228.221C161.468 225.9 161.97 223.442 161.445 221.126C161.143 219.775 160.185 218.138 158.537 218.452H158.542ZM160.858 224.639C160.789 225.786 160.664 226.921 160.635 228.067C159.905 226.841 159.13 225.655 158.525 224.36C158.234 223.738 157.949 223.1 157.749 222.444C157.436 221.429 157.379 217.956 159.814 219.615C161.154 220.528 160.943 223.276 160.863 224.645L160.858 224.639Z" fill="#001640"/>
<path d="M157.202 234.272C158.97 232.692 159.996 230.399 161.183 228.398C161.308 228.192 161.131 227.976 160.932 227.93C160.932 227.884 160.903 227.844 160.852 227.85C158.548 228.164 155.953 229.276 154.151 230.77C153.039 231.688 152.058 233.479 153.278 234.762C154.436 235.971 156.17 235.196 157.202 234.272ZM154.984 234.551C152.041 234.488 154.105 231.694 154.949 231.05C155.491 230.633 156.096 230.28 156.694 229.943C157.943 229.242 159.266 228.728 160.567 228.152C159.922 229.099 159.363 230.097 158.753 231.067C158.029 232.224 156.603 234.585 154.978 234.551H154.984Z" fill="#001640"/>
<path d="M155.662 220.596L136.711 243.054L79.5506 202.352L73.9218 198.343C73.9218 198.343 72.3021 199.404 69.867 200.716C66.4851 202.535 61.5292 204.827 57.1665 205.415C49.8439 206.407 38.8258 206.156 32.7635 197.847C27.6594 190.849 29.4045 181.822 29.4045 181.822L37.4685 178.474C37.4685 178.474 56.6532 162.882 68.9602 162.557C74.1898 162.414 81.7462 166.464 88.7437 170.689C95.7356 174.904 155.657 220.607 155.657 220.607L155.662 220.596Z" fill="#001640"/>
<path d="M73.9276 198.343C73.9276 198.343 72.308 199.404 69.8728 200.716C65.6584 195.543 56.7161 186.133 56.4424 185.797L73.9276 198.343Z" fill="#37474F"/>
<path d="M44.5004 173.256C43.3541 174.031 42.2477 174.853 41.1185 175.651C40.0064 176.432 38.8601 177.168 37.8051 178.023C36.7272 178.896 35.7064 179.826 34.6913 180.767C34.2008 181.223 33.7161 181.679 33.2427 182.147C32.7751 182.614 32.2504 183.082 31.8569 183.612C31.8227 183.664 31.8911 183.721 31.9367 183.692C32.4842 183.35 32.9747 182.882 33.4708 182.472C34.0069 182.033 34.5373 181.582 35.0734 181.143C36.1056 180.288 37.1549 179.455 38.1872 178.599C39.208 177.75 40.1604 176.814 41.1698 175.948C42.2534 175.024 43.394 174.163 44.5175 173.29C44.5403 173.273 44.5175 173.239 44.4946 173.256H44.5004Z" fill="#37474F"/>
<path d="M149.811 218.429C148.665 219.638 147.598 220.938 146.526 222.216C145.448 223.499 144.382 224.788 143.321 226.077C141.199 228.666 139.055 231.243 136.968 233.861C135.822 235.298 134.687 236.747 133.62 238.247C133.575 238.315 133.677 238.389 133.734 238.332C136.015 235.886 138.103 233.268 140.224 230.685C142.346 228.095 144.462 225.495 146.549 222.871C147.689 221.434 148.864 220.009 149.914 218.509C149.954 218.446 149.862 218.378 149.811 218.435V218.429Z" fill="#37474F"/>
<path d="M106.851 221.725C103.948 219.381 97.3439 214.79 94.3327 212.589C91.3387 210.399 88.3446 208.204 85.305 206.076C84.4324 205.466 83.5485 204.867 82.6702 204.268C81.7919 203.67 80.8795 203.116 80.0183 202.495C79.967 202.461 79.9214 202.54 79.9727 202.58C80.7597 203.162 81.5068 203.812 82.2824 204.411C83.0238 204.987 83.7595 205.569 84.5065 206.133C85.9665 207.24 87.4379 208.329 88.9092 209.418C91.8919 211.631 94.8973 213.815 97.9313 215.948C99.6536 217.163 104.963 220.75 106.725 221.908C106.828 221.976 106.959 221.811 106.856 221.731L106.851 221.725Z" fill="#37474F"/>
<path d="M125.625 197.63C122.945 195.355 116.825 190.969 114.014 188.859C111.168 186.726 108.339 184.576 105.482 182.455C102.648 180.356 99.8135 178.252 96.9849 176.153C94.236 174.117 91.5043 172.047 88.6015 170.239C87.0104 169.247 85.3794 168.328 83.7027 167.502C82.0716 166.697 80.3779 165.87 78.6328 165.357C78.5814 165.34 78.5529 165.42 78.5985 165.443C80.03 166.264 81.5356 166.96 82.9898 167.758C84.4213 168.545 85.8356 169.372 87.2214 170.233C90.1071 172.03 92.8217 174.066 95.5534 176.079C101.228 180.265 106.885 184.468 112.6 188.597C115.799 190.906 122.169 195.68 125.494 197.807C125.597 197.875 125.722 197.716 125.625 197.63Z" fill="#37474F"/>
</g>
<defs>
<clipPath id="clip0_1_2705">
<rect width="248.826" height="256" fill="white"/>
</clipPath>
</defs>
</svg>
