<svg width="42" height="10" viewBox="0 0 42 10" fill="none" xmlns="http://www.w3.org/2000/svg">
<path d="M19.8158 0.669067L17.2012 6.46384L14.5989 0.669067H11.2641V8.99186L7.54819 0.669067H4.73433L0.939209 9.3074H3.1851L4.0154 7.37952H8.26217L9.10608 9.3074H13.3937V2.89145L16.2385 9.3074H18.1726L21.0817 3.00281V9.3074H23.2125V0.669067H19.8158ZM4.81848 5.51351L6.08805 2.49424L7.40713 5.51351H4.81848Z" fill="#1976D2"/>
<path d="M37.2046 4.89245L41.0616 0.691462H38.3183L35.8509 3.36921L33.4639 0.669189H24.9753V9.30875H33.1855L35.7742 6.44911L38.2985 9.33103H41.0332L37.2046 4.89245ZM32.0632 7.49472H27.1V5.78586H31.8491V4.14877H27.1V2.53025L32.3391 2.5451L34.4341 4.89245L32.0632 7.49472Z" fill="#1976D2"/>
</svg>
