<?xml version="1.0" encoding="UTF-8"?>
<svg xmlns="http://www.w3.org/2000/svg" id="Layer_1" data-name="Layer 1" viewBox="0 0 24 24">
  <path d="m9,12c3.309,0,6-2.691,6-6S12.309,0,9,0,3,2.691,3,6s2.691,6,6,6Zm0-11c2.757,0,5,2.243,5,5s-2.243,5-5,5-5-2.243-5-5S6.243,1,9,1Zm9,22v.5c0,.276-.224.5-.5.5s-.5-.224-.5-.5v-.5c0-4.411-3.589-8-8-8S1,18.589,1,23v.5c0,.276-.224.5-.5.5s-.5-.224-.5-.5v-.5c0-4.963,4.037-9,9-9s9,4.037,9,9Zm5.837-10.837c.195.195.195.512,0,.707-.098.098-.226.146-.354.146s-.256-.049-.354-.146l-2.646-2.646-2.646,2.646c-.098.098-.226.146-.354.146s-.256-.049-.354-.146c-.195-.195-.195-.512,0-.707l2.646-2.646-2.646-2.646c-.195-.195-.195-.512,0-.707s.512-.195.707,0l2.646,2.646,2.646-2.646c.195-.195.512-.195.707,0s.195.512,0,.707l-2.646,2.646,2.646,2.646Z"/>
</svg>
