<svg width="42" height="14" viewBox="0 0 42 14" fill="none" xmlns="http://www.w3.org/2000/svg">
<path d="M12.0282 0.46228L8.90645 9.77285C8.90645 9.77285 8.11353 5.8344 8.03507 5.33987C6.25784 1.28492 3.63538 1.51079 3.63538 1.51079L6.72622 13.5389V13.5365H10.484L15.6802 0.46228H12.0282Z" fill="#1565C0"/>
<path d="M15.0045 13.5388H18.4175L20.4813 0.462196H17.0255L15.0045 13.5388Z" fill="#1565C0"/>
<path d="M39.1593 0.462196H35.5679L29.9688 13.5388H33.3592L34.0582 11.6713H38.333L38.6968 13.5388H41.8031L39.1593 0.462196ZM35.0044 9.17362L36.8625 4.23183L37.8349 9.17362H35.0044Z" fill="#1565C0"/>
<path d="M25.3229 4.27347C25.3229 3.55307 25.9149 3.01693 27.6125 3.01693C28.7156 3.01693 29.9793 3.81817 29.9793 3.81817L30.5333 1.07326C30.5333 1.07326 28.9189 0.461037 27.3343 0.461037C23.7453 0.461037 21.8944 2.17764 21.8944 4.35074C21.8944 8.28087 26.6246 7.74235 26.6246 9.76091C26.6246 10.1068 26.35 10.9069 24.3801 10.9069C22.4044 10.9069 21.1003 10.1829 21.1003 10.1829L20.5118 12.8173C20.5118 12.8173 21.7755 13.5377 24.2173 13.5377C26.665 13.5377 30.0602 11.7069 30.0602 9.07735C30.0602 5.914 25.3229 5.68575 25.3229 4.27347Z" fill="#1565C0"/>
<path d="M8.49331 7.52966L7.34495 1.88531C7.34495 1.88531 6.82545 0.662044 5.47499 0.662044C4.12453 0.662044 0.196777 0.662044 0.196777 0.662044C0.196777 0.662044 6.92649 2.64969 8.49331 7.52966Z" fill="#FFC107"/>
</svg>
