<svg width="24" height="24" viewBox="0 0 24 24" fill="none" xmlns="http://www.w3.org/2000/svg">
  <g clip-path="url(#clip0)">
    <circle cx="12" cy="12" r="12" fill="#0077B5"/>
    
    <path 
      d="M6.75 9h2.5v7h-2.5V9zm1.25-4c-.8 0-1.45.65-1.45 1.45S7.2 7.9 8 7.9s1.45-.65 1.45-1.45S8.8 5 8 5zm3.5 4h2.25v1c.3-.55 1.1-1.15 2.3-1.15 2.45 0 2.95 1.6 2.95 3.7V16h-2.5v-3.25c0-.9-.02-2.05-1.35-2.05-1.35 0-1.55 1.05-1.55 2v3.3H11.5V9z"
      fill="white"
    />
  </g>
  <defs>
    <clipPath id="clip0">
      <rect width="24" height="24" fill="white"/>
    </clipPath>
  </defs>
</svg>
