<svg width="32" height="32" viewBox="0 0 32 32" fill="none" xmlns="http://www.w3.org/2000/svg">
<path d="M12.3499 7.40499L12.3541 7.40668C12.4416 7.03371 12.7599 6.75924 13.1581 6.75924H24.5004C24.5147 6.75924 24.5291 6.75335 24.5434 6.75419C24.3017 2.73066 20.9265 0.865814 17.9486 0.865814H6.6063C6.20723 0.865814 5.88899 1.14786 5.80227 1.51998L5.79806 1.5183L0.840005 24.2821L0.85095 24.2829C0.839163 24.3368 0.818115 24.3882 0.818115 24.4463C0.818115 24.9118 1.19445 25.2806 1.66003 25.2806H8.45516L12.3499 7.40499Z" fill="#1565C0"/>
<path d="M24.5433 6.75418C24.588 7.4917 24.5391 8.29405 24.3505 9.18059C23.272 14.2279 19.3731 16.8547 14.5548 16.8547C14.5548 16.8547 11.6334 16.8547 10.9236 16.8547C10.485 16.8547 10.2779 17.1123 10.1827 17.3093L8.7178 24.0859L8.46101 25.289H8.45596L7.39262 30.1688L7.40356 30.1696C7.39178 30.2235 7.37073 30.2748 7.37073 30.3329C7.37073 30.7985 7.74706 31.1749 8.21265 31.1749H14.3864L14.3974 31.1664C14.7948 31.1605 15.1105 30.8768 15.193 30.503L15.2081 30.4904L16.7337 23.4048C16.7337 23.4048 16.8398 22.7287 17.5504 22.7287C18.2609 22.7287 21.0679 22.7287 21.0679 22.7287C25.8862 22.7287 29.8247 20.1137 30.904 15.0656C32.1181 9.37423 28.0583 6.77523 24.5433 6.75418Z" fill="#039BE5"/>
<path d="M13.1581 6.75921C12.759 6.75921 12.4408 7.03368 12.354 7.40665L12.3498 7.40496L10.1819 17.3101C10.277 17.1131 10.4841 16.8555 10.9228 16.8555C11.6334 16.8555 14.4883 16.8555 14.4883 16.8555C19.3066 16.8555 23.2712 14.2287 24.3497 9.18141C24.5391 8.29487 24.5871 7.49252 24.5425 6.755C24.529 6.75332 24.5139 6.75921 24.5004 6.75921H13.1581Z" fill="#283593"/>
</svg>
